{"glyphs":{"0":{"ha":724,"x_min":90,"x_max":633,"o":"m 361 -8 q 169 57 247 -8 q 90 278 90 122 l 90 729 q 169 951 90 886 q 361 1015 247 1015 q 554 951 475 1015 q 633 729 633 886 l 633 278 q 554 57 633 122 q 361 -8 475 -8 m 361 42 q 524 99 465 42 q 583 278 583 157 l 583 729 q 524 908 583 850 q 361 965 465 965 q 199 908 257 965 q 140 729 140 850 l 140 278 q 199 99 140 157 q 361 42 257 42 m 363 458 q 318 503 318 458 q 363 546 318 546 q 406 503 406 546 q 363 458 406 458 z "},"1":{"ha":290,"x_min":26,"x_max":186,"o":"m 161 0 q 144 6 151 0 q 136 25 136 13 l 136 888 l 76 776 q 51 758 67 758 q 34 765 42 758 q 26 782 26 772 q 33 799 26 789 q 40 814 39 810 l 132 992 q 164 1015 144 1015 q 180 1010 174 1015 q 186 992 186 1004 l 186 25 q 178 6 186 13 q 161 0 171 0 z "},"2":{"ha":640,"x_min":53,"x_max":596,"o":"m 78 0 q 61 7 69 0 q 53 25 53 14 l 53 160 q 101 287 53 231 q 221 394 150 343 q 363 497 292 444 q 483 613 435 550 q 532 754 532 675 q 479 898 532 831 q 318 965 426 965 q 182 919 236 965 q 128 782 128 872 q 122 766 128 774 q 101 758 115 758 q 83 767 88 758 q 78 797 78 776 q 146 951 78 888 q 321 1015 214 1015 q 511 937 440 1015 q 582 756 582 858 q 533 599 582 667 q 413 476 485 531 q 271 372 342 421 q 151 272 200 324 q 103 160 103 221 l 103 50 l 572 50 q 589 43 582 50 q 596 25 596 36 q 589 8 596 15 q 572 0 582 0 l 78 0 z "},"3":{"ha":657,"x_min":46,"x_max":589,"o":"m 319 -8 q 114 64 182 -8 q 46 210 46 136 q 52 241 46 233 q 68 249 58 249 q 89 240 83 249 q 94 219 94 231 q 111 149 94 192 q 175 74 128 107 q 314 42 222 42 q 479 99 419 42 q 539 278 539 157 l 539 304 q 480 460 539 408 q 319 513 421 513 q 299 520 306 513 q 293 538 293 528 q 299 555 293 547 q 318 563 306 563 q 465 607 417 563 q 514 761 514 651 q 469 913 514 861 q 324 965 425 965 q 194 935 238 965 q 135 863 150 904 q 121 792 121 822 q 114 767 121 776 q 96 758 107 758 q 78 767 85 758 q 71 800 71 776 q 90 884 71 833 q 165 975 110 935 q 328 1015 219 1015 q 499 960 433 1015 q 564 774 564 906 q 529 615 564 672 q 447 536 494 558 q 549 454 508 510 q 589 304 589 399 l 589 278 q 510 57 589 122 q 319 -8 431 -8 z "},"4":{"ha":579,"x_min":15,"x_max":558,"o":"m 426 0 q 409 6 417 0 q 401 25 401 13 l 401 247 l 39 247 q 21 255 26 247 q 15 272 15 263 q 19 289 15 283 l 376 996 q 404 1015 386 1015 q 421 1009 414 1015 q 428 993 428 1003 q 424 978 428 986 l 79 297 l 401 297 l 401 622 q 409 640 401 635 q 426 646 417 646 q 444 640 436 646 q 451 622 451 635 l 451 297 l 533 297 q 552 290 546 297 q 558 272 558 282 q 552 255 558 263 q 533 247 546 247 l 451 247 l 451 25 q 444 6 451 13 q 426 0 436 0 z "},"5":{"ha":638,"x_min":44,"x_max":588,"o":"m 315 -8 q 116 59 188 -8 q 44 221 44 126 q 51 242 44 236 q 68 249 58 249 q 86 242 78 249 q 94 224 94 236 q 159 90 94 138 q 315 42 224 42 q 478 99 419 42 q 538 278 538 157 l 538 304 q 478 476 538 419 q 317 532 419 532 l 129 532 q 100 538 106 532 q 94 551 94 544 q 95 564 94 558 q 96 575 96 569 l 121 990 q 146 1015 124 1015 l 517 1015 q 533 1008 528 1015 q 538 990 538 1000 q 533 973 538 981 q 517 965 528 965 l 171 965 l 144 582 l 317 582 q 509 519 431 582 q 588 304 588 456 l 588 278 q 509 57 588 122 q 315 -8 431 -8 z "},"6":{"ha":700,"x_min":90,"x_max":633,"o":"m 363 -8 q 169 57 247 -8 q 90 278 90 122 l 90 729 q 169 951 90 886 q 361 1015 247 1015 q 561 947 489 1015 q 633 786 633 878 q 626 765 633 772 q 610 758 619 758 q 592 765 600 758 q 583 783 583 771 q 518 915 583 865 q 361 965 453 965 q 199 908 257 965 q 140 729 140 850 l 140 488 q 235 565 176 539 q 363 590 293 590 q 556 533 478 590 q 633 318 633 475 l 633 278 q 556 57 633 122 q 363 -8 478 -8 m 363 42 q 525 99 467 42 q 583 278 583 157 l 583 318 q 525 490 583 439 q 363 540 467 540 q 201 492 261 540 q 140 331 140 444 l 140 278 q 199 99 140 157 q 363 42 258 42 z "},"7":{"ha":614,"x_min":46,"x_max":589,"o":"m 124 0 q 104 6 113 0 q 96 21 96 11 q 100 36 96 28 l 539 897 l 539 965 l 96 965 l 96 783 q 88 765 96 772 q 71 758 81 758 q 53 765 61 758 q 46 783 46 772 l 46 990 q 53 1008 46 1000 q 71 1015 61 1015 l 564 1015 q 581 1008 572 1015 q 589 990 589 1000 l 589 890 q 589 885 589 888 q 586 879 589 882 l 144 14 q 124 0 138 0 z "},"8":{"ha":679,"x_min":68,"x_max":611,"o":"m 340 -8 q 147 57 225 -8 q 68 278 68 122 l 68 294 q 108 463 68 401 q 213 553 147 525 q 127 630 160 576 q 94 774 94 683 q 165 965 94 914 q 340 1015 236 1015 q 515 965 444 1015 q 586 774 586 914 q 553 630 586 683 q 468 553 521 576 q 572 463 533 525 q 611 294 611 401 l 611 278 q 533 57 611 122 q 340 -8 456 -8 m 342 42 q 503 100 444 42 q 561 278 561 158 l 561 294 q 502 470 561 414 q 340 526 443 526 q 178 470 238 526 q 118 294 118 414 l 118 278 q 178 99 118 157 q 342 42 238 42 m 340 578 q 484 624 432 578 q 536 774 536 669 q 484 921 536 876 q 340 965 432 965 q 197 921 249 965 q 144 774 144 876 q 197 624 144 669 q 340 578 249 578 z "},"9":{"ha":700,"x_min":67,"x_max":610,"o":"m 339 -8 q 139 60 211 -8 q 67 221 67 129 q 74 242 67 236 q 90 249 81 249 q 108 242 100 249 q 117 224 117 236 q 182 92 117 142 q 339 42 247 42 q 501 99 443 42 q 560 278 560 157 l 560 519 q 465 442 524 467 q 338 417 407 417 q 144 475 222 417 q 67 689 67 533 l 67 729 q 144 951 67 886 q 338 1015 222 1015 q 531 951 453 1015 q 610 729 610 886 l 610 278 q 531 57 610 122 q 339 -8 453 -8 m 338 467 q 499 514 439 467 q 560 676 560 561 l 560 729 q 501 908 560 850 q 338 965 442 965 q 175 908 233 965 q 117 729 117 850 l 117 689 q 175 517 117 568 q 338 467 233 467 z "},"A":{"ha":724,"x_min":35,"x_max":689,"o":"m 60 0 q 42 6 50 0 q 35 22 35 11 q 36 31 35 28 l 338 1004 q 347 1019 340 1014 q 363 1024 354 1024 q 378 1019 371 1024 q 389 1004 386 1014 l 688 31 q 688 26 688 28 q 689 24 689 25 q 681 7 689 14 q 661 0 672 0 q 639 18 644 0 l 568 246 l 154 246 l 85 18 q 60 0 79 0 m 169 296 l 553 296 l 363 918 l 169 296 z "},"Á":{"ha":724,"x_min":35,"x_max":689,"o":"m 60 0 q 42 6 50 0 q 35 22 35 11 q 36 31 35 28 l 338 1004 q 347 1019 340 1014 q 363 1024 354 1024 q 378 1019 371 1024 q 389 1004 386 1014 l 688 31 q 688 26 688 28 q 689 24 689 25 q 681 7 689 14 q 661 0 672 0 q 639 18 644 0 l 568 246 l 154 246 l 85 18 q 60 0 79 0 m 169 296 l 553 296 l 363 918 l 169 296 m 296 1194 q 278 1201 286 1194 q 269 1219 269 1208 q 281 1238 269 1232 l 422 1321 q 432 1324 428 1324 q 448 1316 442 1324 q 454 1299 454 1308 q 440 1274 454 1282 l 308 1199 q 296 1194 303 1194 z "},"Ă":{"ha":724,"x_min":35,"x_max":689,"o":"m 60 0 q 42 6 50 0 q 35 22 35 11 q 36 31 35 28 l 338 1004 q 347 1019 340 1014 q 363 1024 354 1024 q 378 1019 371 1024 q 389 1004 386 1014 l 688 31 q 688 26 688 28 q 689 24 689 25 q 681 7 689 14 q 661 0 672 0 q 639 18 644 0 l 568 246 l 154 246 l 85 18 q 60 0 79 0 m 169 296 l 553 296 l 363 918 l 169 296 m 361 1194 q 255 1240 300 1194 q 210 1346 210 1285 l 254 1346 q 285 1264 254 1297 q 361 1231 317 1231 q 435 1264 404 1231 q 467 1346 467 1297 l 513 1346 q 467 1240 513 1285 q 361 1194 421 1194 z "},"Ắ":{"ha":724,"x_min":35,"x_max":689,"o":"m 60 0 q 42 6 50 0 q 35 22 35 11 q 36 31 35 28 l 338 1004 q 347 1019 340 1014 q 363 1024 354 1024 q 378 1019 371 1024 q 389 1004 386 1014 l 688 31 q 688 26 688 28 q 689 24 689 25 q 681 7 689 14 q 661 0 672 0 q 639 18 644 0 l 568 246 l 154 246 l 85 18 q 60 0 79 0 m 169 296 l 553 296 l 363 918 l 169 296 z "},"Ặ":{"ha":724,"x_min":35,"x_max":689,"o":"m 60 0 q 42 6 50 0 q 35 22 35 11 q 36 31 35 28 l 338 1004 q 347 1019 340 1014 q 363 1024 354 1024 q 378 1019 371 1024 q 389 1004 386 1014 l 688 31 q 688 26 688 28 q 689 24 689 25 q 681 7 689 14 q 661 0 672 0 q 639 18 644 0 l 568 246 l 154 246 l 85 18 q 60 0 79 0 m 169 296 l 553 296 l 363 918 l 169 296 m 363 1194 q 265 1232 308 1194 q 213 1322 222 1269 q 233 1346 210 1346 l 236 1346 q 257 1326 254 1346 q 293 1258 264 1286 q 363 1231 322 1231 q 431 1258 401 1231 q 467 1326 461 1286 q 488 1346 469 1346 l 490 1346 q 513 1322 515 1346 q 459 1232 503 1269 q 363 1194 415 1194 z "},"Ằ":{"ha":724,"x_min":35,"x_max":689,"o":"m 60 0 q 42 6 50 0 q 35 22 35 11 q 36 31 35 28 l 338 1004 q 347 1019 340 1014 q 363 1024 354 1024 q 378 1019 371 1024 q 389 1004 386 1014 l 688 31 q 688 26 688 28 q 689 24 689 25 q 681 7 689 14 q 661 0 672 0 q 639 18 644 0 l 568 246 l 154 246 l 85 18 q 60 0 79 0 m 169 296 l 553 296 l 363 918 l 169 296 z "},"Ẳ":{"ha":724,"x_min":35,"x_max":689,"o":"m 60 0 q 42 6 50 0 q 35 22 35 11 q 36 31 35 28 l 338 1004 q 347 1019 340 1014 q 363 1024 354 1024 q 378 1019 371 1024 q 389 1004 386 1014 l 688 31 q 688 26 688 28 q 689 24 689 25 q 681 7 689 14 q 661 0 672 0 q 639 18 644 0 l 568 246 l 154 246 l 85 18 q 60 0 79 0 m 169 296 l 553 296 l 363 918 l 169 296 z "},"Ẵ":{"ha":724,"x_min":35,"x_max":689,"o":"m 60 0 q 42 6 50 0 q 35 22 35 11 q 36 31 35 28 l 338 1004 q 347 1019 340 1014 q 363 1024 354 1024 q 378 1019 371 1024 q 389 1004 386 1014 l 688 31 q 688 26 688 28 q 689 24 689 25 q 681 7 689 14 q 661 0 672 0 q 639 18 644 0 l 568 246 l 154 246 l 85 18 q 60 0 79 0 m 169 296 l 553 296 l 363 918 l 169 296 z "},"Â":{"ha":724,"x_min":35,"x_max":689,"o":"m 60 0 q 42 6 50 0 q 35 22 35 11 q 36 31 35 28 l 338 1004 q 347 1019 340 1014 q 363 1024 354 1024 q 378 1019 371 1024 q 389 1004 386 1014 l 688 31 q 688 26 688 28 q 689 24 689 25 q 681 7 689 14 q 661 0 672 0 q 639 18 644 0 l 568 246 l 154 246 l 85 18 q 60 0 79 0 m 169 296 l 553 296 l 363 918 l 169 296 m 206 1193 q 188 1201 196 1193 q 181 1219 181 1208 q 193 1239 181 1233 l 338 1317 q 361 1324 349 1324 q 385 1317 374 1324 l 529 1240 q 542 1217 542 1233 q 535 1201 542 1207 q 518 1194 528 1194 q 506 1199 518 1194 l 361 1275 l 217 1197 q 206 1193 204 1193 z "},"Ấ":{"ha":724,"x_min":35,"x_max":689,"o":"m 60 0 q 42 6 50 0 q 35 22 35 11 q 36 31 35 28 l 338 1004 q 347 1019 340 1014 q 363 1024 354 1024 q 378 1019 371 1024 q 389 1004 386 1014 l 688 31 q 688 26 688 28 q 689 24 689 25 q 681 7 689 14 q 661 0 672 0 q 639 18 644 0 l 568 246 l 154 246 l 85 18 q 60 0 79 0 m 169 296 l 553 296 l 363 918 l 169 296 z "},"Ậ":{"ha":724,"x_min":35,"x_max":689,"o":"m 60 0 q 42 6 50 0 q 35 22 35 11 q 36 31 35 28 l 338 1004 q 347 1019 340 1014 q 363 1024 354 1024 q 378 1019 371 1024 q 389 1004 386 1014 l 688 31 q 688 26 688 28 q 689 24 689 25 q 681 7 689 14 q 661 0 672 0 q 639 18 644 0 l 568 246 l 154 246 l 85 18 q 60 0 79 0 m 169 296 l 553 296 l 363 918 l 169 296 m 207 1193 q 190 1201 197 1193 q 182 1219 182 1208 q 194 1239 182 1232 l 339 1317 q 363 1324 350 1324 q 386 1317 375 1324 l 531 1240 q 543 1217 543 1235 q 536 1201 543 1207 q 519 1194 529 1194 q 507 1199 519 1194 l 363 1275 l 218 1197 q 207 1193 206 1193 z "},"Ầ":{"ha":724,"x_min":35,"x_max":689,"o":"m 60 0 q 42 6 50 0 q 35 22 35 11 q 36 31 35 28 l 338 1004 q 347 1019 340 1014 q 363 1024 354 1024 q 378 1019 371 1024 q 389 1004 386 1014 l 688 31 q 688 26 688 28 q 689 24 689 25 q 681 7 689 14 q 661 0 672 0 q 639 18 644 0 l 568 246 l 154 246 l 85 18 q 60 0 79 0 m 169 296 l 553 296 l 363 918 l 169 296 z "},"Ẩ":{"ha":724,"x_min":35,"x_max":689,"o":"m 60 0 q 42 6 50 0 q 35 22 35 11 q 36 31 35 28 l 338 1004 q 347 1019 340 1014 q 363 1024 354 1024 q 378 1019 371 1024 q 389 1004 386 1014 l 688 31 q 688 26 688 28 q 689 24 689 25 q 681 7 689 14 q 661 0 672 0 q 639 18 644 0 l 568 246 l 154 246 l 85 18 q 60 0 79 0 m 169 296 l 553 296 l 363 918 l 169 296 z "},"Ẫ":{"ha":724,"x_min":35,"x_max":689,"o":"m 60 0 q 42 6 50 0 q 35 22 35 11 q 36 31 35 28 l 338 1004 q 347 1019 340 1014 q 363 1024 354 1024 q 378 1019 371 1024 q 389 1004 386 1014 l 688 31 q 688 26 688 28 q 689 24 689 25 q 681 7 689 14 q 661 0 672 0 q 639 18 644 0 l 568 246 l 154 246 l 85 18 q 60 0 79 0 m 169 296 l 553 296 l 363 918 l 169 296 z "},"Ä":{"ha":724,"x_min":35,"x_max":689,"o":"m 60 0 q 42 6 50 0 q 35 22 35 11 q 36 31 35 28 l 338 1004 q 347 1019 340 1014 q 363 1024 354 1024 q 378 1019 371 1024 q 389 1004 386 1014 l 688 31 q 688 26 688 28 q 689 24 689 25 q 681 7 689 14 q 661 0 672 0 q 639 18 644 0 l 568 246 l 154 246 l 85 18 q 60 0 79 0 m 169 296 l 553 296 l 363 918 l 169 296 m 285 1193 q 255 1205 267 1193 q 243 1235 243 1217 q 255 1264 243 1253 q 285 1275 267 1275 q 314 1264 303 1275 q 325 1235 325 1253 q 314 1205 325 1217 q 285 1193 303 1193 m 439 1193 q 408 1205 419 1193 q 397 1235 397 1217 q 408 1264 397 1253 q 439 1275 419 1275 q 468 1264 457 1275 q 479 1235 479 1253 q 468 1205 479 1217 q 439 1193 457 1193 z "},"Ạ":{"ha":724,"x_min":35,"x_max":689,"o":"m 60 0 q 42 6 50 0 q 35 22 35 11 q 36 31 35 28 l 338 1004 q 347 1019 340 1014 q 363 1024 354 1024 q 378 1019 371 1024 q 389 1004 386 1014 l 688 31 q 688 26 688 28 q 689 24 689 25 q 681 7 689 14 q 661 0 672 0 q 639 18 644 0 l 568 246 l 154 246 l 85 18 q 60 0 79 0 m 169 296 l 553 296 l 363 918 l 169 296 z "},"À":{"ha":724,"x_min":35,"x_max":689,"o":"m 60 0 q 42 6 50 0 q 35 22 35 11 q 36 31 35 28 l 338 1004 q 347 1019 340 1014 q 363 1024 354 1024 q 378 1019 371 1024 q 389 1004 386 1014 l 688 31 q 688 26 688 28 q 689 24 689 25 q 681 7 689 14 q 661 0 672 0 q 639 18 644 0 l 568 246 l 154 246 l 85 18 q 60 0 79 0 m 169 296 l 553 296 l 363 918 l 169 296 m 428 1194 q 415 1199 422 1194 l 283 1274 q 269 1299 269 1282 q 275 1316 269 1308 q 292 1324 281 1324 q 301 1321 296 1324 l 443 1238 q 454 1219 454 1232 q 447 1201 454 1208 q 428 1194 439 1194 z "},"Ả":{"ha":724,"x_min":35,"x_max":689,"o":"m 60 0 q 42 6 50 0 q 35 22 35 11 q 36 31 35 28 l 338 1004 q 347 1019 340 1014 q 363 1024 354 1024 q 378 1019 371 1024 q 389 1004 386 1014 l 688 31 q 688 26 688 28 q 689 24 689 25 q 681 7 689 14 q 661 0 672 0 q 639 18 644 0 l 568 246 l 154 246 l 85 18 q 60 0 79 0 m 169 296 l 553 296 l 363 918 l 169 296 m 274 1294 q 317 1324 293 1313 q 367 1335 340 1335 q 439 1305 418 1335 q 460 1249 460 1275 q 446 1208 460 1226 q 411 1168 432 1189 q 404 1157 407 1164 q 400 1139 401 1150 q 379 1122 399 1122 q 358 1142 358 1122 q 361 1165 358 1151 q 376 1193 364 1179 q 404 1222 393 1211 q 415 1249 415 1233 q 368 1290 415 1290 q 335 1282 350 1290 q 310 1265 321 1274 q 271 1263 283 1244 q 265 1277 265 1269 q 274 1294 264 1285 z "},"Ā":{"ha":724,"x_min":35,"x_max":689,"o":"m 60 0 q 42 6 50 0 q 35 22 35 11 q 36 31 35 28 l 338 1004 q 347 1019 340 1014 q 363 1024 354 1024 q 378 1019 371 1024 q 389 1004 386 1014 l 688 31 q 688 26 688 28 q 689 24 689 25 q 681 7 689 14 q 661 0 672 0 q 639 18 644 0 l 568 246 l 154 246 l 85 18 q 60 0 79 0 m 169 296 l 553 296 l 363 918 l 169 296 m 208 1258 q 185 1282 185 1258 q 191 1299 185 1292 q 208 1307 197 1307 l 514 1307 q 531 1299 524 1307 q 539 1282 539 1292 q 531 1265 539 1272 q 514 1258 524 1258 l 208 1258 z "},"Ą":{"ha":724,"x_min":35,"x_max":689,"o":"m 654 -271 q 575 -252 617 -271 q 533 -178 533 -233 q 563 -68 533 -117 q 636 24 592 -19 q 631 43 633 33 q 625 63 628 53 l 568 246 l 154 246 l 85 18 q 60 0 79 0 q 42 6 50 0 q 35 22 35 11 q 36 31 35 28 l 338 1004 q 347 1019 340 1014 q 363 1024 354 1024 q 378 1019 371 1024 q 389 1004 386 1014 l 688 31 q 689 24 689 28 q 685 11 689 17 q 674 3 681 6 q 603 -79 632 -37 q 574 -175 574 -121 q 661 -235 574 -235 q 679 -238 672 -235 q 686 -253 686 -242 q 679 -267 686 -264 q 654 -271 672 -271 m 169 296 l 553 296 l 363 918 l 169 296 z "},"Å":{"ha":724,"x_min":35,"x_max":689,"o":"m 60 0 q 42 6 50 0 q 35 22 35 11 q 36 31 35 28 l 338 1004 q 347 1019 340 1014 q 363 1024 354 1024 q 378 1019 371 1024 q 389 1004 386 1014 l 688 31 q 688 26 688 28 q 689 24 689 25 q 681 7 689 14 q 661 0 672 0 q 639 18 644 0 l 568 246 l 154 246 l 85 18 q 60 0 79 0 m 169 296 l 553 296 l 363 918 l 169 296 m 361 1171 q 272 1210 308 1171 q 236 1300 236 1249 q 272 1388 236 1349 q 361 1426 308 1426 q 448 1388 410 1426 q 486 1300 486 1350 q 448 1210 486 1249 q 361 1171 410 1171 m 361 1203 q 424 1233 397 1203 q 451 1300 451 1264 q 424 1361 451 1332 q 361 1390 397 1390 q 296 1361 322 1390 q 269 1300 269 1332 q 297 1233 269 1264 q 361 1203 324 1203 z "},"Ã":{"ha":724,"x_min":35,"x_max":689,"o":"m 60 0 q 42 6 50 0 q 35 22 35 11 q 36 31 35 28 l 338 1004 q 347 1019 340 1014 q 363 1024 354 1024 q 378 1019 371 1024 q 389 1004 386 1014 l 688 31 q 688 26 688 28 q 689 24 689 25 q 681 7 689 14 q 661 0 672 0 q 639 18 644 0 l 568 246 l 154 246 l 85 18 q 60 0 79 0 m 169 296 l 553 296 l 363 918 l 169 296 m 450 1219 q 365 1245 400 1219 q 271 1271 329 1271 q 208 1247 226 1271 q 175 1222 189 1222 q 163 1228 168 1222 q 157 1246 157 1235 q 200 1295 157 1272 q 281 1318 243 1318 q 368 1292 332 1318 q 457 1267 404 1267 q 518 1289 506 1267 q 547 1311 531 1311 q 560 1306 554 1311 q 567 1290 567 1300 q 525 1239 567 1258 q 450 1219 483 1219 z "},"Æ":{"ha":944,"x_min":110,"x_max":906,"o":"m 135 0 q 115 9 121 0 q 110 32 110 18 l 110 729 q 188 951 110 886 q 382 1015 267 1015 l 882 1015 q 900 1008 894 1015 q 906 992 906 1000 q 899 973 906 981 q 882 965 893 965 l 553 965 l 553 533 l 775 533 q 792 525 786 533 q 799 507 799 517 q 793 491 799 499 q 775 483 788 483 l 553 483 l 553 50 l 882 50 q 899 42 893 50 q 906 24 906 33 q 900 8 906 15 q 882 0 894 0 l 528 0 q 510 6 518 0 q 503 25 503 13 l 503 483 l 160 483 l 160 32 q 156 9 160 18 q 135 0 151 0 m 160 533 l 503 533 l 503 965 l 382 965 q 219 908 278 965 q 160 729 160 850 l 160 533 z "},"Ǽ":{"ha":944,"x_min":110,"x_max":906,"o":"m 135 0 q 115 9 121 0 q 110 32 110 18 l 110 729 q 188 951 110 886 q 382 1015 267 1015 l 882 1015 q 900 1008 894 1015 q 906 992 906 1000 q 899 973 906 981 q 882 965 893 965 l 553 965 l 553 533 l 775 533 q 792 525 786 533 q 799 507 799 517 q 793 491 799 499 q 775 483 788 483 l 553 483 l 553 50 l 882 50 q 899 42 893 50 q 906 24 906 33 q 900 8 906 15 q 882 0 894 0 l 528 0 q 510 6 518 0 q 503 25 503 13 l 503 483 l 160 483 l 160 32 q 156 9 160 18 q 135 0 151 0 m 160 533 l 503 533 l 503 965 l 382 965 q 219 908 278 965 q 160 729 160 850 l 160 533 m 408 1194 q 390 1201 397 1194 q 382 1219 382 1208 q 393 1238 382 1232 l 535 1321 q 544 1324 540 1324 q 561 1316 556 1324 q 567 1299 567 1308 q 553 1274 567 1282 l 421 1199 q 408 1194 414 1194 z "},"B":{"ha":732,"x_min":115,"x_max":658,"o":"m 140 0 q 122 7 129 0 q 115 24 115 14 l 115 990 q 123 1009 115 1003 q 140 1015 131 1015 l 349 1015 q 551 972 469 1015 q 633 783 633 929 q 601 633 633 694 q 515 550 568 572 q 619 467 581 522 q 658 306 658 413 l 658 282 q 579 63 658 125 q 386 0 500 0 l 140 0 m 165 50 l 386 50 q 549 106 490 50 q 608 282 608 161 l 608 306 q 549 476 608 426 q 386 525 490 525 l 165 525 l 165 50 m 165 575 l 358 575 q 528 619 472 575 q 583 783 583 663 q 518 932 583 899 q 351 965 453 965 l 165 965 l 165 575 z "},"C":{"ha":711,"x_min":106,"x_max":649,"o":"m 378 -8 q 186 57 267 -8 q 106 278 106 122 l 106 729 q 188 951 106 886 q 382 1015 269 1015 q 582 947 515 1015 q 649 797 649 878 q 642 766 649 774 q 624 758 636 758 q 602 767 606 758 q 599 783 599 776 q 580 860 597 817 q 517 934 563 903 q 381 965 471 965 q 156 729 156 965 l 156 278 q 386 42 156 42 q 521 72 478 42 q 578 145 564 103 q 599 224 593 188 q 604 241 600 233 q 624 249 608 249 q 642 240 636 249 q 649 208 649 232 q 580 60 649 128 q 378 -8 511 -8 z "},"Ć":{"ha":711,"x_min":106,"x_max":649,"o":"m 378 -8 q 186 57 267 -8 q 106 278 106 122 l 106 729 q 188 951 106 886 q 382 1015 269 1015 q 582 947 515 1015 q 649 797 649 878 q 642 766 649 774 q 624 758 636 758 q 602 767 606 758 q 599 783 599 776 q 580 860 597 817 q 517 934 563 903 q 381 965 471 965 q 156 729 156 965 l 156 278 q 386 42 156 42 q 521 72 478 42 q 578 145 564 103 q 599 224 593 188 q 604 241 600 233 q 624 249 608 249 q 642 240 636 249 q 649 208 649 232 q 580 60 649 128 q 378 -8 511 -8 m 311 1194 q 292 1201 300 1194 q 285 1219 285 1208 q 296 1238 285 1232 l 438 1321 q 447 1324 443 1324 q 464 1316 458 1324 q 469 1299 469 1308 q 456 1274 469 1282 l 324 1199 q 311 1194 317 1194 z "},"Č":{"ha":711,"x_min":106,"x_max":649,"o":"m 378 -8 q 186 57 267 -8 q 106 278 106 122 l 106 729 q 188 951 106 886 q 382 1015 269 1015 q 582 947 515 1015 q 649 797 649 878 q 642 766 649 774 q 624 758 636 758 q 602 767 606 758 q 599 783 599 776 q 580 860 597 817 q 517 934 563 903 q 381 965 471 965 q 156 729 156 965 l 156 278 q 386 42 156 42 q 521 72 478 42 q 578 145 564 103 q 599 224 593 188 q 604 241 600 233 q 624 249 608 249 q 642 240 636 249 q 649 208 649 232 q 580 60 649 128 q 378 -8 511 -8 m 375 1176 q 346 1192 358 1176 l 207 1332 q 196 1354 196 1346 q 201 1368 196 1361 q 217 1375 207 1375 q 239 1364 229 1375 l 375 1221 l 511 1364 q 533 1375 521 1375 q 549 1368 543 1375 q 554 1354 554 1361 q 543 1332 554 1346 l 404 1192 q 375 1176 389 1176 z "},"Ç":{"ha":711,"x_min":106,"x_max":649,"o":"m 424 -287 q 360 -280 400 -287 q 321 -254 321 -272 q 326 -238 321 -247 q 338 -229 331 -229 q 363 -238 344 -229 q 415 -247 381 -247 q 475 -230 458 -247 q 492 -190 492 -212 q 394 -128 492 -135 l 354 -125 l 383 -8 q 176 67 246 -8 q 106 278 106 142 l 106 729 q 188 951 106 886 q 382 1015 269 1015 q 582 947 515 1015 q 649 797 649 878 q 642 766 649 774 q 624 758 636 758 q 602 767 606 758 q 599 783 599 776 q 580 860 597 817 q 517 934 563 903 q 381 965 471 965 q 156 729 156 965 l 156 278 q 386 42 156 42 q 521 72 478 42 q 578 145 564 103 q 599 224 593 188 q 604 241 600 233 q 624 249 608 249 q 642 240 636 249 q 649 208 649 232 q 592 73 649 136 q 428 -4 536 10 l 407 -90 q 508 -122 478 -92 q 538 -187 538 -153 q 508 -257 538 -226 q 424 -287 478 -287 z "},"Ĉ":{"ha":711,"x_min":106,"x_max":649,"o":"m 378 -8 q 186 57 267 -8 q 106 278 106 122 l 106 729 q 188 951 106 886 q 382 1015 269 1015 q 582 947 515 1015 q 649 797 649 878 q 642 766 649 774 q 624 758 636 758 q 602 767 606 758 q 599 783 599 776 q 580 860 597 817 q 517 934 563 903 q 381 965 471 965 q 156 729 156 965 l 156 278 q 386 42 156 42 q 521 72 478 42 q 578 145 564 103 q 599 224 593 188 q 604 241 600 233 q 624 249 608 249 q 642 240 636 249 q 649 208 649 232 q 580 60 649 128 q 378 -8 511 -8 m 221 1193 q 203 1201 211 1193 q 196 1219 196 1208 q 208 1239 196 1233 l 353 1317 q 376 1324 364 1324 q 400 1317 389 1324 l 544 1240 q 557 1217 557 1233 q 550 1201 557 1207 q 533 1194 543 1194 q 521 1199 533 1194 l 376 1275 l 232 1197 q 221 1193 219 1193 z "},"Ċ":{"ha":711,"x_min":106,"x_max":649,"o":"m 378 -8 q 186 57 267 -8 q 106 278 106 122 l 106 729 q 188 951 106 886 q 382 1015 269 1015 q 582 947 515 1015 q 649 797 649 878 q 642 766 649 774 q 624 758 636 758 q 602 767 606 758 q 599 783 599 776 q 580 860 597 817 q 517 934 563 903 q 381 965 471 965 q 156 729 156 965 l 156 278 q 386 42 156 42 q 521 72 478 42 q 578 145 564 103 q 599 224 593 188 q 604 241 600 233 q 624 249 608 249 q 642 240 636 249 q 649 208 649 232 q 580 60 649 128 q 378 -8 511 -8 m 378 1193 q 347 1205 358 1193 q 336 1235 336 1217 q 347 1264 336 1253 q 378 1275 358 1275 q 407 1264 396 1275 q 418 1235 418 1253 q 407 1205 418 1217 q 378 1193 396 1193 z "},"D":{"ha":764,"x_min":115,"x_max":658,"o":"m 140 0 q 122 7 129 0 q 115 24 115 14 l 115 992 q 122 1008 115 1001 q 140 1015 129 1015 l 386 1015 q 579 951 500 1015 q 658 729 658 886 l 658 286 q 579 65 658 131 q 386 0 500 0 l 140 0 m 165 50 l 386 50 q 549 108 490 50 q 608 286 608 165 l 608 729 q 549 908 608 850 q 386 965 490 965 l 165 965 l 165 50 z "},"Ð":{"ha":778,"x_min":4,"x_max":672,"o":"m 154 0 q 136 7 143 0 q 129 24 129 14 l 129 510 l 28 510 q 10 516 17 510 q 4 533 4 522 q 10 551 4 544 q 28 558 17 558 l 129 558 l 129 992 q 136 1008 129 1001 q 154 1015 143 1015 l 400 1015 q 593 951 514 1015 q 672 729 672 886 l 672 286 q 593 65 672 131 q 400 0 514 0 l 154 0 m 179 50 l 400 50 q 563 108 504 50 q 622 286 622 165 l 622 729 q 563 908 622 850 q 400 965 504 965 l 179 965 l 179 558 l 361 558 q 378 551 371 558 q 386 533 386 544 q 378 516 386 522 q 361 510 371 510 l 179 510 l 179 50 z "},"Ď":{"ha":764,"x_min":115,"x_max":658,"o":"m 140 0 q 122 7 129 0 q 115 24 115 14 l 115 992 q 122 1008 115 1001 q 140 1015 129 1015 l 386 1015 q 579 951 500 1015 q 658 729 658 886 l 658 286 q 579 65 658 131 q 386 0 500 0 l 140 0 m 165 50 l 386 50 q 549 108 490 50 q 608 286 608 165 l 608 729 q 549 908 608 850 q 386 965 490 965 l 165 965 l 165 50 m 385 1176 q 356 1192 368 1176 l 217 1332 q 206 1354 206 1346 q 211 1368 206 1361 q 226 1375 217 1375 q 249 1364 239 1375 l 385 1221 l 521 1364 q 543 1375 531 1375 q 558 1368 553 1375 q 564 1354 564 1361 q 553 1332 564 1346 l 414 1192 q 385 1176 399 1176 z "},"Đ":{"ha":778,"x_min":4,"x_max":672,"o":"m 154 0 q 136 7 143 0 q 129 24 129 14 l 129 510 l 28 510 q 10 516 17 510 q 4 533 4 522 q 10 551 4 544 q 28 558 17 558 l 129 558 l 129 992 q 136 1008 129 1001 q 154 1015 143 1015 l 400 1015 q 593 951 514 1015 q 672 729 672 886 l 672 286 q 593 65 672 131 q 400 0 514 0 l 154 0 m 179 50 l 400 50 q 563 108 504 50 q 622 286 622 165 l 622 729 q 563 908 622 850 q 400 965 504 965 l 179 965 l 179 558 l 361 558 q 378 551 371 558 q 386 533 386 544 q 378 516 386 522 q 361 510 371 510 l 179 510 l 179 50 z "},"E":{"ha":692,"x_min":115,"x_max":658,"o":"m 140 0 q 123 6 131 0 q 115 25 115 13 l 115 990 q 123 1009 115 1003 q 140 1015 131 1015 l 635 1015 q 653 1008 647 1015 q 658 992 658 1000 q 652 973 658 981 q 635 965 646 965 l 165 965 l 165 533 l 388 533 q 405 525 399 533 q 411 507 411 517 q 406 491 411 499 q 388 483 400 483 l 165 483 l 165 50 l 635 50 q 652 42 646 50 q 658 24 658 33 q 653 8 658 15 q 635 0 647 0 l 140 0 z "},"É":{"ha":692,"x_min":115,"x_max":658,"o":"m 140 0 q 123 6 131 0 q 115 25 115 13 l 115 990 q 123 1009 115 1003 q 140 1015 131 1015 l 635 1015 q 653 1008 647 1015 q 658 992 658 1000 q 652 973 658 981 q 635 965 646 965 l 165 965 l 165 533 l 388 533 q 405 525 399 533 q 411 507 411 517 q 406 491 411 499 q 388 483 400 483 l 165 483 l 165 50 l 635 50 q 652 42 646 50 q 658 24 658 33 q 653 8 658 15 q 635 0 647 0 l 140 0 m 321 1194 q 303 1201 311 1194 q 294 1219 294 1208 q 306 1238 294 1232 l 447 1321 q 457 1324 453 1324 q 473 1316 467 1324 q 479 1299 479 1308 q 465 1274 479 1282 l 333 1199 q 321 1194 328 1194 z "},"Ĕ":{"ha":692,"x_min":115,"x_max":658,"o":"m 140 0 q 123 6 131 0 q 115 25 115 13 l 115 990 q 123 1009 115 1003 q 140 1015 131 1015 l 635 1015 q 653 1008 647 1015 q 658 992 658 1000 q 652 973 658 981 q 635 965 646 965 l 165 965 l 165 533 l 388 533 q 405 525 399 533 q 411 507 411 517 q 406 491 411 499 q 388 483 400 483 l 165 483 l 165 50 l 635 50 q 652 42 646 50 q 658 24 658 33 q 653 8 658 15 q 635 0 647 0 l 140 0 m 386 1194 q 280 1240 325 1194 q 235 1346 235 1285 l 279 1346 q 310 1264 279 1297 q 386 1231 342 1231 q 460 1264 429 1231 q 492 1346 492 1297 l 538 1346 q 492 1240 538 1285 q 386 1194 446 1194 z "},"Ě":{"ha":692,"x_min":115,"x_max":658,"o":"m 140 0 q 123 6 131 0 q 115 25 115 13 l 115 990 q 123 1009 115 1003 q 140 1015 131 1015 l 635 1015 q 653 1008 647 1015 q 658 992 658 1000 q 652 973 658 981 q 635 965 646 965 l 165 965 l 165 533 l 388 533 q 405 525 399 533 q 411 507 411 517 q 406 491 411 499 q 388 483 400 483 l 165 483 l 165 50 l 635 50 q 652 42 646 50 q 658 24 658 33 q 653 8 658 15 q 635 0 647 0 l 140 0 m 385 1176 q 356 1192 368 1176 l 217 1332 q 206 1354 206 1346 q 211 1368 206 1361 q 226 1375 217 1375 q 249 1364 239 1375 l 385 1221 l 521 1364 q 543 1375 531 1375 q 558 1368 553 1375 q 564 1354 564 1361 q 553 1332 564 1346 l 414 1192 q 385 1176 399 1176 z "},"Ê":{"ha":692,"x_min":115,"x_max":658,"o":"m 140 0 q 123 6 131 0 q 115 25 115 13 l 115 990 q 123 1009 115 1003 q 140 1015 131 1015 l 635 1015 q 653 1008 647 1015 q 658 992 658 1000 q 652 973 658 981 q 635 965 646 965 l 165 965 l 165 533 l 388 533 q 405 525 399 533 q 411 507 411 517 q 406 491 411 499 q 388 483 400 483 l 165 483 l 165 50 l 635 50 q 652 42 646 50 q 658 24 658 33 q 653 8 658 15 q 635 0 647 0 l 140 0 m 231 1193 q 213 1201 221 1193 q 206 1219 206 1208 q 218 1239 206 1233 l 363 1317 q 386 1324 374 1324 q 410 1317 399 1324 l 554 1240 q 567 1217 567 1233 q 560 1201 567 1207 q 543 1194 553 1194 q 531 1199 543 1194 l 386 1275 l 242 1197 q 231 1193 229 1193 z "},"Ế":{"ha":692,"x_min":115,"x_max":658,"o":"m 140 0 q 123 6 131 0 q 115 25 115 13 l 115 990 q 123 1009 115 1003 q 140 1015 131 1015 l 635 1015 q 653 1008 647 1015 q 658 992 658 1000 q 652 973 658 981 q 635 965 646 965 l 165 965 l 165 533 l 388 533 q 405 525 399 533 q 411 507 411 517 q 406 491 411 499 q 388 483 400 483 l 165 483 l 165 50 l 635 50 q 652 42 646 50 q 658 24 658 33 q 653 8 658 15 q 635 0 647 0 l 140 0 z "},"Ệ":{"ha":692,"x_min":115,"x_max":658,"o":"m 140 0 q 123 6 131 0 q 115 25 115 13 l 115 990 q 123 1009 115 1003 q 140 1015 131 1015 l 635 1015 q 653 1008 647 1015 q 658 992 658 1000 q 652 973 658 981 q 635 965 646 965 l 165 965 l 165 533 l 388 533 q 405 525 399 533 q 411 507 411 517 q 406 491 411 499 q 388 483 400 483 l 165 483 l 165 50 l 635 50 q 652 42 646 50 q 658 24 658 33 q 653 8 658 15 q 635 0 647 0 l 140 0 m 240 1193 q 223 1201 231 1193 q 215 1219 215 1208 q 228 1239 215 1232 l 372 1317 q 396 1324 383 1324 q 419 1317 408 1324 l 564 1240 q 576 1217 576 1235 q 569 1201 576 1207 q 553 1194 563 1194 q 540 1199 553 1194 l 396 1275 l 251 1197 q 240 1193 239 1193 z "},"Ề":{"ha":692,"x_min":115,"x_max":658,"o":"m 140 0 q 123 6 131 0 q 115 25 115 13 l 115 990 q 123 1009 115 1003 q 140 1015 131 1015 l 635 1015 q 653 1008 647 1015 q 658 992 658 1000 q 652 973 658 981 q 635 965 646 965 l 165 965 l 165 533 l 388 533 q 405 525 399 533 q 411 507 411 517 q 406 491 411 499 q 388 483 400 483 l 165 483 l 165 50 l 635 50 q 652 42 646 50 q 658 24 658 33 q 653 8 658 15 q 635 0 647 0 l 140 0 z "},"Ể":{"ha":692,"x_min":115,"x_max":658,"o":"m 140 0 q 123 6 131 0 q 115 25 115 13 l 115 990 q 123 1009 115 1003 q 140 1015 131 1015 l 635 1015 q 653 1008 647 1015 q 658 992 658 1000 q 652 973 658 981 q 635 965 646 965 l 165 965 l 165 533 l 388 533 q 405 525 399 533 q 411 507 411 517 q 406 491 411 499 q 388 483 400 483 l 165 483 l 165 50 l 635 50 q 652 42 646 50 q 658 24 658 33 q 653 8 658 15 q 635 0 647 0 l 140 0 z "},"Ễ":{"ha":692,"x_min":115,"x_max":658,"o":"m 140 0 q 123 6 131 0 q 115 25 115 13 l 115 990 q 123 1009 115 1003 q 140 1015 131 1015 l 635 1015 q 653 1008 647 1015 q 658 992 658 1000 q 652 973 658 981 q 635 965 646 965 l 165 965 l 165 533 l 388 533 q 405 525 399 533 q 411 507 411 517 q 406 491 411 499 q 388 483 400 483 l 165 483 l 165 50 l 635 50 q 652 42 646 50 q 658 24 658 33 q 653 8 658 15 q 635 0 647 0 l 140 0 z "},"Ë":{"ha":692,"x_min":115,"x_max":658,"o":"m 140 0 q 123 6 131 0 q 115 25 115 13 l 115 990 q 123 1009 115 1003 q 140 1015 131 1015 l 635 1015 q 653 1008 647 1015 q 658 992 658 1000 q 652 973 658 981 q 635 965 646 965 l 165 965 l 165 533 l 388 533 q 405 525 399 533 q 411 507 411 517 q 406 491 411 499 q 388 483 400 483 l 165 483 l 165 50 l 635 50 q 652 42 646 50 q 658 24 658 33 q 653 8 658 15 q 635 0 647 0 l 140 0 m 310 1193 q 280 1205 292 1193 q 268 1235 268 1217 q 280 1264 268 1253 q 310 1275 292 1275 q 339 1264 328 1275 q 350 1235 350 1253 q 339 1205 350 1217 q 310 1193 328 1193 m 464 1193 q 433 1205 444 1193 q 422 1235 422 1217 q 433 1264 422 1253 q 464 1275 444 1275 q 493 1264 482 1275 q 504 1235 504 1253 q 493 1205 504 1217 q 464 1193 482 1193 z "},"Ė":{"ha":692,"x_min":115,"x_max":658,"o":"m 140 0 q 123 6 131 0 q 115 25 115 13 l 115 990 q 123 1009 115 1003 q 140 1015 131 1015 l 635 1015 q 653 1008 647 1015 q 658 992 658 1000 q 652 973 658 981 q 635 965 646 965 l 165 965 l 165 533 l 388 533 q 405 525 399 533 q 411 507 411 517 q 406 491 411 499 q 388 483 400 483 l 165 483 l 165 50 l 635 50 q 652 42 646 50 q 658 24 658 33 q 653 8 658 15 q 635 0 647 0 l 140 0 m 388 1193 q 358 1205 369 1193 q 346 1235 346 1217 q 358 1264 346 1253 q 388 1275 369 1275 q 417 1264 406 1275 q 428 1235 428 1253 q 417 1205 428 1217 q 388 1193 406 1193 z "},"Ẹ":{"ha":692,"x_min":115,"x_max":658,"o":"m 140 0 q 123 6 131 0 q 115 25 115 13 l 115 990 q 123 1009 115 1003 q 140 1015 131 1015 l 635 1015 q 653 1008 647 1015 q 658 992 658 1000 q 652 973 658 981 q 635 965 646 965 l 165 965 l 165 533 l 388 533 q 405 525 399 533 q 411 507 411 517 q 406 491 411 499 q 388 483 400 483 l 165 483 l 165 50 l 635 50 q 652 42 646 50 q 658 24 658 33 q 653 8 658 15 q 635 0 647 0 l 140 0 z "},"È":{"ha":692,"x_min":115,"x_max":658,"o":"m 140 0 q 123 6 131 0 q 115 25 115 13 l 115 990 q 123 1009 115 1003 q 140 1015 131 1015 l 635 1015 q 653 1008 647 1015 q 658 992 658 1000 q 652 973 658 981 q 635 965 646 965 l 165 965 l 165 533 l 388 533 q 405 525 399 533 q 411 507 411 517 q 406 491 411 499 q 388 483 400 483 l 165 483 l 165 50 l 635 50 q 652 42 646 50 q 658 24 658 33 q 653 8 658 15 q 635 0 647 0 l 140 0 m 453 1194 q 440 1199 447 1194 l 308 1274 q 294 1299 294 1282 q 300 1316 294 1308 q 317 1324 306 1324 q 326 1321 321 1324 l 468 1238 q 479 1219 479 1232 q 472 1201 479 1208 q 453 1194 464 1194 z "},"Ẻ":{"ha":692,"x_min":115,"x_max":658,"o":"m 140 0 q 123 6 131 0 q 115 25 115 13 l 115 990 q 123 1009 115 1003 q 140 1015 131 1015 l 635 1015 q 653 1008 647 1015 q 658 992 658 1000 q 652 973 658 981 q 635 965 646 965 l 165 965 l 165 533 l 388 533 q 405 525 399 533 q 411 507 411 517 q 406 491 411 499 q 388 483 400 483 l 165 483 l 165 50 l 635 50 q 652 42 646 50 q 658 24 658 33 q 653 8 658 15 q 635 0 647 0 l 140 0 m 307 1294 q 350 1324 326 1313 q 400 1335 374 1335 q 472 1305 451 1335 q 493 1249 493 1275 q 479 1208 493 1226 q 444 1168 465 1189 q 438 1157 440 1164 q 433 1139 435 1150 q 413 1122 432 1122 q 392 1142 392 1122 q 394 1165 392 1151 q 410 1193 397 1179 q 438 1222 426 1211 q 449 1249 449 1233 q 401 1290 449 1290 q 369 1282 383 1290 q 343 1265 354 1274 q 304 1263 317 1244 q 298 1277 299 1269 q 307 1294 297 1285 z "},"Ē":{"ha":692,"x_min":115,"x_max":658,"o":"m 140 0 q 123 6 131 0 q 115 25 115 13 l 115 990 q 123 1009 115 1003 q 140 1015 131 1015 l 635 1015 q 653 1008 647 1015 q 658 992 658 1000 q 652 973 658 981 q 635 965 646 965 l 165 965 l 165 533 l 388 533 q 405 525 399 533 q 411 507 411 517 q 406 491 411 499 q 388 483 400 483 l 165 483 l 165 50 l 635 50 q 652 42 646 50 q 658 24 658 33 q 653 8 658 15 q 635 0 647 0 l 140 0 m 233 1258 q 210 1282 210 1258 q 216 1299 210 1292 q 233 1307 222 1307 l 539 1307 q 556 1299 549 1307 q 564 1282 564 1292 q 556 1265 564 1272 q 539 1258 549 1258 l 233 1258 z "},"Ę":{"ha":692,"x_min":115,"x_max":658,"o":"m 626 -271 q 547 -252 589 -271 q 506 -178 506 -233 q 527 -82 506 -125 q 585 0 549 -39 l 140 0 q 123 6 131 0 q 115 25 115 13 l 115 990 q 123 1009 115 1003 q 140 1015 131 1015 l 635 1015 q 653 1008 647 1015 q 658 992 658 1000 q 652 973 658 981 q 635 965 646 965 l 165 965 l 165 533 l 388 533 q 405 525 399 533 q 411 507 411 517 q 406 491 411 499 q 388 483 400 483 l 165 483 l 165 50 l 635 50 q 652 42 646 50 q 658 24 658 33 q 655 10 658 17 q 644 1 651 3 q 574 -80 603 -39 q 546 -175 546 -121 q 633 -235 546 -235 q 651 -238 644 -235 q 658 -253 658 -242 q 651 -267 658 -264 q 626 -271 644 -271 z "},"Ẽ":{"ha":692,"x_min":115,"x_max":658,"o":"m 140 0 q 123 6 131 0 q 115 25 115 13 l 115 990 q 123 1009 115 1003 q 140 1015 131 1015 l 635 1015 q 653 1008 647 1015 q 658 992 658 1000 q 652 973 658 981 q 635 965 646 965 l 165 965 l 165 533 l 388 533 q 405 525 399 533 q 411 507 411 517 q 406 491 411 499 q 388 483 400 483 l 165 483 l 165 50 l 635 50 q 652 42 646 50 q 658 24 658 33 q 653 8 658 15 q 635 0 647 0 l 140 0 m 483 1219 q 398 1245 433 1219 q 304 1271 363 1271 q 242 1247 260 1271 q 208 1222 224 1222 q 196 1228 201 1222 q 190 1246 190 1235 q 233 1296 190 1274 q 314 1318 276 1318 q 401 1292 365 1318 q 490 1267 438 1267 q 551 1289 538 1267 q 581 1311 564 1311 q 594 1306 588 1311 q 600 1290 600 1300 q 558 1239 600 1258 q 483 1219 517 1219 z "},"F":{"ha":679,"x_min":115,"x_max":658,"o":"m 140 0 q 123 6 131 0 q 115 24 115 11 l 115 990 q 123 1009 115 1003 q 140 1015 131 1015 l 635 1015 q 653 1008 647 1015 q 658 992 658 1000 q 652 973 658 981 q 635 965 646 965 l 165 965 l 165 533 l 388 533 q 405 525 399 533 q 411 507 411 517 q 406 491 411 499 q 388 483 400 483 l 165 483 l 165 24 q 158 6 165 11 q 140 0 150 0 z "},"G":{"ha":738,"x_min":106,"x_max":649,"o":"m 376 -8 q 183 57 261 -8 q 106 278 106 122 l 106 729 q 183 951 106 886 q 376 1015 261 1015 q 576 949 504 1015 q 649 786 649 882 q 641 765 649 772 q 624 758 633 758 q 607 765 614 758 q 599 783 600 771 q 527 922 586 878 q 376 965 468 965 q 214 908 272 965 q 156 729 156 850 l 156 278 q 214 99 156 157 q 376 42 272 42 q 540 99 481 42 q 599 278 599 157 l 599 483 l 378 483 q 360 491 367 483 q 354 508 354 499 q 360 526 354 518 q 378 533 367 533 l 625 533 q 642 525 636 533 q 649 507 649 517 l 649 278 q 570 57 649 122 q 376 -8 492 -8 z "},"Ğ":{"ha":738,"x_min":106,"x_max":649,"o":"m 376 -8 q 183 57 261 -8 q 106 278 106 122 l 106 729 q 183 951 106 886 q 376 1015 261 1015 q 576 949 504 1015 q 649 786 649 882 q 641 765 649 772 q 624 758 633 758 q 607 765 614 758 q 599 783 600 771 q 527 922 586 878 q 376 965 468 965 q 214 908 272 965 q 156 729 156 850 l 156 278 q 214 99 156 157 q 376 42 272 42 q 540 99 481 42 q 599 278 599 157 l 599 483 l 378 483 q 360 491 367 483 q 354 508 354 499 q 360 526 354 518 q 378 533 367 533 l 625 533 q 642 525 636 533 q 649 507 649 517 l 649 278 q 570 57 649 122 q 376 -8 492 -8 m 376 1194 q 271 1240 317 1194 q 225 1346 225 1285 l 269 1346 q 301 1264 269 1297 q 376 1231 333 1231 q 451 1264 419 1231 q 482 1346 482 1297 l 528 1346 q 482 1240 528 1285 q 376 1194 436 1194 z "},"Ĝ":{"ha":738,"x_min":106,"x_max":649,"o":"m 376 -8 q 183 57 261 -8 q 106 278 106 122 l 106 729 q 183 951 106 886 q 376 1015 261 1015 q 576 949 504 1015 q 649 786 649 882 q 641 765 649 772 q 624 758 633 758 q 607 765 614 758 q 599 783 600 771 q 527 922 586 878 q 376 965 468 965 q 214 908 272 965 q 156 729 156 850 l 156 278 q 214 99 156 157 q 376 42 272 42 q 540 99 481 42 q 599 278 599 157 l 599 483 l 378 483 q 360 491 367 483 q 354 508 354 499 q 360 526 354 518 q 378 533 367 533 l 625 533 q 642 525 636 533 q 649 507 649 517 l 649 278 q 570 57 649 122 q 376 -8 492 -8 m 221 1193 q 203 1201 211 1193 q 196 1219 196 1208 q 208 1239 196 1233 l 353 1317 q 376 1324 364 1324 q 400 1317 389 1324 l 544 1240 q 557 1217 557 1233 q 550 1201 557 1207 q 533 1194 543 1194 q 521 1199 533 1194 l 376 1275 l 232 1197 q 221 1193 219 1193 z "},"Ģ":{"ha":738,"x_min":106,"x_max":649,"o":"m 376 -8 q 183 57 261 -8 q 106 278 106 122 l 106 729 q 183 951 106 886 q 376 1015 261 1015 q 576 949 504 1015 q 649 786 649 882 q 641 765 649 772 q 624 758 633 758 q 607 765 614 758 q 599 783 600 771 q 527 922 586 878 q 376 965 468 965 q 214 908 272 965 q 156 729 156 850 l 156 278 q 214 99 156 157 q 376 42 272 42 q 540 99 481 42 q 599 278 599 157 l 599 483 l 378 483 q 360 491 367 483 q 354 508 354 499 q 360 526 354 518 q 378 533 367 533 l 625 533 q 642 525 636 533 q 649 507 649 517 l 649 278 q 570 57 649 122 q 376 -8 492 -8 m 307 -196 q 289 -188 297 -196 q 281 -171 281 -181 q 292 -153 281 -158 l 433 -69 q 443 -67 439 -67 q 459 -74 453 -67 q 465 -92 465 -82 q 451 -117 465 -108 l 319 -192 q 307 -196 314 -196 z "},"Ġ":{"ha":738,"x_min":106,"x_max":649,"o":"m 376 -8 q 183 57 261 -8 q 106 278 106 122 l 106 729 q 183 951 106 886 q 376 1015 261 1015 q 576 949 504 1015 q 649 786 649 882 q 641 765 649 772 q 624 758 633 758 q 607 765 614 758 q 599 783 600 771 q 527 922 586 878 q 376 965 468 965 q 214 908 272 965 q 156 729 156 850 l 156 278 q 214 99 156 157 q 376 42 272 42 q 540 99 481 42 q 599 278 599 157 l 599 483 l 378 483 q 360 491 367 483 q 354 508 354 499 q 360 526 354 518 q 378 533 367 533 l 625 533 q 642 525 636 533 q 649 507 649 517 l 649 278 q 570 57 649 122 q 376 -8 492 -8 m 378 1193 q 347 1205 358 1193 q 336 1235 336 1217 q 347 1264 336 1253 q 378 1275 358 1275 q 407 1264 396 1275 q 418 1235 418 1253 q 407 1205 418 1217 q 378 1193 396 1193 z "},"H":{"ha":774,"x_min":115,"x_max":658,"o":"m 140 0 q 123 6 131 0 q 115 25 115 13 l 115 992 q 123 1010 115 1004 q 140 1015 131 1015 q 158 1010 150 1015 q 165 992 165 1004 l 165 551 l 608 551 l 608 992 q 616 1010 608 1004 q 633 1015 624 1015 q 651 1010 643 1015 q 658 992 658 1004 l 658 25 q 651 6 658 13 q 633 0 643 0 q 616 6 624 0 q 608 25 608 13 l 608 501 l 165 501 l 165 25 q 158 6 165 13 q 140 0 150 0 z "},"Ħ":{"ha":774,"x_min":29,"x_max":744,"o":"m 140 0 q 123 6 131 0 q 115 25 115 13 l 115 754 l 53 754 q 35 760 42 754 q 29 778 29 767 q 35 796 29 789 q 53 803 42 803 l 115 803 l 115 992 q 123 1010 115 1004 q 140 1015 131 1015 q 158 1010 150 1015 q 165 992 165 1004 l 165 803 l 608 803 l 608 992 q 616 1010 608 1004 q 633 1015 624 1015 q 651 1010 643 1015 q 658 992 658 1004 l 658 803 l 719 803 q 737 796 729 803 q 744 778 744 789 q 737 760 744 767 q 719 754 729 754 l 658 754 l 658 25 q 651 6 658 13 q 633 0 643 0 q 616 6 624 0 q 608 25 608 13 l 608 501 l 165 501 l 165 25 q 158 6 165 13 q 140 0 150 0 m 165 551 l 608 551 l 608 754 l 165 754 l 165 551 z "},"Ĥ":{"ha":774,"x_min":115,"x_max":658,"o":"m 140 0 q 123 6 131 0 q 115 25 115 13 l 115 992 q 123 1010 115 1004 q 140 1015 131 1015 q 158 1010 150 1015 q 165 992 165 1004 l 165 551 l 608 551 l 608 992 q 616 1010 608 1004 q 633 1015 624 1015 q 651 1010 643 1015 q 658 992 658 1004 l 658 25 q 651 6 658 13 q 633 0 643 0 q 616 6 624 0 q 608 25 608 13 l 608 501 l 165 501 l 165 25 q 158 6 165 13 q 140 0 150 0 m 232 1193 q 215 1201 222 1193 q 207 1219 207 1208 q 219 1239 207 1233 l 364 1317 q 388 1324 375 1324 q 411 1317 400 1324 l 556 1240 q 568 1217 568 1233 q 561 1201 568 1207 q 544 1194 554 1194 q 532 1199 544 1194 l 388 1275 l 243 1197 q 232 1193 231 1193 z "},"I":{"ha":281,"x_min":115,"x_max":165,"o":"m 140 0 q 123 6 131 0 q 115 25 115 13 l 115 992 q 123 1010 115 1004 q 140 1015 131 1015 q 158 1010 150 1015 q 165 992 165 1004 l 165 25 q 158 6 165 13 q 140 0 150 0 z "},"Ĳ":{"ha":967,"x_min":115,"x_max":857,"o":"m 586 -8 q 386 58 458 -8 q 314 221 314 125 q 321 242 314 236 q 338 249 328 249 q 356 242 347 249 q 364 224 364 236 q 429 86 364 131 q 586 42 494 42 q 749 99 690 42 q 807 278 807 157 l 807 965 l 586 965 q 569 973 575 965 q 563 992 563 981 q 568 1008 563 1000 q 586 1015 574 1015 l 832 1015 q 849 1009 842 1015 q 857 990 857 1003 l 857 278 q 778 57 857 122 q 586 -8 700 -8 m 140 0 q 123 6 131 0 q 115 25 115 13 l 115 992 q 123 1010 115 1004 q 140 1015 131 1015 q 158 1010 150 1015 q 165 992 165 1004 l 165 25 q 158 6 165 13 q 140 0 150 0 z "},"Í":{"ha":281,"x_min":47,"x_max":232,"o":"m 140 0 q 123 6 131 0 q 115 25 115 13 l 115 992 q 123 1010 115 1004 q 140 1015 131 1015 q 158 1010 150 1015 q 165 992 165 1004 l 165 25 q 158 6 165 13 q 140 0 150 0 m 74 1194 q 56 1201 64 1194 q 47 1219 47 1208 q 58 1238 47 1232 l 200 1321 q 210 1324 206 1324 q 226 1316 219 1324 q 232 1299 232 1308 q 218 1274 232 1282 l 86 1199 q 74 1194 81 1194 z "},"Ĭ":{"ha":281,"x_min":-11,"x_max":292,"o":"m 140 0 q 123 6 131 0 q 115 25 115 13 l 115 992 q 123 1010 115 1004 q 140 1015 131 1015 q 158 1010 150 1015 q 165 992 165 1004 l 165 25 q 158 6 165 13 q 140 0 150 0 m 140 1194 q 35 1240 81 1194 q -11 1346 -11 1285 l 33 1346 q 65 1264 33 1297 q 140 1231 97 1231 q 215 1264 183 1231 q 246 1346 246 1297 l 292 1346 q 246 1240 292 1285 q 140 1194 200 1194 z "},"Î":{"ha":281,"x_min":-40,"x_max":321,"o":"m 140 0 q 123 6 131 0 q 115 25 115 13 l 115 992 q 123 1010 115 1004 q 140 1015 131 1015 q 158 1010 150 1015 q 165 992 165 1004 l 165 25 q 158 6 165 13 q 140 0 150 0 m -15 1193 q -33 1201 -25 1193 q -40 1219 -40 1208 q -28 1239 -40 1233 l 117 1317 q 140 1324 128 1324 q 164 1317 153 1324 l 308 1240 q 321 1217 321 1233 q 314 1201 321 1207 q 297 1194 307 1194 q 285 1199 297 1194 l 140 1275 l -4 1197 q -15 1193 -17 1193 z "},"Ï":{"ha":281,"x_min":22,"x_max":258,"o":"m 140 0 q 123 6 131 0 q 115 25 115 13 l 115 992 q 123 1010 115 1004 q 140 1015 131 1015 q 158 1010 150 1015 q 165 992 165 1004 l 165 25 q 158 6 165 13 q 140 0 150 0 m 64 1193 q 33 1205 44 1193 q 22 1235 22 1217 q 33 1264 22 1253 q 64 1275 44 1275 q 93 1264 82 1275 q 104 1235 104 1253 q 93 1205 104 1217 q 64 1193 82 1193 m 218 1193 q 188 1205 200 1193 q 176 1235 176 1217 q 188 1264 176 1253 q 218 1275 200 1275 q 247 1264 236 1275 q 258 1235 258 1253 q 247 1205 258 1217 q 218 1193 236 1193 z "},"İ":{"ha":281,"x_min":99,"x_max":181,"o":"m 140 0 q 123 6 131 0 q 115 25 115 13 l 115 992 q 123 1010 115 1004 q 140 1015 131 1015 q 158 1010 150 1015 q 165 992 165 1004 l 165 25 q 158 6 165 13 q 140 0 150 0 m 140 1193 q 110 1205 122 1193 q 99 1235 99 1217 q 110 1264 99 1253 q 140 1275 122 1275 q 169 1264 158 1275 q 181 1235 181 1253 q 169 1205 181 1217 q 140 1193 158 1193 z "},"Ị":{"ha":281,"x_min":90,"x_max":189,"o":"m 140 0 q 123 6 131 0 q 115 25 115 13 l 115 992 q 123 1010 115 1004 q 140 1015 131 1015 q 158 1010 150 1015 q 165 992 165 1004 l 165 25 q 158 6 165 13 q 140 0 150 0 z "},"Ì":{"ha":281,"x_min":47,"x_max":232,"o":"m 140 0 q 123 6 131 0 q 115 25 115 13 l 115 992 q 123 1010 115 1004 q 140 1015 131 1015 q 158 1010 150 1015 q 165 992 165 1004 l 165 25 q 158 6 165 13 q 140 0 150 0 m 206 1194 q 193 1199 200 1194 l 61 1274 q 47 1299 47 1282 q 53 1316 47 1308 q 69 1324 58 1324 q 79 1321 74 1324 l 221 1238 q 232 1219 232 1232 q 224 1201 232 1208 q 206 1194 217 1194 z "},"Ỉ":{"ha":281,"x_min":42,"x_max":238,"o":"m 140 0 q 123 6 131 0 q 115 25 115 13 l 115 992 q 123 1010 115 1004 q 140 1015 131 1015 q 158 1010 150 1015 q 165 992 165 1004 l 165 25 q 158 6 165 13 q 140 0 150 0 m 51 1294 q 94 1324 71 1313 q 144 1335 118 1335 q 217 1305 196 1335 q 238 1249 238 1275 q 224 1208 238 1226 q 189 1168 210 1189 q 182 1157 185 1164 q 178 1139 179 1150 q 157 1122 176 1122 q 136 1142 136 1122 q 139 1165 136 1151 q 154 1193 142 1179 q 182 1222 171 1211 q 193 1249 193 1233 q 146 1290 193 1290 q 113 1282 128 1290 q 88 1265 99 1274 q 49 1263 61 1244 q 42 1277 43 1269 q 51 1294 42 1285 z "},"Ī":{"ha":281,"x_min":-36,"x_max":318,"o":"m 140 0 q 123 6 131 0 q 115 25 115 13 l 115 992 q 123 1010 115 1004 q 140 1015 131 1015 q 158 1010 150 1015 q 165 992 165 1004 l 165 25 q 158 6 165 13 q 140 0 150 0 m -12 1258 q -36 1282 -36 1258 q -29 1299 -36 1292 q -12 1307 -22 1307 l 293 1307 q 310 1299 303 1307 q 318 1282 318 1292 q 310 1265 318 1272 q 293 1258 303 1258 l -12 1258 z "},"Į":{"ha":282,"x_min":21,"x_max":174,"o":"m 142 -264 q 63 -246 104 -264 q 21 -171 21 -228 q 47 -65 21 -112 q 117 24 74 -18 q 117 40 117 32 q 117 56 117 47 l 117 992 q 124 1010 117 1004 q 142 1015 132 1015 q 159 1010 151 1015 q 167 992 167 1004 l 167 25 q 154 3 167 10 q 88 -76 114 -36 q 61 -168 61 -117 q 149 -228 61 -228 q 166 -232 158 -228 q 174 -246 174 -236 q 167 -260 174 -256 q 142 -264 160 -264 z "},"Ĩ":{"ha":281,"x_min":-64,"x_max":346,"o":"m 140 0 q 123 6 131 0 q 115 25 115 13 l 115 992 q 123 1010 115 1004 q 140 1015 131 1015 q 158 1010 150 1015 q 165 992 165 1004 l 165 25 q 158 6 165 13 q 140 0 150 0 m 229 1219 q 144 1245 179 1219 q 50 1271 108 1271 q -12 1247 6 1271 q -46 1222 -31 1222 q -58 1228 -53 1222 q -64 1246 -64 1235 q -21 1295 -64 1272 q 60 1318 22 1318 q 147 1292 111 1318 q 236 1267 183 1267 q 297 1289 283 1267 q 326 1311 310 1311 q 340 1306 333 1311 q 346 1290 346 1300 q 304 1239 346 1258 q 229 1219 263 1219 z "},"J":{"ha":689,"x_min":36,"x_max":579,"o":"m 308 -8 q 108 58 181 -8 q 36 221 36 125 q 43 242 36 236 q 60 249 50 249 q 78 242 69 249 q 86 224 86 236 q 151 86 86 131 q 308 42 217 42 q 471 99 413 42 q 529 278 529 157 l 529 965 l 308 965 q 291 973 297 965 q 285 992 285 981 q 290 1008 285 1000 q 308 1015 296 1015 l 554 1015 q 572 1009 564 1015 q 579 990 579 1003 l 579 278 q 501 57 579 122 q 308 -8 422 -8 z "},"Ĵ":{"ha":689,"x_min":36,"x_max":579,"o":"m 308 -8 q 108 58 181 -8 q 36 221 36 125 q 43 242 36 236 q 60 249 50 249 q 78 242 69 249 q 86 224 86 236 q 151 86 86 131 q 308 42 217 42 q 471 99 413 42 q 529 278 529 157 l 529 965 l 308 965 q 291 973 297 965 q 285 992 285 981 q 290 1008 285 1000 q 308 1015 296 1015 l 554 1015 q 572 1009 564 1015 q 579 990 579 1003 l 579 278 q 501 57 579 122 q 308 -8 422 -8 m 189 1193 q 172 1201 179 1193 q 164 1219 164 1208 q 176 1239 164 1233 l 321 1317 q 344 1324 332 1324 q 368 1317 357 1324 l 513 1240 q 525 1217 525 1233 q 518 1201 525 1207 q 501 1194 511 1194 q 489 1199 501 1194 l 344 1275 l 200 1197 q 189 1193 188 1193 z "},"K":{"ha":706,"x_min":115,"x_max":694,"o":"m 140 0 q 123 6 131 0 q 115 25 115 13 l 115 992 q 123 1010 115 1004 q 140 1015 131 1015 q 158 1010 150 1015 q 165 992 165 1004 l 165 447 l 614 1007 q 633 1015 619 1015 q 651 1008 643 1015 q 658 989 658 1000 q 653 975 658 981 l 332 576 l 690 38 q 694 25 694 31 q 686 7 694 14 q 668 0 678 0 q 647 13 656 0 l 299 535 l 165 368 l 165 25 q 158 6 165 13 q 140 0 150 0 z "},"Ķ":{"ha":706,"x_min":115,"x_max":694,"o":"m 140 0 q 123 6 131 0 q 115 25 115 13 l 115 992 q 123 1010 115 1004 q 140 1015 131 1015 q 158 1010 150 1015 q 165 992 165 1004 l 165 447 l 614 1007 q 633 1015 619 1015 q 651 1008 643 1015 q 658 989 658 1000 q 653 975 658 981 l 332 576 l 690 38 q 694 25 694 31 q 686 7 694 14 q 668 0 678 0 q 647 13 656 0 l 299 535 l 165 368 l 165 25 q 158 6 165 13 q 140 0 150 0 m 286 -196 q 267 -188 275 -196 q 260 -171 260 -181 q 271 -153 260 -158 l 413 -69 q 422 -67 418 -67 q 439 -74 433 -67 q 444 -92 444 -82 q 431 -117 444 -108 l 299 -192 q 286 -196 292 -196 z "},"L":{"ha":628,"x_min":115,"x_max":608,"o":"m 140 0 q 123 6 131 0 q 115 25 115 13 l 115 992 q 123 1010 115 1004 q 140 1015 131 1015 q 158 1010 150 1015 q 165 992 165 1004 l 165 50 l 588 50 q 603 42 597 50 q 608 25 608 35 q 603 8 608 15 q 588 0 597 0 l 140 0 z "},"Ĺ":{"ha":628,"x_min":115,"x_max":608,"o":"m 140 0 q 123 6 131 0 q 115 25 115 13 l 115 992 q 123 1010 115 1004 q 140 1015 131 1015 q 158 1010 150 1015 q 165 992 165 1004 l 165 50 l 588 50 q 603 42 597 50 q 608 25 608 35 q 603 8 608 15 q 588 0 597 0 l 140 0 m 296 1194 q 278 1201 286 1194 q 269 1219 269 1208 q 281 1238 269 1232 l 422 1321 q 432 1324 428 1324 q 448 1316 442 1324 q 454 1299 454 1308 q 440 1274 454 1282 l 308 1199 q 296 1194 303 1194 z "},"Ľ":{"ha":629,"x_min":115,"x_max":608,"o":"m 140 0 q 123 6 131 0 q 115 25 115 13 l 115 992 q 123 1010 115 1004 q 140 1015 131 1015 q 158 1010 150 1015 q 165 992 165 1004 l 165 50 l 588 50 q 603 42 597 50 q 608 25 608 35 q 603 8 608 15 q 588 0 597 0 l 140 0 m 433 831 q 418 836 425 831 q 411 851 411 842 q 413 860 411 857 l 438 931 q 400 979 400 940 q 414 1015 400 1000 q 450 1029 428 1029 q 484 1015 469 1029 q 499 979 499 1000 q 492 944 499 968 q 474 894 485 921 q 453 844 464 867 q 433 831 446 831 z "},"Ļ":{"ha":628,"x_min":115,"x_max":608,"o":"m 140 0 q 123 6 131 0 q 115 25 115 13 l 115 992 q 123 1010 115 1004 q 140 1015 131 1015 q 158 1010 150 1015 q 165 992 165 1004 l 165 50 l 588 50 q 603 42 597 50 q 608 25 608 35 q 603 8 608 15 q 588 0 597 0 l 140 0 m 285 -196 q 267 -188 275 -196 q 258 -171 258 -181 q 269 -153 258 -158 l 411 -69 q 421 -67 417 -67 q 437 -74 431 -67 q 443 -92 443 -82 q 429 -117 443 -108 l 297 -192 q 285 -196 292 -196 z "},"Ŀ":{"ha":629,"x_min":115,"x_max":608,"o":"m 140 0 q 123 6 131 0 q 115 25 115 13 l 115 992 q 123 1010 115 1004 q 140 1015 131 1015 q 158 1010 150 1015 q 165 992 165 1004 l 165 50 l 588 50 q 603 42 597 50 q 608 25 608 35 q 603 8 608 15 q 588 0 597 0 l 140 0 m 447 535 q 411 550 425 535 q 397 585 397 565 q 411 620 397 606 q 447 635 425 635 q 481 620 467 635 q 496 585 496 606 q 481 550 496 565 q 447 535 467 535 z "},"Ł":{"ha":636,"x_min":8,"x_max":617,"o":"m 149 0 q 131 6 139 0 q 124 25 124 13 l 124 421 l 44 375 q 32 371 39 371 q 16 378 24 371 q 8 397 8 386 q 21 417 8 411 l 124 476 l 124 992 q 131 1010 124 1004 q 149 1015 139 1015 q 166 1010 158 1015 q 174 992 174 1004 l 174 504 l 333 597 q 346 600 338 600 q 363 594 356 600 q 369 578 369 588 q 357 556 369 563 l 174 450 l 174 50 l 596 50 q 611 42 606 50 q 617 25 617 35 q 611 8 617 15 q 596 0 606 0 l 149 0 z "},"M":{"ha":907,"x_min":115,"x_max":792,"o":"m 140 0 q 123 6 131 0 q 115 25 115 13 l 115 992 q 123 1010 115 1006 q 140 1015 131 1015 q 166 995 154 1015 q 183 965 178 975 l 453 435 l 724 965 q 741 995 729 975 q 767 1015 753 1015 q 785 1010 778 1015 q 792 992 792 1006 l 792 25 q 784 6 792 13 q 767 0 776 0 q 749 6 757 0 q 742 25 742 13 l 742 893 l 479 388 q 453 361 465 361 q 440 367 447 361 q 426 388 433 374 l 165 893 l 165 25 q 158 6 165 13 q 140 0 150 0 z "},"N":{"ha":774,"x_min":115,"x_max":658,"o":"m 140 0 q 123 6 131 0 q 115 25 115 13 l 115 992 q 123 1010 115 1006 q 140 1015 131 1015 q 166 995 154 1015 q 183 965 178 975 l 608 124 l 608 992 q 616 1010 608 1004 q 633 1015 624 1015 q 651 1010 643 1015 q 658 992 658 1004 l 658 25 q 651 6 658 13 q 633 0 643 0 q 610 18 619 0 q 593 50 600 36 l 165 893 l 165 25 q 158 6 165 13 q 140 0 150 0 z "},"Ń":{"ha":774,"x_min":115,"x_max":658,"o":"m 140 0 q 123 6 131 0 q 115 25 115 13 l 115 992 q 123 1010 115 1006 q 140 1015 131 1015 q 166 995 154 1015 q 183 965 178 975 l 608 124 l 608 992 q 616 1010 608 1004 q 633 1015 624 1015 q 651 1010 643 1015 q 658 992 658 1004 l 658 25 q 651 6 658 13 q 633 0 643 0 q 610 18 619 0 q 593 50 600 36 l 165 893 l 165 25 q 158 6 165 13 q 140 0 150 0 m 321 1194 q 303 1201 311 1194 q 294 1219 294 1208 q 306 1238 294 1232 l 447 1321 q 457 1324 453 1324 q 473 1316 467 1324 q 479 1299 479 1308 q 465 1274 479 1282 l 333 1199 q 321 1194 328 1194 z "},"Ň":{"ha":774,"x_min":115,"x_max":658,"o":"m 140 0 q 123 6 131 0 q 115 25 115 13 l 115 992 q 123 1010 115 1006 q 140 1015 131 1015 q 166 995 154 1015 q 183 965 178 975 l 608 124 l 608 992 q 616 1010 608 1004 q 633 1015 624 1015 q 651 1010 643 1015 q 658 992 658 1004 l 658 25 q 651 6 658 13 q 633 0 643 0 q 610 18 619 0 q 593 50 600 36 l 165 893 l 165 25 q 158 6 165 13 q 140 0 150 0 m 385 1176 q 356 1192 368 1176 l 217 1332 q 206 1354 206 1346 q 211 1368 206 1361 q 226 1375 217 1375 q 249 1364 239 1375 l 385 1221 l 521 1364 q 543 1375 531 1375 q 558 1368 553 1375 q 564 1354 564 1361 q 553 1332 564 1346 l 414 1192 q 385 1176 399 1176 z "},"Ņ":{"ha":774,"x_min":115,"x_max":658,"o":"m 140 0 q 123 6 131 0 q 115 25 115 13 l 115 992 q 123 1010 115 1006 q 140 1015 131 1015 q 166 995 154 1015 q 183 965 178 975 l 608 124 l 608 992 q 616 1010 608 1004 q 633 1015 624 1015 q 651 1010 643 1015 q 658 992 658 1004 l 658 25 q 651 6 658 13 q 633 0 643 0 q 610 18 619 0 q 593 50 600 36 l 165 893 l 165 25 q 158 6 165 13 q 140 0 150 0 m 317 -196 q 298 -188 306 -196 q 290 -171 290 -181 q 301 -153 290 -158 l 443 -69 q 453 -67 449 -67 q 469 -74 464 -67 q 475 -92 475 -82 q 461 -117 475 -108 l 329 -192 q 317 -196 322 -196 z "},"Ŋ":{"ha":774,"x_min":115,"x_max":658,"o":"m 489 -329 q 471 -322 478 -329 q 464 -304 464 -314 q 471 -287 464 -294 q 489 -281 478 -281 q 590 -220 569 -281 q 610 -67 610 -160 l 610 0 q 593 50 610 17 l 165 893 l 165 25 q 158 6 165 13 q 140 0 150 0 q 123 6 131 0 q 115 25 115 13 l 115 992 q 123 1010 115 1006 q 140 1015 131 1015 q 166 995 154 1015 q 183 965 178 975 l 608 124 l 608 992 q 616 1010 608 1004 q 633 1015 624 1015 q 651 1010 643 1015 q 658 992 658 1004 l 658 -67 q 622 -256 658 -182 q 489 -329 585 -329 z "},"Ñ":{"ha":774,"x_min":115,"x_max":658,"o":"m 140 0 q 123 6 131 0 q 115 25 115 13 l 115 992 q 123 1010 115 1006 q 140 1015 131 1015 q 166 995 154 1015 q 183 965 178 975 l 608 124 l 608 992 q 616 1010 608 1004 q 633 1015 624 1015 q 651 1010 643 1015 q 658 992 658 1004 l 658 25 q 651 6 658 13 q 633 0 643 0 q 610 18 619 0 q 593 50 600 36 l 165 893 l 165 25 q 158 6 165 13 q 140 0 150 0 m 475 1219 q 390 1245 425 1219 q 296 1271 354 1271 q 233 1247 251 1271 q 200 1222 214 1222 q 188 1228 193 1222 q 182 1246 182 1235 q 225 1295 182 1272 q 306 1318 268 1318 q 393 1292 357 1318 q 482 1267 429 1267 q 543 1289 531 1267 q 572 1311 556 1311 q 585 1306 579 1311 q 592 1290 592 1300 q 550 1239 592 1258 q 475 1219 508 1219 z "},"O":{"ha":754,"x_min":106,"x_max":649,"o":"m 376 -8 q 183 57 261 -8 q 106 278 106 122 l 106 729 q 183 951 106 886 q 376 1015 261 1015 q 570 951 492 1015 q 649 729 649 886 l 649 278 q 570 57 649 122 q 376 -8 492 -8 m 376 42 q 540 99 481 42 q 599 278 599 157 l 599 729 q 540 908 599 850 q 376 965 481 965 q 214 908 272 965 q 156 729 156 850 l 156 278 q 214 99 156 157 q 376 42 272 42 z "},"Ó":{"ha":754,"x_min":106,"x_max":649,"o":"m 376 -8 q 183 57 261 -8 q 106 278 106 122 l 106 729 q 183 951 106 886 q 376 1015 261 1015 q 570 951 492 1015 q 649 729 649 886 l 649 278 q 570 57 649 122 q 376 -8 492 -8 m 376 42 q 540 99 481 42 q 599 278 599 157 l 599 729 q 540 908 599 850 q 376 965 481 965 q 214 908 272 965 q 156 729 156 850 l 156 278 q 214 99 156 157 q 376 42 272 42 m 311 1194 q 292 1201 300 1194 q 285 1219 285 1208 q 296 1238 285 1232 l 438 1321 q 447 1324 443 1324 q 464 1316 458 1324 q 469 1299 469 1308 q 456 1274 469 1282 l 324 1199 q 311 1194 317 1194 z "},"Ŏ":{"ha":754,"x_min":106,"x_max":649,"o":"m 376 -8 q 183 57 261 -8 q 106 278 106 122 l 106 729 q 183 951 106 886 q 376 1015 261 1015 q 570 951 492 1015 q 649 729 649 886 l 649 278 q 570 57 649 122 q 376 -8 492 -8 m 376 42 q 540 99 481 42 q 599 278 599 157 l 599 729 q 540 908 599 850 q 376 965 481 965 q 214 908 272 965 q 156 729 156 850 l 156 278 q 214 99 156 157 q 376 42 272 42 m 376 1194 q 271 1240 317 1194 q 225 1346 225 1285 l 269 1346 q 301 1264 269 1297 q 376 1231 333 1231 q 451 1264 419 1231 q 482 1346 482 1297 l 528 1346 q 482 1240 528 1285 q 376 1194 436 1194 z "},"Ô":{"ha":754,"x_min":106,"x_max":649,"o":"m 376 -8 q 183 57 261 -8 q 106 278 106 122 l 106 729 q 183 951 106 886 q 376 1015 261 1015 q 570 951 492 1015 q 649 729 649 886 l 649 278 q 570 57 649 122 q 376 -8 492 -8 m 376 42 q 540 99 481 42 q 599 278 599 157 l 599 729 q 540 908 599 850 q 376 965 481 965 q 214 908 272 965 q 156 729 156 850 l 156 278 q 214 99 156 157 q 376 42 272 42 m 221 1193 q 203 1201 211 1193 q 196 1219 196 1208 q 208 1239 196 1233 l 353 1317 q 376 1324 364 1324 q 400 1317 389 1324 l 544 1240 q 557 1217 557 1233 q 550 1201 557 1207 q 533 1194 543 1194 q 521 1199 533 1194 l 376 1275 l 232 1197 q 221 1193 219 1193 z "},"Ố":{"ha":754,"x_min":106,"x_max":649,"o":"m 376 -8 q 183 57 261 -8 q 106 278 106 122 l 106 729 q 183 951 106 886 q 376 1015 261 1015 q 570 951 492 1015 q 649 729 649 886 l 649 278 q 570 57 649 122 q 376 -8 492 -8 m 376 42 q 540 99 481 42 q 599 278 599 157 l 599 729 q 540 908 599 850 q 376 965 481 965 q 214 908 272 965 q 156 729 156 850 l 156 278 q 214 99 156 157 q 376 42 272 42 z "},"Ộ":{"ha":754,"x_min":106,"x_max":649,"o":"m 376 -8 q 183 57 261 -8 q 106 278 106 122 l 106 729 q 183 951 106 886 q 376 1015 261 1015 q 570 951 492 1015 q 649 729 649 886 l 649 278 q 570 57 649 122 q 376 -8 492 -8 m 376 42 q 540 99 481 42 q 599 278 599 157 l 599 729 q 540 908 599 850 q 376 965 481 965 q 214 908 272 965 q 156 729 156 850 l 156 278 q 214 99 156 157 q 376 42 272 42 m 222 1193 q 205 1201 213 1193 q 197 1219 197 1208 q 210 1239 197 1232 l 354 1317 q 378 1324 365 1324 q 401 1317 390 1324 l 546 1240 q 558 1217 558 1235 q 551 1201 558 1207 q 535 1194 544 1194 q 522 1199 535 1194 l 378 1275 l 233 1197 q 222 1193 221 1193 z "},"Ồ":{"ha":754,"x_min":106,"x_max":649,"o":"m 376 -8 q 183 57 261 -8 q 106 278 106 122 l 106 729 q 183 951 106 886 q 376 1015 261 1015 q 570 951 492 1015 q 649 729 649 886 l 649 278 q 570 57 649 122 q 376 -8 492 -8 m 376 42 q 540 99 481 42 q 599 278 599 157 l 599 729 q 540 908 599 850 q 376 965 481 965 q 214 908 272 965 q 156 729 156 850 l 156 278 q 214 99 156 157 q 376 42 272 42 z "},"Ổ":{"ha":754,"x_min":106,"x_max":649,"o":"m 376 -8 q 183 57 261 -8 q 106 278 106 122 l 106 729 q 183 951 106 886 q 376 1015 261 1015 q 570 951 492 1015 q 649 729 649 886 l 649 278 q 570 57 649 122 q 376 -8 492 -8 m 376 42 q 540 99 481 42 q 599 278 599 157 l 599 729 q 540 908 599 850 q 376 965 481 965 q 214 908 272 965 q 156 729 156 850 l 156 278 q 214 99 156 157 q 376 42 272 42 z "},"Ỗ":{"ha":754,"x_min":106,"x_max":649,"o":"m 376 -8 q 183 57 261 -8 q 106 278 106 122 l 106 729 q 183 951 106 886 q 376 1015 261 1015 q 570 951 492 1015 q 649 729 649 886 l 649 278 q 570 57 649 122 q 376 -8 492 -8 m 376 42 q 540 99 481 42 q 599 278 599 157 l 599 729 q 540 908 599 850 q 376 965 481 965 q 214 908 272 965 q 156 729 156 850 l 156 278 q 214 99 156 157 q 376 42 272 42 z "},"Ö":{"ha":754,"x_min":106,"x_max":649,"o":"m 376 -8 q 183 57 261 -8 q 106 278 106 122 l 106 729 q 183 951 106 886 q 376 1015 261 1015 q 570 951 492 1015 q 649 729 649 886 l 649 278 q 570 57 649 122 q 376 -8 492 -8 m 376 42 q 540 99 481 42 q 599 278 599 157 l 599 729 q 540 908 599 850 q 376 965 481 965 q 214 908 272 965 q 156 729 156 850 l 156 278 q 214 99 156 157 q 376 42 272 42 m 300 1193 q 269 1205 281 1193 q 258 1235 258 1217 q 269 1264 258 1253 q 300 1275 281 1275 q 329 1264 318 1275 q 340 1235 340 1253 q 329 1205 340 1217 q 300 1193 318 1193 m 454 1193 q 424 1205 436 1193 q 413 1235 413 1217 q 424 1264 413 1253 q 454 1275 436 1275 q 483 1264 472 1275 q 494 1235 494 1253 q 483 1205 494 1217 q 454 1193 472 1193 z "},"Ọ":{"ha":754,"x_min":106,"x_max":649,"o":"m 376 -8 q 183 57 261 -8 q 106 278 106 122 l 106 729 q 183 951 106 886 q 376 1015 261 1015 q 570 951 492 1015 q 649 729 649 886 l 649 278 q 570 57 649 122 q 376 -8 492 -8 m 376 42 q 540 99 481 42 q 599 278 599 157 l 599 729 q 540 908 599 850 q 376 965 481 965 q 214 908 272 965 q 156 729 156 850 l 156 278 q 214 99 156 157 q 376 42 272 42 z "},"Ò":{"ha":754,"x_min":106,"x_max":649,"o":"m 376 -8 q 183 57 261 -8 q 106 278 106 122 l 106 729 q 183 951 106 886 q 376 1015 261 1015 q 570 951 492 1015 q 649 729 649 886 l 649 278 q 570 57 649 122 q 376 -8 492 -8 m 376 42 q 540 99 481 42 q 599 278 599 157 l 599 729 q 540 908 599 850 q 376 965 481 965 q 214 908 272 965 q 156 729 156 850 l 156 278 q 214 99 156 157 q 376 42 272 42 m 443 1194 q 431 1199 436 1194 l 299 1274 q 285 1299 285 1282 q 291 1316 285 1308 q 307 1324 297 1324 q 317 1321 311 1324 l 458 1238 q 469 1219 469 1232 q 461 1201 469 1208 q 443 1194 453 1194 z "},"Ỏ":{"ha":754,"x_min":106,"x_max":649,"o":"m 376 -8 q 183 57 261 -8 q 106 278 106 122 l 106 729 q 183 951 106 886 q 376 1015 261 1015 q 570 951 492 1015 q 649 729 649 886 l 649 278 q 570 57 649 122 q 376 -8 492 -8 m 376 42 q 540 99 481 42 q 599 278 599 157 l 599 729 q 540 908 599 850 q 376 965 481 965 q 214 908 272 965 q 156 729 156 850 l 156 278 q 214 99 156 157 q 376 42 272 42 m 289 1294 q 332 1324 308 1313 q 382 1335 356 1335 q 454 1305 433 1335 q 475 1249 475 1275 q 461 1208 475 1226 q 426 1168 447 1189 q 419 1157 422 1164 q 415 1139 417 1150 q 394 1122 414 1122 q 374 1142 374 1122 q 376 1165 374 1151 q 392 1193 379 1179 q 419 1222 408 1211 q 431 1249 431 1233 q 383 1290 431 1290 q 351 1282 365 1290 q 325 1265 336 1274 q 286 1263 299 1244 q 280 1277 281 1269 q 289 1294 279 1285 z "},"Ơ":{"ha":754,"x_min":106,"x_max":649,"o":"m 376 -8 q 183 57 261 -8 q 106 278 106 122 l 106 729 q 183 951 106 886 q 376 1015 261 1015 q 570 951 492 1015 q 649 729 649 886 l 649 278 q 570 57 649 122 q 376 -8 492 -8 m 376 42 q 540 99 481 42 q 599 278 599 157 l 599 729 q 540 908 599 850 q 376 965 481 965 q 214 908 272 965 q 156 729 156 850 l 156 278 q 214 99 156 157 q 376 42 272 42 m 414 971 l 414 1015 q 553 1111 553 1015 q 556 1140 553 1128 q 574 1153 560 1153 q 594 1139 590 1153 q 599 1111 599 1125 q 559 1010 599 1049 q 414 971 519 971 z "},"Ớ":{"ha":754,"x_min":106,"x_max":649,"o":"m 376 -8 q 183 57 261 -8 q 106 278 106 122 l 106 729 q 183 951 106 886 q 376 1015 261 1015 q 570 951 492 1015 q 649 729 649 886 l 649 278 q 570 57 649 122 q 376 -8 492 -8 m 376 42 q 540 99 481 42 q 599 278 599 157 l 599 729 q 540 908 599 850 q 376 965 481 965 q 214 908 272 965 q 156 729 156 850 l 156 278 q 214 99 156 157 q 376 42 272 42 m 414 971 l 414 1015 q 553 1111 553 1015 q 556 1140 553 1128 q 574 1153 560 1153 q 594 1139 590 1153 q 599 1111 599 1125 q 559 1010 599 1049 q 414 971 519 971 m 311 1194 q 293 1202 301 1194 q 285 1219 285 1210 q 296 1238 285 1232 l 438 1321 q 447 1324 443 1324 q 463 1316 457 1324 q 469 1299 469 1308 q 456 1274 469 1282 l 324 1199 q 311 1194 318 1194 z "},"Ợ":{"ha":754,"x_min":106,"x_max":649,"o":"m 376 -8 q 183 57 261 -8 q 106 278 106 122 l 106 729 q 183 951 106 886 q 376 1015 261 1015 q 570 951 492 1015 q 649 729 649 886 l 649 278 q 570 57 649 122 q 376 -8 492 -8 m 376 42 q 540 99 481 42 q 599 278 599 157 l 599 729 q 540 908 599 850 q 376 965 481 965 q 214 908 272 965 q 156 729 156 850 l 156 278 q 214 99 156 157 q 376 42 272 42 m 414 971 l 414 1015 q 553 1111 553 1015 q 556 1140 553 1128 q 574 1153 560 1153 q 594 1139 590 1153 q 599 1111 599 1125 q 559 1010 599 1049 q 414 971 519 971 z "},"Ờ":{"ha":754,"x_min":106,"x_max":649,"o":"m 376 -8 q 183 57 261 -8 q 106 278 106 122 l 106 729 q 183 951 106 886 q 376 1015 261 1015 q 570 951 492 1015 q 649 729 649 886 l 649 278 q 570 57 649 122 q 376 -8 492 -8 m 376 42 q 540 99 481 42 q 599 278 599 157 l 599 729 q 540 908 599 850 q 376 965 481 965 q 214 908 272 965 q 156 729 156 850 l 156 278 q 214 99 156 157 q 376 42 272 42 m 414 971 l 414 1015 q 553 1111 553 1015 q 556 1140 553 1128 q 574 1153 560 1153 q 594 1139 590 1153 q 599 1111 599 1125 q 559 1010 599 1049 q 414 971 519 971 m 443 1194 q 431 1199 438 1194 l 299 1274 q 285 1299 285 1282 q 290 1316 285 1308 q 307 1324 296 1324 q 317 1321 311 1324 l 458 1238 q 469 1219 469 1232 q 462 1202 469 1210 q 443 1194 454 1194 z "},"Ở":{"ha":754,"x_min":106,"x_max":649,"o":"m 376 -8 q 183 57 261 -8 q 106 278 106 122 l 106 729 q 183 951 106 886 q 376 1015 261 1015 q 570 951 492 1015 q 649 729 649 886 l 649 278 q 570 57 649 122 q 376 -8 492 -8 m 376 42 q 540 99 481 42 q 599 278 599 157 l 599 729 q 540 908 599 850 q 376 965 481 965 q 214 908 272 965 q 156 729 156 850 l 156 278 q 214 99 156 157 q 376 42 272 42 m 414 971 l 414 1015 q 553 1111 553 1015 q 556 1140 553 1128 q 574 1153 560 1153 q 594 1139 590 1153 q 599 1111 599 1125 q 559 1010 599 1049 q 414 971 519 971 m 289 1294 q 332 1324 308 1313 q 382 1335 356 1335 q 454 1305 433 1335 q 475 1249 475 1275 q 461 1208 475 1226 q 426 1168 447 1189 q 419 1157 422 1164 q 415 1139 417 1150 q 394 1122 414 1122 q 374 1142 374 1122 q 376 1165 374 1151 q 392 1193 379 1179 q 419 1222 408 1211 q 431 1249 431 1233 q 383 1290 431 1290 q 351 1282 365 1290 q 325 1265 336 1274 q 286 1263 299 1244 q 280 1277 281 1269 q 289 1294 279 1285 z "},"Ỡ":{"ha":754,"x_min":106,"x_max":649,"o":"m 376 -8 q 183 57 261 -8 q 106 278 106 122 l 106 729 q 183 951 106 886 q 376 1015 261 1015 q 570 951 492 1015 q 649 729 649 886 l 649 278 q 570 57 649 122 q 376 -8 492 -8 m 376 42 q 540 99 481 42 q 599 278 599 157 l 599 729 q 540 908 599 850 q 376 965 481 965 q 214 908 272 965 q 156 729 156 850 l 156 278 q 214 99 156 157 q 376 42 272 42 m 414 971 l 414 1015 q 553 1111 553 1015 q 556 1140 553 1128 q 574 1153 560 1153 q 594 1139 590 1153 q 599 1111 599 1125 q 559 1010 599 1049 q 414 971 519 971 m 465 1219 q 380 1245 415 1219 q 286 1271 344 1271 q 224 1247 242 1271 q 190 1222 206 1222 q 178 1228 183 1222 q 172 1246 172 1235 q 215 1296 172 1274 q 296 1318 258 1318 q 383 1292 347 1318 q 472 1267 419 1267 q 533 1289 519 1267 q 563 1311 546 1311 q 576 1306 569 1311 q 582 1290 582 1300 q 540 1239 582 1258 q 465 1219 499 1219 z "},"Ő":{"ha":754,"x_min":106,"x_max":649,"o":"m 376 -8 q 183 57 261 -8 q 106 278 106 122 l 106 729 q 183 951 106 886 q 376 1015 261 1015 q 570 951 492 1015 q 649 729 649 886 l 649 278 q 570 57 649 122 q 376 -8 492 -8 m 376 42 q 540 99 481 42 q 599 278 599 157 l 599 729 q 540 908 599 850 q 376 965 481 965 q 214 908 272 965 q 156 729 156 850 l 156 278 q 214 99 156 157 q 376 42 272 42 m 264 1194 q 245 1201 253 1194 q 238 1219 238 1208 q 249 1238 238 1232 l 390 1321 q 400 1324 396 1324 q 417 1316 411 1324 q 422 1299 422 1308 q 408 1274 422 1282 l 276 1199 q 264 1194 269 1194 m 468 1194 q 450 1201 458 1194 q 442 1219 442 1208 q 453 1238 442 1232 l 594 1321 q 604 1324 600 1324 q 620 1316 614 1324 q 626 1299 626 1308 q 613 1274 626 1282 l 481 1199 q 468 1194 475 1194 z "},"Ō":{"ha":754,"x_min":106,"x_max":649,"o":"m 376 -8 q 183 57 261 -8 q 106 278 106 122 l 106 729 q 183 951 106 886 q 376 1015 261 1015 q 570 951 492 1015 q 649 729 649 886 l 649 278 q 570 57 649 122 q 376 -8 492 -8 m 376 42 q 540 99 481 42 q 599 278 599 157 l 599 729 q 540 908 599 850 q 376 965 481 965 q 214 908 272 965 q 156 729 156 850 l 156 278 q 214 99 156 157 q 376 42 272 42 m 224 1258 q 200 1282 200 1258 q 207 1299 200 1292 q 224 1307 214 1307 l 529 1307 q 547 1299 539 1307 q 554 1282 554 1292 q 547 1265 554 1272 q 529 1258 539 1258 l 224 1258 z "},"Ø":{"ha":754,"x_min":82,"x_max":671,"o":"m 376 -8 q 183 57 261 -8 q 106 278 106 122 l 106 729 q 183 951 106 886 q 376 1015 261 1015 q 570 951 492 1015 q 649 729 649 886 l 649 278 q 570 57 649 122 q 376 -8 492 -8 m 376 42 q 540 99 481 42 q 599 278 599 157 l 599 729 q 540 908 599 850 q 376 965 481 965 q 214 908 272 965 q 156 729 156 850 l 156 278 q 214 99 156 157 q 376 42 272 42 m 104 -28 q 89 -22 96 -28 q 82 -7 82 -17 q 85 6 82 1 l 628 1056 q 646 1067 633 1067 q 663 1059 654 1067 q 671 1040 671 1051 q 667 1025 671 1033 l 128 -12 q 104 -28 121 -28 z "},"Ǿ":{"ha":754,"x_min":82,"x_max":671,"o":"m 376 -8 q 183 57 261 -8 q 106 278 106 122 l 106 729 q 183 951 106 886 q 376 1015 261 1015 q 570 951 492 1015 q 649 729 649 886 l 649 278 q 570 57 649 122 q 376 -8 492 -8 m 376 42 q 540 99 481 42 q 599 278 599 157 l 599 729 q 540 908 599 850 q 376 965 481 965 q 214 908 272 965 q 156 729 156 850 l 156 278 q 214 99 156 157 q 376 42 272 42 m 104 -28 q 89 -22 96 -28 q 82 -7 82 -17 q 85 6 82 1 l 628 1056 q 646 1067 633 1067 q 663 1059 654 1067 q 671 1040 671 1051 q 667 1025 671 1033 l 128 -12 q 104 -28 121 -28 m 311 1194 q 293 1202 301 1194 q 285 1219 285 1210 q 296 1238 285 1232 l 438 1321 q 447 1324 443 1324 q 463 1316 457 1324 q 469 1299 469 1308 q 456 1274 469 1282 l 324 1199 q 311 1194 318 1194 z "},"Õ":{"ha":754,"x_min":106,"x_max":649,"o":"m 376 -8 q 183 57 261 -8 q 106 278 106 122 l 106 729 q 183 951 106 886 q 376 1015 261 1015 q 570 951 492 1015 q 649 729 649 886 l 649 278 q 570 57 649 122 q 376 -8 492 -8 m 376 42 q 540 99 481 42 q 599 278 599 157 l 599 729 q 540 908 599 850 q 376 965 481 965 q 214 908 272 965 q 156 729 156 850 l 156 278 q 214 99 156 157 q 376 42 272 42 m 465 1219 q 380 1245 415 1219 q 286 1271 344 1271 q 224 1247 242 1271 q 190 1222 206 1222 q 178 1228 183 1222 q 172 1246 172 1235 q 215 1295 172 1272 q 296 1318 258 1318 q 383 1292 347 1318 q 472 1267 419 1267 q 533 1289 519 1267 q 563 1311 546 1311 q 576 1306 569 1311 q 582 1290 582 1300 q 540 1239 582 1258 q 465 1219 499 1219 z "},"Œ":{"ha":1174,"x_min":106,"x_max":1140,"o":"m 376 -8 q 183 57 261 -8 q 106 278 106 122 l 106 729 q 183 951 106 886 q 376 1015 261 1015 q 505 992 446 1015 q 600 915 564 968 l 600 990 q 608 1009 600 1003 q 625 1015 615 1015 l 1117 1015 q 1135 1008 1129 1015 q 1140 992 1140 1000 q 1134 973 1140 981 q 1117 965 1128 965 l 647 965 l 647 533 l 869 533 q 887 525 881 533 q 893 507 893 517 q 888 491 893 499 q 869 483 882 483 l 647 483 l 647 50 l 1117 50 q 1134 42 1128 50 q 1140 24 1140 33 q 1135 8 1140 15 q 1117 0 1129 0 l 625 0 q 608 6 615 0 q 600 25 600 13 l 600 92 q 505 15 564 39 q 376 -8 446 -8 m 376 42 q 540 99 481 42 q 599 278 599 157 l 599 729 q 540 908 599 850 q 376 965 481 965 q 214 908 272 965 q 156 729 156 850 l 156 278 q 214 99 156 157 q 376 42 272 42 z "},"P":{"ha":713,"x_min":115,"x_max":658,"o":"m 140 0 q 123 6 131 0 q 115 25 115 13 l 115 992 q 122 1008 115 1001 q 140 1015 129 1014 l 386 1015 q 579 951 500 1015 q 658 729 658 886 l 658 713 q 579 490 658 556 q 386 425 500 425 l 165 425 l 165 25 q 158 6 165 13 q 140 0 150 0 m 165 475 l 386 475 q 549 533 490 475 q 608 713 608 592 l 608 729 q 549 908 608 850 q 386 965 490 965 l 165 965 l 165 475 z "},"Þ":{"ha":671,"x_min":115,"x_max":600,"o":"m 140 0 q 123 8 131 0 q 115 25 115 15 l 115 993 q 122 1010 115 1004 q 139 1015 129 1015 q 157 1009 150 1015 q 164 992 164 1003 l 164 753 q 237 827 188 796 q 363 858 286 858 q 526 808 453 858 q 600 657 600 757 l 600 390 q 526 238 600 290 q 369 186 451 186 q 243 217 304 186 q 164 294 182 247 l 164 25 q 157 8 164 15 q 140 0 150 0 m 365 235 q 492 272 433 235 q 551 390 551 310 l 551 657 q 493 772 551 735 q 365 810 435 810 q 224 767 285 810 q 164 657 164 725 l 164 390 q 221 284 164 333 q 365 235 278 235 z "},"Q":{"ha":754,"x_min":106,"x_max":649,"o":"m 378 -151 q 360 -145 368 -151 q 353 -126 353 -139 l 353 -7 q 176 64 247 -1 q 106 278 106 129 l 106 729 q 183 951 106 886 q 376 1015 261 1015 q 570 951 492 1015 q 649 729 649 886 l 649 278 q 578 65 649 131 q 403 -7 508 -1 l 403 -126 q 395 -145 403 -139 q 378 -151 388 -151 m 353 42 l 353 158 q 360 176 353 171 q 378 182 368 182 q 395 176 388 182 q 403 158 403 171 l 403 43 q 547 107 494 50 q 599 278 599 164 l 599 729 q 540 908 599 850 q 376 965 481 965 q 214 908 272 965 q 156 729 156 850 l 156 278 q 353 42 156 54 z "},"R":{"ha":707,"x_min":115,"x_max":658,"o":"m 633 0 q 610 18 619 0 q 593 50 600 36 l 371 483 l 165 483 l 165 25 q 158 6 165 13 q 140 0 150 0 q 123 6 131 0 q 115 25 115 13 l 115 992 q 122 1008 115 1001 q 140 1015 129 1014 l 372 1015 q 572 958 486 1015 q 658 750 658 901 q 590 557 658 617 q 425 486 522 497 l 654 40 q 658 25 658 32 q 651 7 658 14 q 633 0 644 0 m 165 533 l 372 533 q 542 584 476 533 q 608 750 608 635 q 542 915 608 865 q 372 965 476 965 l 165 965 l 165 533 z "},"Ŕ":{"ha":707,"x_min":115,"x_max":658,"o":"m 633 0 q 610 18 619 0 q 593 50 600 36 l 371 483 l 165 483 l 165 25 q 158 6 165 13 q 140 0 150 0 q 123 6 131 0 q 115 25 115 13 l 115 992 q 122 1008 115 1001 q 140 1015 129 1014 l 372 1015 q 572 958 486 1015 q 658 750 658 901 q 590 557 658 617 q 425 486 522 497 l 654 40 q 658 25 658 32 q 651 7 658 14 q 633 0 644 0 m 165 533 l 372 533 q 542 584 476 533 q 608 750 608 635 q 542 915 608 865 q 372 965 476 965 l 165 965 l 165 533 m 288 1194 q 269 1202 278 1194 q 261 1219 261 1210 q 272 1238 261 1232 l 414 1321 q 424 1324 419 1324 q 440 1316 433 1324 q 446 1299 446 1308 q 432 1274 446 1282 l 300 1199 q 288 1194 294 1194 z "},"Ř":{"ha":707,"x_min":115,"x_max":658,"o":"m 633 0 q 610 18 619 0 q 593 50 600 36 l 371 483 l 165 483 l 165 25 q 158 6 165 13 q 140 0 150 0 q 123 6 131 0 q 115 25 115 13 l 115 992 q 122 1008 115 1001 q 140 1015 129 1014 l 372 1015 q 572 958 486 1015 q 658 750 658 901 q 590 557 658 617 q 425 486 522 497 l 654 40 q 658 25 658 32 q 651 7 658 14 q 633 0 644 0 m 165 533 l 372 533 q 542 584 476 533 q 608 750 608 635 q 542 915 608 865 q 372 965 476 965 l 165 965 l 165 533 m 354 1176 q 325 1192 338 1176 l 186 1332 q 175 1354 175 1346 q 181 1368 175 1361 q 196 1375 186 1375 q 218 1364 208 1375 l 354 1221 l 490 1364 q 513 1375 500 1375 q 528 1368 522 1375 q 533 1354 533 1361 q 522 1332 533 1346 l 383 1192 q 354 1176 368 1176 z "},"Ŗ":{"ha":707,"x_min":115,"x_max":658,"o":"m 633 0 q 610 18 619 0 q 593 50 600 36 l 371 483 l 165 483 l 165 25 q 158 6 165 13 q 140 0 150 0 q 123 6 131 0 q 115 25 115 13 l 115 992 q 122 1008 115 1001 q 140 1015 129 1014 l 372 1015 q 572 958 486 1015 q 658 750 658 901 q 590 557 658 617 q 425 486 522 497 l 654 40 q 658 25 658 32 q 651 7 658 14 q 633 0 644 0 m 165 533 l 372 533 q 542 584 476 533 q 608 750 608 635 q 542 915 608 865 q 372 965 476 965 l 165 965 l 165 533 m 288 -196 q 269 -188 278 -196 q 261 -171 261 -181 q 272 -153 261 -158 l 414 -69 q 424 -67 419 -67 q 440 -74 433 -67 q 446 -92 446 -82 q 432 -117 446 -108 l 300 -192 q 288 -196 294 -196 z "},"S":{"ha":668,"x_min":58,"x_max":601,"o":"m 326 -8 q 126 48 193 -8 q 58 132 58 104 q 67 151 58 142 q 82 161 75 161 q 114 131 94 161 q 179 72 133 101 q 319 42 225 42 q 492 99 433 42 q 551 267 551 156 q 504 424 551 372 q 387 500 457 475 q 247 549 317 525 q 131 622 178 572 q 83 775 83 672 q 128 927 83 875 q 236 997 172 979 q 357 1015 300 1015 q 464 1004 414 1015 q 545 976 514 993 q 576 943 576 958 q 569 924 576 935 q 551 913 561 913 q 493 939 536 913 q 356 965 450 965 q 206 928 278 965 q 133 779 133 892 q 181 648 133 689 q 297 585 228 607 q 437 535 367 563 q 554 449 507 508 q 601 271 601 389 q 524 57 601 122 q 326 -8 446 -8 z "},"Ś":{"ha":668,"x_min":58,"x_max":601,"o":"m 326 -8 q 126 48 193 -8 q 58 132 58 104 q 67 151 58 142 q 82 161 75 161 q 114 131 94 161 q 179 72 133 101 q 319 42 225 42 q 492 99 433 42 q 551 267 551 156 q 504 424 551 372 q 387 500 457 475 q 247 549 317 525 q 131 622 178 572 q 83 775 83 672 q 128 927 83 875 q 236 997 172 979 q 357 1015 300 1015 q 464 1004 414 1015 q 545 976 514 993 q 576 943 576 958 q 569 924 576 935 q 551 913 561 913 q 493 939 536 913 q 356 965 450 965 q 206 928 278 965 q 133 779 133 892 q 181 648 133 689 q 297 585 228 607 q 437 535 367 563 q 554 449 507 508 q 601 271 601 389 q 524 57 601 122 q 326 -8 446 -8 m 264 1194 q 245 1201 253 1194 q 238 1219 238 1208 q 249 1238 238 1232 l 390 1321 q 400 1324 396 1324 q 417 1316 411 1324 q 422 1299 422 1308 q 408 1274 422 1282 l 276 1199 q 264 1194 269 1194 z "},"Š":{"ha":668,"x_min":58,"x_max":601,"o":"m 326 -8 q 126 48 193 -8 q 58 132 58 104 q 67 151 58 142 q 82 161 75 161 q 114 131 94 161 q 179 72 133 101 q 319 42 225 42 q 492 99 433 42 q 551 267 551 156 q 504 424 551 372 q 387 500 457 475 q 247 549 317 525 q 131 622 178 572 q 83 775 83 672 q 128 927 83 875 q 236 997 172 979 q 357 1015 300 1015 q 464 1004 414 1015 q 545 976 514 993 q 576 943 576 958 q 569 924 576 935 q 551 913 561 913 q 493 939 536 913 q 356 965 450 965 q 206 928 278 965 q 133 779 133 892 q 181 648 133 689 q 297 585 228 607 q 437 535 367 563 q 554 449 507 508 q 601 271 601 389 q 524 57 601 122 q 326 -8 446 -8 m 328 1176 q 299 1192 311 1176 l 160 1332 q 149 1354 149 1346 q 154 1368 149 1361 q 169 1375 160 1375 q 192 1364 182 1375 l 328 1221 l 464 1364 q 486 1375 474 1375 q 501 1368 496 1375 q 507 1354 507 1361 q 496 1332 507 1346 l 357 1192 q 328 1176 342 1176 z "},"Ş":{"ha":668,"x_min":58,"x_max":601,"o":"m 326 -8 q 126 48 193 -8 q 58 132 58 104 q 67 151 58 142 q 82 161 75 161 q 114 131 94 161 q 179 72 133 101 q 319 42 225 42 q 492 99 433 42 q 551 267 551 156 q 504 424 551 372 q 387 500 457 475 q 247 549 317 525 q 131 622 178 572 q 83 775 83 672 q 128 927 83 875 q 236 997 172 979 q 357 1015 300 1015 q 464 1004 414 1015 q 545 976 514 993 q 576 943 576 958 q 569 924 576 935 q 551 913 561 913 q 493 939 536 913 q 356 965 450 965 q 206 928 278 965 q 133 779 133 892 q 181 648 133 689 q 297 585 228 607 q 437 535 367 563 q 554 449 507 508 q 601 271 601 389 q 524 57 601 122 q 326 -8 446 -8 m 351 -287 q 288 -280 328 -287 q 249 -254 249 -272 q 254 -238 249 -247 q 265 -229 260 -229 q 290 -238 272 -229 q 343 -247 308 -247 q 403 -230 388 -247 q 419 -190 419 -212 q 322 -128 419 -135 l 282 -125 l 315 13 l 360 13 l 335 -90 q 435 -122 406 -92 q 465 -187 465 -153 q 435 -257 465 -226 q 351 -287 406 -287 z "},"Ŝ":{"ha":668,"x_min":58,"x_max":601,"o":"m 326 -8 q 126 48 193 -8 q 58 132 58 104 q 67 151 58 142 q 82 161 75 161 q 114 131 94 161 q 179 72 133 101 q 319 42 225 42 q 492 99 433 42 q 551 267 551 156 q 504 424 551 372 q 387 500 457 475 q 247 549 317 525 q 131 622 178 572 q 83 775 83 672 q 128 927 83 875 q 236 997 172 979 q 357 1015 300 1015 q 464 1004 414 1015 q 545 976 514 993 q 576 943 576 958 q 569 924 576 935 q 551 913 561 913 q 493 939 536 913 q 356 965 450 965 q 206 928 278 965 q 133 779 133 892 q 181 648 133 689 q 297 585 228 607 q 437 535 367 563 q 554 449 507 508 q 601 271 601 389 q 524 57 601 122 q 326 -8 446 -8 m 174 1193 q 156 1201 164 1193 q 149 1219 149 1208 q 161 1239 149 1233 l 306 1317 q 329 1324 317 1324 q 353 1317 342 1324 l 497 1240 q 510 1217 510 1233 q 503 1201 510 1207 q 486 1194 496 1194 q 474 1199 486 1194 l 329 1275 l 185 1197 q 174 1193 172 1193 z "},"Ș":{"ha":668,"x_min":58,"x_max":601,"o":"m 326 -8 q 126 48 193 -8 q 58 132 58 104 q 67 151 58 142 q 82 161 75 161 q 114 131 94 161 q 179 72 133 101 q 319 42 225 42 q 492 99 433 42 q 551 267 551 156 q 504 424 551 372 q 387 500 457 475 q 247 549 317 525 q 131 622 178 572 q 83 775 83 672 q 128 927 83 875 q 236 997 172 979 q 357 1015 300 1015 q 464 1004 414 1015 q 545 976 514 993 q 576 943 576 958 q 569 924 576 935 q 551 913 561 913 q 493 939 536 913 q 356 965 450 965 q 206 928 278 965 q 133 779 133 892 q 181 648 133 689 q 297 585 228 607 q 437 535 367 563 q 554 449 507 508 q 601 271 601 389 q 524 57 601 122 q 326 -8 446 -8 m 283 -196 q 265 -188 272 -196 q 257 -171 257 -181 q 268 -153 257 -158 l 410 -69 q 419 -67 415 -67 q 436 -74 431 -67 q 442 -92 442 -82 q 428 -117 442 -108 l 296 -192 q 283 -196 289 -196 z "},"T":{"ha":632,"x_min":19,"x_max":613,"o":"m 317 0 q 299 6 307 0 q 292 25 292 13 l 292 965 l 44 965 q 26 973 33 965 q 19 990 19 981 q 26 1008 19 1000 q 44 1015 33 1015 l 588 1015 q 606 1008 600 1015 q 613 992 613 1001 q 607 974 613 982 q 588 965 601 965 l 342 965 l 342 25 q 334 6 342 13 q 317 0 326 0 z "},"Ŧ":{"ha":638,"x_min":22,"x_max":615,"o":"m 319 0 q 302 6 310 0 q 294 25 294 13 l 294 482 l 89 482 q 71 490 78 482 q 64 507 64 497 q 71 524 64 517 q 89 532 78 532 l 294 532 l 294 965 l 47 965 q 29 973 36 965 q 22 990 22 981 q 29 1008 22 1000 q 47 1015 36 1015 l 590 1015 q 609 1008 603 1015 q 615 992 615 1001 q 610 974 615 982 q 590 965 604 965 l 344 965 l 344 532 l 549 532 q 567 525 561 532 q 574 508 574 518 q 568 490 574 499 q 549 482 563 482 l 344 482 l 344 25 q 337 6 344 13 q 319 0 329 0 z "},"Ť":{"ha":632,"x_min":19,"x_max":613,"o":"m 317 0 q 299 6 307 0 q 292 25 292 13 l 292 965 l 44 965 q 26 973 33 965 q 19 990 19 981 q 26 1008 19 1000 q 44 1015 33 1015 l 588 1015 q 606 1008 600 1015 q 613 992 613 1001 q 607 974 613 982 q 588 965 601 965 l 342 965 l 342 25 q 334 6 342 13 q 317 0 326 0 m 314 1176 q 285 1192 297 1176 l 146 1332 q 135 1354 135 1346 q 140 1368 135 1361 q 156 1375 146 1375 q 178 1364 168 1375 l 314 1221 l 450 1364 q 472 1375 460 1375 q 488 1368 482 1375 q 493 1354 493 1361 q 482 1332 493 1346 l 343 1192 q 314 1176 328 1176 z "},"Ţ":{"ha":632,"x_min":19,"x_max":613,"o":"m 317 0 q 299 6 307 0 q 292 25 292 13 l 292 965 l 44 965 q 26 973 33 965 q 19 990 19 981 q 26 1008 19 1000 q 44 1015 33 1015 l 588 1015 q 606 1008 600 1015 q 613 992 613 1001 q 607 974 613 982 q 588 965 601 965 l 342 965 l 342 25 q 334 6 342 13 q 317 0 326 0 m 250 -196 q 231 -188 239 -196 q 224 -171 224 -181 q 235 -153 224 -158 l 376 -69 q 386 -67 382 -67 q 403 -74 397 -67 q 408 -92 408 -82 q 394 -117 408 -108 l 263 -192 q 250 -196 256 -196 z "},"U":{"ha":763,"x_min":110,"x_max":653,"o":"m 381 -8 q 188 57 267 -8 q 110 278 110 122 l 110 992 q 117 1010 110 1004 q 135 1015 125 1015 q 152 1010 144 1015 q 160 992 160 1004 l 160 278 q 218 99 160 157 q 381 42 276 42 q 544 99 485 42 q 603 278 603 157 l 603 992 q 610 1010 603 1004 q 628 1015 618 1015 q 645 1010 638 1015 q 653 992 653 1004 l 653 278 q 574 57 653 122 q 381 -8 494 -8 z "},"Ú":{"ha":763,"x_min":110,"x_max":653,"o":"m 381 -8 q 188 57 267 -8 q 110 278 110 122 l 110 992 q 117 1010 110 1004 q 135 1015 125 1015 q 152 1010 144 1015 q 160 992 160 1004 l 160 278 q 218 99 160 157 q 381 42 276 42 q 544 99 485 42 q 603 278 603 157 l 603 992 q 610 1010 603 1004 q 628 1015 618 1015 q 645 1010 638 1015 q 653 992 653 1004 l 653 278 q 574 57 653 122 q 381 -8 494 -8 m 315 1194 q 297 1201 306 1194 q 289 1219 289 1208 q 300 1238 289 1232 l 442 1321 q 451 1324 447 1324 q 467 1316 461 1324 q 474 1299 474 1308 q 460 1274 474 1282 l 328 1199 q 315 1194 322 1194 z "},"Ŭ":{"ha":763,"x_min":110,"x_max":653,"o":"m 381 -8 q 188 57 267 -8 q 110 278 110 122 l 110 992 q 117 1010 110 1004 q 135 1015 125 1015 q 152 1010 144 1015 q 160 992 160 1004 l 160 278 q 218 99 160 157 q 381 42 276 42 q 544 99 485 42 q 603 278 603 157 l 603 992 q 610 1010 603 1004 q 628 1015 618 1015 q 645 1010 638 1015 q 653 992 653 1004 l 653 278 q 574 57 653 122 q 381 -8 494 -8 m 381 1194 q 274 1240 319 1194 q 229 1346 229 1285 l 274 1346 q 305 1264 274 1297 q 381 1231 336 1231 q 455 1264 424 1231 q 486 1346 486 1297 l 532 1346 q 486 1240 532 1285 q 381 1194 440 1194 z "},"Û":{"ha":763,"x_min":110,"x_max":653,"o":"m 381 -8 q 188 57 267 -8 q 110 278 110 122 l 110 992 q 117 1010 110 1004 q 135 1015 125 1015 q 152 1010 144 1015 q 160 992 160 1004 l 160 278 q 218 99 160 157 q 381 42 276 42 q 544 99 485 42 q 603 278 603 157 l 603 992 q 610 1010 603 1004 q 628 1015 618 1015 q 645 1010 638 1015 q 653 992 653 1004 l 653 278 q 574 57 653 122 q 381 -8 494 -8 m 225 1193 q 208 1201 215 1193 q 200 1219 200 1208 q 213 1239 200 1233 l 357 1317 q 381 1324 368 1324 q 404 1317 393 1324 l 549 1240 q 561 1217 561 1233 q 554 1201 561 1207 q 538 1194 547 1194 q 525 1199 538 1194 l 381 1275 l 236 1197 q 225 1193 224 1193 z "},"Ü":{"ha":763,"x_min":110,"x_max":653,"o":"m 381 -8 q 188 57 267 -8 q 110 278 110 122 l 110 992 q 117 1010 110 1004 q 135 1015 125 1015 q 152 1010 144 1015 q 160 992 160 1004 l 160 278 q 218 99 160 157 q 381 42 276 42 q 544 99 485 42 q 603 278 603 157 l 603 992 q 610 1010 603 1004 q 628 1015 618 1015 q 645 1010 638 1015 q 653 992 653 1004 l 653 278 q 574 57 653 122 q 381 -8 494 -8 m 304 1193 q 274 1205 286 1193 q 263 1235 263 1217 q 274 1264 263 1253 q 304 1275 286 1275 q 333 1264 322 1275 q 344 1235 344 1253 q 333 1205 344 1217 q 304 1193 322 1193 m 458 1193 q 428 1205 439 1193 q 417 1235 417 1217 q 428 1264 417 1253 q 458 1275 439 1275 q 488 1264 476 1275 q 499 1235 499 1253 q 488 1205 499 1217 q 458 1193 476 1193 z "},"Ụ":{"ha":763,"x_min":110,"x_max":653,"o":"m 381 -8 q 188 57 267 -8 q 110 278 110 122 l 110 992 q 117 1010 110 1004 q 135 1015 125 1015 q 152 1010 144 1015 q 160 992 160 1004 l 160 278 q 218 99 160 157 q 381 42 276 42 q 544 99 485 42 q 603 278 603 157 l 603 992 q 610 1010 603 1004 q 628 1015 618 1015 q 645 1010 638 1015 q 653 992 653 1004 l 653 278 q 574 57 653 122 q 381 -8 494 -8 z "},"Ù":{"ha":763,"x_min":110,"x_max":653,"o":"m 381 -8 q 188 57 267 -8 q 110 278 110 122 l 110 992 q 117 1010 110 1004 q 135 1015 125 1015 q 152 1010 144 1015 q 160 992 160 1004 l 160 278 q 218 99 160 157 q 381 42 276 42 q 544 99 485 42 q 603 278 603 157 l 603 992 q 610 1010 603 1004 q 628 1015 618 1015 q 645 1010 638 1015 q 653 992 653 1004 l 653 278 q 574 57 653 122 q 381 -8 494 -8 m 447 1194 q 435 1199 442 1194 l 303 1274 q 289 1299 289 1282 q 294 1316 289 1308 q 311 1324 300 1324 q 321 1321 315 1324 l 463 1238 q 474 1219 474 1232 q 466 1201 474 1208 q 447 1194 458 1194 z "},"Ủ":{"ha":763,"x_min":110,"x_max":653,"o":"m 381 -8 q 188 57 267 -8 q 110 278 110 122 l 110 992 q 117 1010 110 1004 q 135 1015 125 1015 q 152 1010 144 1015 q 160 992 160 1004 l 160 278 q 218 99 160 157 q 381 42 276 42 q 544 99 485 42 q 603 278 603 157 l 603 992 q 610 1010 603 1004 q 628 1015 618 1015 q 645 1010 638 1015 q 653 992 653 1004 l 653 278 q 574 57 653 122 q 381 -8 494 -8 m 293 1294 q 336 1324 313 1313 q 386 1335 360 1335 q 458 1305 438 1335 q 479 1249 479 1275 q 465 1208 479 1226 q 431 1168 451 1189 q 424 1157 426 1164 q 419 1139 421 1150 q 399 1122 418 1122 q 378 1142 378 1122 q 381 1165 378 1151 q 396 1193 383 1179 q 424 1222 413 1211 q 435 1249 435 1233 q 388 1290 435 1290 q 355 1282 369 1290 q 329 1265 340 1274 q 290 1263 303 1244 q 284 1277 285 1269 q 293 1294 283 1285 z "},"Ư":{"ha":763,"x_min":110,"x_max":811,"o":"m 381 -8 q 188 57 267 -8 q 110 278 110 122 l 110 992 q 117 1010 110 1004 q 135 1015 125 1015 q 152 1010 144 1015 q 160 992 160 1004 l 160 278 q 218 99 160 157 q 381 42 276 42 q 544 99 485 42 q 603 278 603 157 l 603 992 q 610 1010 603 1004 q 628 1015 618 1015 q 645 1010 638 1015 q 653 992 653 1004 l 653 278 q 574 57 653 122 q 381 -8 494 -8 m 626 971 l 626 1015 q 765 1111 765 1015 q 769 1140 765 1128 q 786 1153 772 1153 q 807 1139 803 1153 q 811 1111 811 1125 q 772 1010 811 1049 q 626 971 732 971 z "},"Ứ":{"ha":763,"x_min":110,"x_max":811,"o":"m 381 -8 q 188 57 267 -8 q 110 278 110 122 l 110 992 q 117 1010 110 1004 q 135 1015 125 1015 q 152 1010 144 1015 q 160 992 160 1004 l 160 278 q 218 99 160 157 q 381 42 276 42 q 544 99 485 42 q 603 278 603 157 l 603 992 q 610 1010 603 1004 q 628 1015 618 1015 q 645 1010 638 1015 q 653 992 653 1004 l 653 278 q 574 57 653 122 q 381 -8 494 -8 m 626 971 l 626 1015 q 765 1111 765 1015 q 769 1140 765 1128 q 786 1153 772 1153 q 807 1139 803 1153 q 811 1111 811 1125 q 772 1010 811 1049 q 626 971 732 971 m 315 1194 q 297 1202 306 1194 q 289 1219 289 1210 q 300 1238 289 1232 l 442 1321 q 451 1324 447 1324 q 467 1316 461 1324 q 474 1299 474 1308 q 460 1274 474 1282 l 328 1199 q 315 1194 322 1194 z "},"Ự":{"ha":763,"x_min":110,"x_max":811,"o":"m 381 -8 q 188 57 267 -8 q 110 278 110 122 l 110 992 q 117 1010 110 1004 q 135 1015 125 1015 q 152 1010 144 1015 q 160 992 160 1004 l 160 278 q 218 99 160 157 q 381 42 276 42 q 544 99 485 42 q 603 278 603 157 l 603 992 q 610 1010 603 1004 q 628 1015 618 1015 q 645 1010 638 1015 q 653 992 653 1004 l 653 278 q 574 57 653 122 q 381 -8 494 -8 m 626 971 l 626 1015 q 765 1111 765 1015 q 769 1140 765 1128 q 786 1153 772 1153 q 807 1139 803 1153 q 811 1111 811 1125 q 772 1010 811 1049 q 626 971 732 971 z "},"Ừ":{"ha":763,"x_min":110,"x_max":811,"o":"m 381 -8 q 188 57 267 -8 q 110 278 110 122 l 110 992 q 117 1010 110 1004 q 135 1015 125 1015 q 152 1010 144 1015 q 160 992 160 1004 l 160 278 q 218 99 160 157 q 381 42 276 42 q 544 99 485 42 q 603 278 603 157 l 603 992 q 610 1010 603 1004 q 628 1015 618 1015 q 645 1010 638 1015 q 653 992 653 1004 l 653 278 q 574 57 653 122 q 381 -8 494 -8 m 626 971 l 626 1015 q 765 1111 765 1015 q 769 1140 765 1128 q 786 1153 772 1153 q 807 1139 803 1153 q 811 1111 811 1125 q 772 1010 811 1049 q 626 971 732 971 m 447 1194 q 435 1199 442 1194 l 303 1274 q 289 1299 289 1282 q 294 1316 289 1308 q 311 1324 300 1324 q 321 1321 315 1324 l 463 1238 q 474 1219 474 1232 q 466 1202 474 1210 q 447 1194 458 1194 z "},"Ử":{"ha":763,"x_min":110,"x_max":811,"o":"m 381 -8 q 188 57 267 -8 q 110 278 110 122 l 110 992 q 117 1010 110 1004 q 135 1015 125 1015 q 152 1010 144 1015 q 160 992 160 1004 l 160 278 q 218 99 160 157 q 381 42 276 42 q 544 99 485 42 q 603 278 603 157 l 603 992 q 610 1010 603 1004 q 628 1015 618 1015 q 645 1010 638 1015 q 653 992 653 1004 l 653 278 q 574 57 653 122 q 381 -8 494 -8 m 626 971 l 626 1015 q 765 1111 765 1015 q 769 1140 765 1128 q 786 1153 772 1153 q 807 1139 803 1153 q 811 1111 811 1125 q 772 1010 811 1049 q 626 971 732 971 m 293 1294 q 336 1324 313 1313 q 386 1335 360 1335 q 458 1305 438 1335 q 479 1249 479 1275 q 465 1208 479 1226 q 431 1168 451 1189 q 424 1157 426 1164 q 419 1139 421 1150 q 399 1122 418 1122 q 378 1142 378 1122 q 381 1165 378 1151 q 396 1193 383 1179 q 424 1222 413 1211 q 435 1249 435 1233 q 388 1290 435 1290 q 355 1282 369 1290 q 329 1265 340 1274 q 290 1263 303 1244 q 284 1277 285 1269 q 293 1294 283 1285 z "},"Ữ":{"ha":763,"x_min":110,"x_max":811,"o":"m 381 -8 q 188 57 267 -8 q 110 278 110 122 l 110 992 q 117 1010 110 1004 q 135 1015 125 1015 q 152 1010 144 1015 q 160 992 160 1004 l 160 278 q 218 99 160 157 q 381 42 276 42 q 544 99 485 42 q 603 278 603 157 l 603 992 q 610 1010 603 1004 q 628 1015 618 1015 q 645 1010 638 1015 q 653 992 653 1004 l 653 278 q 574 57 653 122 q 381 -8 494 -8 m 626 971 l 626 1015 q 765 1111 765 1015 q 769 1140 765 1128 q 786 1153 772 1153 q 807 1139 803 1153 q 811 1111 811 1125 q 772 1010 811 1049 q 626 971 732 971 m 469 1219 q 384 1245 419 1219 q 290 1271 349 1271 q 228 1247 246 1271 q 194 1222 210 1222 q 182 1228 188 1222 q 176 1246 176 1235 q 219 1296 176 1274 q 300 1318 263 1318 q 388 1292 351 1318 q 476 1267 424 1267 q 537 1289 524 1267 q 567 1311 550 1311 q 580 1306 574 1311 q 586 1290 586 1300 q 544 1239 586 1258 q 469 1219 503 1219 z "},"Ű":{"ha":763,"x_min":110,"x_max":653,"o":"m 381 -8 q 188 57 267 -8 q 110 278 110 122 l 110 992 q 117 1010 110 1004 q 135 1015 125 1015 q 152 1010 144 1015 q 160 992 160 1004 l 160 278 q 218 99 160 157 q 381 42 276 42 q 544 99 485 42 q 603 278 603 157 l 603 992 q 610 1010 603 1004 q 628 1015 618 1015 q 645 1010 638 1015 q 653 992 653 1004 l 653 278 q 574 57 653 122 q 381 -8 494 -8 m 283 1194 q 265 1201 272 1194 q 257 1219 257 1208 q 268 1238 257 1232 l 410 1321 q 419 1324 415 1324 q 436 1316 431 1324 q 442 1299 442 1308 q 428 1274 442 1282 l 296 1199 q 283 1194 289 1194 m 488 1194 q 469 1201 478 1194 q 461 1219 461 1208 q 472 1238 461 1232 l 614 1321 q 624 1324 619 1324 q 640 1316 633 1324 q 646 1299 646 1308 q 632 1274 646 1282 l 500 1199 q 488 1194 494 1194 z "},"Ū":{"ha":763,"x_min":110,"x_max":653,"o":"m 381 -8 q 188 57 267 -8 q 110 278 110 122 l 110 992 q 117 1010 110 1004 q 135 1015 125 1015 q 152 1010 144 1015 q 160 992 160 1004 l 160 278 q 218 99 160 157 q 381 42 276 42 q 544 99 485 42 q 603 278 603 157 l 603 992 q 610 1010 603 1004 q 628 1015 618 1015 q 645 1010 638 1015 q 653 992 653 1004 l 653 278 q 574 57 653 122 q 381 -8 494 -8 m 228 1258 q 204 1282 204 1258 q 210 1299 204 1292 q 228 1307 217 1307 l 533 1307 q 551 1299 543 1307 q 558 1282 558 1292 q 551 1265 558 1272 q 533 1258 543 1258 l 228 1258 z "},"Ų":{"ha":763,"x_min":110,"x_max":653,"o":"m 381 -8 q 188 57 267 -8 q 110 278 110 122 l 110 992 q 117 1010 110 1004 q 135 1015 125 1015 q 152 1010 144 1015 q 160 992 160 1004 l 160 278 q 218 99 160 157 q 381 42 276 42 q 544 99 485 42 q 603 278 603 157 l 603 992 q 610 1010 603 1004 q 628 1015 618 1015 q 645 1010 638 1015 q 653 992 653 1004 l 653 278 q 574 57 653 122 q 381 -8 494 -8 m 451 -271 q 372 -252 414 -271 q 331 -178 331 -233 q 360 -68 331 -117 q 435 25 389 -19 l 471 3 q 400 -79 429 -37 q 371 -175 371 -121 q 458 -235 371 -235 q 476 -238 469 -235 q 483 -253 483 -242 q 476 -267 483 -264 q 451 -271 469 -271 z "},"Ů":{"ha":763,"x_min":110,"x_max":653,"o":"m 381 -8 q 188 57 267 -8 q 110 278 110 122 l 110 992 q 117 1010 110 1004 q 135 1015 125 1015 q 152 1010 144 1015 q 160 992 160 1004 l 160 278 q 218 99 160 157 q 381 42 276 42 q 544 99 485 42 q 603 278 603 157 l 603 992 q 610 1010 603 1004 q 628 1015 618 1015 q 645 1010 638 1015 q 653 992 653 1004 l 653 278 q 574 57 653 122 q 381 -8 494 -8 m 381 1171 q 292 1210 328 1171 q 256 1300 256 1249 q 292 1388 256 1349 q 381 1426 328 1426 q 467 1388 429 1426 q 506 1300 506 1350 q 467 1210 506 1249 q 381 1171 429 1171 m 381 1203 q 444 1233 417 1203 q 471 1300 471 1264 q 444 1361 471 1332 q 381 1390 417 1390 q 315 1361 342 1390 q 289 1300 289 1332 q 316 1233 289 1264 q 381 1203 343 1203 z "},"Ũ":{"ha":763,"x_min":110,"x_max":653,"o":"m 381 -8 q 188 57 267 -8 q 110 278 110 122 l 110 992 q 117 1010 110 1004 q 135 1015 125 1015 q 152 1010 144 1015 q 160 992 160 1004 l 160 278 q 218 99 160 157 q 381 42 276 42 q 544 99 485 42 q 603 278 603 157 l 603 992 q 610 1010 603 1004 q 628 1015 618 1015 q 645 1010 638 1015 q 653 992 653 1004 l 653 278 q 574 57 653 122 q 381 -8 494 -8 m 469 1219 q 384 1245 419 1219 q 290 1271 349 1271 q 227 1247 246 1271 q 194 1222 208 1222 q 182 1228 188 1222 q 176 1246 176 1235 q 219 1295 176 1272 q 300 1318 263 1318 q 388 1292 351 1318 q 476 1267 424 1267 q 538 1289 525 1267 q 567 1311 550 1311 q 580 1306 574 1311 q 586 1290 586 1300 q 544 1239 586 1258 q 469 1219 503 1219 z "},"V":{"ha":721,"x_min":33,"x_max":688,"o":"m 361 -8 q 346 -4 353 -8 q 336 11 339 0 l 35 985 q 33 993 33 988 q 41 1009 33 1003 q 58 1015 49 1015 q 83 997 78 1015 l 361 97 l 638 997 q 660 1015 643 1015 q 678 1008 669 1015 q 688 992 688 1001 q 687 988 688 989 q 686 985 686 986 l 388 11 q 377 -3 385 1 q 361 -8 369 -8 z "},"W":{"ha":1026,"x_min":36,"x_max":990,"o":"m 336 -8 q 321 -4 328 -8 q 311 11 314 0 l 38 985 q 36 993 36 989 q 43 1010 36 1004 q 60 1015 50 1015 q 86 997 82 1015 l 336 97 l 483 632 q 495 651 488 647 q 514 656 503 656 q 531 651 525 656 q 542 632 538 647 l 692 97 l 940 997 q 967 1015 944 1015 q 983 1010 976 1015 q 990 993 990 1004 q 989 985 990 989 l 718 11 q 708 -3 715 1 q 692 -8 701 -8 q 676 -4 683 -8 q 667 11 669 0 l 514 556 l 363 11 q 353 -3 360 1 q 336 -8 346 -8 z "},"Ẃ":{"ha":1026,"x_min":36,"x_max":990,"o":"m 336 -8 q 321 -4 328 -8 q 311 11 314 0 l 38 985 q 36 993 36 989 q 43 1010 36 1004 q 60 1015 50 1015 q 86 997 82 1015 l 336 97 l 483 632 q 495 651 488 647 q 514 656 503 656 q 531 651 525 656 q 542 632 538 647 l 692 97 l 940 997 q 967 1015 944 1015 q 983 1010 976 1015 q 990 993 990 1004 q 989 985 990 989 l 718 11 q 708 -3 715 1 q 692 -8 701 -8 q 676 -4 683 -8 q 667 11 669 0 l 514 556 l 363 11 q 353 -3 360 1 q 336 -8 346 -8 m 447 1194 q 428 1201 436 1194 q 421 1219 421 1208 q 432 1238 421 1232 l 574 1321 q 583 1324 579 1324 q 600 1316 594 1324 q 606 1299 606 1308 q 592 1274 606 1282 l 460 1199 q 447 1194 453 1194 z "},"Ŵ":{"ha":1026,"x_min":36,"x_max":990,"o":"m 336 -8 q 321 -4 328 -8 q 311 11 314 0 l 38 985 q 36 993 36 989 q 43 1010 36 1004 q 60 1015 50 1015 q 86 997 82 1015 l 336 97 l 483 632 q 495 651 488 647 q 514 656 503 656 q 531 651 525 656 q 542 632 538 647 l 692 97 l 940 997 q 967 1015 944 1015 q 983 1010 976 1015 q 990 993 990 1004 q 989 985 990 989 l 718 11 q 708 -3 715 1 q 692 -8 701 -8 q 676 -4 683 -8 q 667 11 669 0 l 514 556 l 363 11 q 353 -3 360 1 q 336 -8 346 -8 m 357 1193 q 340 1201 347 1193 q 332 1219 332 1208 q 344 1239 332 1233 l 489 1317 q 513 1324 500 1324 q 536 1317 525 1324 l 681 1240 q 693 1217 693 1233 q 686 1201 693 1207 q 669 1194 679 1194 q 657 1199 669 1194 l 513 1275 l 368 1197 q 357 1193 356 1193 z "},"Ẅ":{"ha":1026,"x_min":36,"x_max":990,"o":"m 336 -8 q 321 -4 328 -8 q 311 11 314 0 l 38 985 q 36 993 36 989 q 43 1010 36 1004 q 60 1015 50 1015 q 86 997 82 1015 l 336 97 l 483 632 q 495 651 488 647 q 514 656 503 656 q 531 651 525 656 q 542 632 538 647 l 692 97 l 940 997 q 967 1015 944 1015 q 983 1010 976 1015 q 990 993 990 1004 q 989 985 990 989 l 718 11 q 708 -3 715 1 q 692 -8 701 -8 q 676 -4 683 -8 q 667 11 669 0 l 514 556 l 363 11 q 353 -3 360 1 q 336 -8 346 -8 m 436 1193 q 406 1205 417 1193 q 394 1235 394 1217 q 406 1264 394 1253 q 436 1275 417 1275 q 465 1264 454 1275 q 476 1235 476 1253 q 465 1205 476 1217 q 436 1193 454 1193 m 590 1193 q 560 1205 572 1193 q 549 1235 549 1217 q 560 1264 549 1253 q 590 1275 572 1275 q 619 1264 608 1275 q 631 1235 631 1253 q 619 1205 631 1217 q 590 1193 608 1193 z "},"Ẁ":{"ha":1026,"x_min":36,"x_max":990,"o":"m 336 -8 q 321 -4 328 -8 q 311 11 314 0 l 38 985 q 36 993 36 989 q 43 1010 36 1004 q 60 1015 50 1015 q 86 997 82 1015 l 336 97 l 483 632 q 495 651 488 647 q 514 656 503 656 q 531 651 525 656 q 542 632 538 647 l 692 97 l 940 997 q 967 1015 944 1015 q 983 1010 976 1015 q 990 993 990 1004 q 989 985 990 989 l 718 11 q 708 -3 715 1 q 692 -8 701 -8 q 676 -4 683 -8 q 667 11 669 0 l 514 556 l 363 11 q 353 -3 360 1 q 336 -8 346 -8 m 579 1194 q 567 1199 572 1194 l 435 1274 q 421 1299 421 1282 q 427 1316 421 1308 q 443 1324 433 1324 q 453 1321 447 1324 l 594 1238 q 606 1219 606 1232 q 597 1201 606 1208 q 579 1194 589 1194 z "},"X":{"ha":621,"x_min":39,"x_max":582,"o":"m 64 0 q 46 7 53 0 q 39 25 39 14 q 43 40 39 32 l 282 508 l 46 972 q 39 996 39 986 q 45 1010 39 1006 q 64 1015 51 1015 q 88 998 78 1015 q 106 965 99 981 l 310 563 l 515 965 q 532 998 522 981 q 557 1015 542 1015 q 576 1010 569 1015 q 582 996 582 1006 q 575 972 582 986 l 338 508 l 578 40 q 582 25 582 32 q 574 7 582 14 q 557 0 567 0 q 533 18 542 0 q 517 50 524 36 l 310 454 l 104 50 q 88 18 97 36 q 64 0 78 0 z "},"Y":{"ha":707,"x_min":31,"x_max":675,"o":"m 353 0 q 335 6 343 0 q 328 25 328 13 l 328 379 q 326 388 328 385 l 39 965 q 31 993 31 982 q 36 1009 31 1003 q 49 1015 42 1015 q 63 1010 56 1015 q 76 992 69 1004 l 353 435 l 631 992 q 658 1015 642 1015 q 670 1009 665 1015 q 675 993 675 1003 q 668 965 675 979 l 379 388 q 378 379 378 385 l 378 25 q 370 6 378 13 q 353 0 363 0 z "},"Ý":{"ha":707,"x_min":31,"x_max":675,"o":"m 353 0 q 335 6 343 0 q 328 25 328 13 l 328 379 q 326 388 328 385 l 39 965 q 31 993 31 982 q 36 1009 31 1003 q 49 1015 42 1015 q 63 1010 56 1015 q 76 992 69 1004 l 353 435 l 631 992 q 658 1015 642 1015 q 670 1009 665 1015 q 675 993 675 1003 q 668 965 675 979 l 379 388 q 378 379 378 385 l 378 25 q 370 6 378 13 q 353 0 363 0 m 286 1194 q 267 1201 275 1194 q 260 1219 260 1208 q 271 1238 260 1232 l 413 1321 q 422 1324 418 1324 q 439 1316 433 1324 q 444 1299 444 1308 q 431 1274 444 1282 l 299 1199 q 286 1194 292 1194 z "},"Ŷ":{"ha":707,"x_min":31,"x_max":675,"o":"m 353 0 q 335 6 343 0 q 328 25 328 13 l 328 379 q 326 388 328 385 l 39 965 q 31 993 31 982 q 36 1009 31 1003 q 49 1015 42 1015 q 63 1010 56 1015 q 76 992 69 1004 l 353 435 l 631 992 q 658 1015 642 1015 q 670 1009 665 1015 q 675 993 675 1003 q 668 965 675 979 l 379 388 q 378 379 378 385 l 378 25 q 370 6 378 13 q 353 0 363 0 m 197 1193 q 180 1201 188 1193 q 172 1219 172 1208 q 185 1239 172 1233 l 329 1317 q 353 1324 340 1324 q 376 1317 365 1324 l 521 1240 q 533 1217 533 1233 q 526 1201 533 1207 q 510 1194 519 1194 q 497 1199 510 1194 l 353 1275 l 208 1197 q 197 1193 196 1193 z "},"Ÿ":{"ha":707,"x_min":31,"x_max":675,"o":"m 353 0 q 335 6 343 0 q 328 25 328 13 l 328 379 q 326 388 328 385 l 39 965 q 31 993 31 982 q 36 1009 31 1003 q 49 1015 42 1015 q 63 1010 56 1015 q 76 992 69 1004 l 353 435 l 631 992 q 658 1015 642 1015 q 670 1009 665 1015 q 675 993 675 1003 q 668 965 675 979 l 379 388 q 378 379 378 385 l 378 25 q 370 6 378 13 q 353 0 363 0 m 276 1193 q 247 1205 258 1193 q 235 1235 235 1217 q 247 1264 235 1253 q 276 1275 258 1275 q 306 1264 294 1275 q 317 1235 317 1253 q 306 1205 317 1217 q 276 1193 294 1193 m 431 1193 q 400 1205 411 1193 q 389 1235 389 1217 q 400 1264 389 1253 q 431 1275 411 1275 q 460 1264 449 1275 q 471 1235 471 1253 q 460 1205 471 1217 q 431 1193 449 1193 z "},"Ỵ":{"ha":707,"x_min":31,"x_max":675,"o":"m 353 0 q 335 6 343 0 q 328 25 328 13 l 328 379 q 326 388 328 385 l 39 965 q 31 993 31 982 q 36 1009 31 1003 q 49 1015 42 1015 q 63 1010 56 1015 q 76 992 69 1004 l 353 435 l 631 992 q 658 1015 642 1015 q 670 1009 665 1015 q 675 993 675 1003 q 668 965 675 979 l 379 388 q 378 379 378 385 l 378 25 q 370 6 378 13 q 353 0 363 0 z "},"Ỳ":{"ha":707,"x_min":31,"x_max":675,"o":"m 353 0 q 335 6 343 0 q 328 25 328 13 l 328 379 q 326 388 328 385 l 39 965 q 31 993 31 982 q 36 1009 31 1003 q 49 1015 42 1015 q 63 1010 56 1015 q 76 992 69 1004 l 353 435 l 631 992 q 658 1015 642 1015 q 670 1009 665 1015 q 675 993 675 1003 q 668 965 675 979 l 379 388 q 378 379 378 385 l 378 25 q 370 6 378 13 q 353 0 363 0 m 419 1194 q 407 1199 414 1194 l 275 1274 q 261 1299 261 1282 q 267 1316 261 1308 q 283 1324 272 1324 q 293 1321 288 1324 l 435 1238 q 446 1219 446 1232 q 438 1201 446 1208 q 419 1194 431 1194 z "},"Ỷ":{"ha":707,"x_min":31,"x_max":675,"o":"m 353 0 q 335 6 343 0 q 328 25 328 13 l 328 379 q 326 388 328 385 l 39 965 q 31 993 31 982 q 36 1009 31 1003 q 49 1015 42 1015 q 63 1010 56 1015 q 76 992 69 1004 l 353 435 l 631 992 q 658 1015 642 1015 q 670 1009 665 1015 q 675 993 675 1003 q 668 965 675 979 l 379 388 q 378 379 378 385 l 378 25 q 370 6 378 13 q 353 0 363 0 m 265 1294 q 308 1324 285 1313 q 358 1335 332 1335 q 431 1305 410 1335 q 451 1249 451 1275 q 438 1208 451 1226 q 403 1168 424 1189 q 396 1157 399 1164 q 392 1139 393 1150 q 371 1122 390 1122 q 350 1142 350 1122 q 353 1165 350 1151 q 368 1193 356 1179 q 396 1222 385 1211 q 407 1249 407 1233 q 360 1290 407 1290 q 327 1282 342 1290 q 301 1265 313 1274 q 263 1263 275 1244 q 256 1277 257 1269 q 265 1294 256 1285 z "},"Ỹ":{"ha":707,"x_min":31,"x_max":675,"o":"m 353 0 q 335 6 343 0 q 328 25 328 13 l 328 379 q 326 388 328 385 l 39 965 q 31 993 31 982 q 36 1009 31 1003 q 49 1015 42 1015 q 63 1010 56 1015 q 76 992 69 1004 l 353 435 l 631 992 q 658 1015 642 1015 q 670 1009 665 1015 q 675 993 675 1003 q 668 965 675 979 l 379 388 q 378 379 378 385 l 378 25 q 370 6 378 13 q 353 0 363 0 m 442 1219 q 356 1245 392 1219 q 263 1271 321 1271 q 200 1247 218 1271 q 167 1222 182 1222 q 154 1228 160 1222 q 149 1246 149 1235 q 192 1296 149 1274 q 272 1318 235 1318 q 360 1292 324 1318 q 449 1267 396 1267 q 509 1289 496 1267 q 539 1311 522 1311 q 552 1306 546 1311 q 558 1290 558 1300 q 517 1239 558 1258 q 442 1219 475 1219 z "},"Z":{"ha":644,"x_min":38,"x_max":608,"o":"m 63 0 q 38 24 38 0 q 42 40 38 32 l 528 965 l 76 965 q 58 973 64 965 q 51 990 51 981 q 58 1008 51 1000 q 76 1015 64 1015 l 569 1015 q 594 994 594 1015 q 588 972 594 983 l 103 50 l 583 50 q 602 42 596 50 q 608 25 608 35 q 602 8 608 15 q 583 0 596 0 l 63 0 z "},"Ź":{"ha":644,"x_min":38,"x_max":608,"o":"m 63 0 q 38 24 38 0 q 42 40 38 32 l 528 965 l 76 965 q 58 973 64 965 q 51 990 51 981 q 58 1008 51 1000 q 76 1015 64 1015 l 569 1015 q 594 994 594 1015 q 588 972 594 983 l 103 50 l 583 50 q 602 42 596 50 q 608 25 608 35 q 602 8 608 15 q 583 0 596 0 l 63 0 m 243 1194 q 225 1201 233 1194 q 217 1219 217 1208 q 228 1238 217 1232 l 369 1321 q 379 1324 375 1324 q 395 1316 389 1324 q 401 1299 401 1308 q 388 1274 401 1282 l 256 1199 q 243 1194 250 1194 z "},"Ž":{"ha":644,"x_min":38,"x_max":608,"o":"m 63 0 q 38 24 38 0 q 42 40 38 32 l 528 965 l 76 965 q 58 973 64 965 q 51 990 51 981 q 58 1008 51 1000 q 76 1015 64 1015 l 569 1015 q 594 994 594 1015 q 588 972 594 983 l 103 50 l 583 50 q 602 42 596 50 q 608 25 608 35 q 602 8 608 15 q 583 0 596 0 l 63 0 m 307 1176 q 278 1192 290 1176 l 139 1332 q 128 1354 128 1346 q 133 1368 128 1361 q 149 1375 139 1375 q 171 1364 161 1375 l 307 1221 l 443 1364 q 465 1375 453 1375 q 481 1368 475 1375 q 486 1354 486 1361 q 475 1332 486 1346 l 336 1192 q 307 1176 321 1176 z "},"Ż":{"ha":644,"x_min":38,"x_max":608,"o":"m 63 0 q 38 24 38 0 q 42 40 38 32 l 528 965 l 76 965 q 58 973 64 965 q 51 990 51 981 q 58 1008 51 1000 q 76 1015 64 1015 l 569 1015 q 594 994 594 1015 q 588 972 594 983 l 103 50 l 583 50 q 602 42 596 50 q 608 25 608 35 q 602 8 608 15 q 583 0 596 0 l 63 0 m 310 1193 q 280 1205 292 1193 q 268 1235 268 1217 q 280 1264 268 1253 q 310 1275 292 1275 q 339 1264 328 1275 q 350 1235 350 1253 q 339 1205 350 1217 q 310 1193 328 1193 z "},"a":{"ha":588,"x_min":49,"x_max":499,"o":"m 242 -8 q 105 36 161 -8 q 49 175 49 81 q 138 322 49 286 q 372 358 228 358 l 450 358 l 450 397 q 408 545 450 475 q 267 615 365 615 q 169 597 203 615 q 122 578 135 578 q 104 588 111 578 q 97 606 97 599 q 151 644 97 625 q 269 664 206 664 q 448 582 397 664 q 499 397 499 500 l 499 25 q 492 7 499 14 q 475 0 486 0 q 457 7 464 0 q 450 25 450 14 l 450 97 q 363 24 414 57 q 242 -8 311 -8 m 240 40 q 384 94 318 40 q 450 193 450 149 l 450 310 l 374 310 q 182 288 267 310 q 97 175 97 265 q 139 73 97 106 q 240 40 181 40 z "},"á":{"ha":588,"x_min":49,"x_max":499,"o":"m 242 -8 q 105 36 161 -8 q 49 175 49 81 q 138 322 49 286 q 372 358 228 358 l 450 358 l 450 397 q 408 545 450 475 q 267 615 365 615 q 169 597 203 615 q 122 578 135 578 q 104 588 111 578 q 97 606 97 599 q 151 644 97 625 q 269 664 206 664 q 448 582 397 664 q 499 397 499 500 l 499 25 q 492 7 499 14 q 475 0 486 0 q 457 7 464 0 q 450 25 450 14 l 450 97 q 363 24 414 57 q 242 -8 311 -8 m 240 40 q 384 94 318 40 q 450 193 450 149 l 450 310 l 374 310 q 182 288 267 310 q 97 175 97 265 q 139 73 97 106 q 240 40 181 40 m 207 835 q 189 842 197 835 q 181 860 181 850 q 192 878 181 872 l 333 961 q 343 964 339 964 q 359 956 353 964 q 365 939 365 949 q 351 914 365 922 l 219 839 q 207 835 214 835 z "},"ă":{"ha":588,"x_min":49,"x_max":499,"o":"m 242 -8 q 105 36 161 -8 q 49 175 49 81 q 138 322 49 286 q 372 358 228 358 l 450 358 l 450 397 q 408 545 450 475 q 267 615 365 615 q 169 597 203 615 q 122 578 135 578 q 104 588 111 578 q 97 606 97 599 q 151 644 97 625 q 269 664 206 664 q 448 582 397 664 q 499 397 499 500 l 499 25 q 492 7 499 14 q 475 0 486 0 q 457 7 464 0 q 450 25 450 14 l 450 97 q 363 24 414 57 q 242 -8 311 -8 m 240 40 q 384 94 318 40 q 450 193 450 149 l 450 310 l 374 310 q 182 288 267 310 q 97 175 97 265 q 139 73 97 106 q 240 40 181 40 m 294 835 q 197 872 240 835 q 144 963 154 910 q 165 986 142 986 l 168 986 q 189 967 186 986 q 225 899 196 926 q 294 871 254 871 q 363 899 333 871 q 399 967 393 926 q 419 986 401 986 l 422 986 q 444 963 447 986 q 391 872 435 910 q 294 835 347 835 z "},"ắ":{"ha":588,"x_min":49,"x_max":499,"o":"m 242 -8 q 105 36 161 -8 q 49 175 49 81 q 138 322 49 286 q 372 358 228 358 l 450 358 l 450 397 q 408 545 450 475 q 267 615 365 615 q 169 597 203 615 q 122 578 135 578 q 104 588 111 578 q 97 606 97 599 q 151 644 97 625 q 269 664 206 664 q 448 582 397 664 q 499 397 499 500 l 499 25 q 492 7 499 14 q 475 0 486 0 q 457 7 464 0 q 450 25 450 14 l 450 97 q 363 24 414 57 q 242 -8 311 -8 m 240 40 q 384 94 318 40 q 450 193 450 149 l 450 310 l 374 310 q 182 288 267 310 q 97 175 97 265 q 139 73 97 106 q 240 40 181 40 z "},"ặ":{"ha":588,"x_min":49,"x_max":499,"o":"m 242 -8 q 105 36 161 -8 q 49 175 49 81 q 138 322 49 286 q 372 358 228 358 l 450 358 l 450 397 q 408 545 450 475 q 267 615 365 615 q 169 597 203 615 q 122 578 135 578 q 104 588 111 578 q 97 606 97 599 q 151 644 97 625 q 269 664 206 664 q 448 582 397 664 q 499 397 499 500 l 499 25 q 492 7 499 14 q 475 0 486 0 q 457 7 464 0 q 450 25 450 14 l 450 97 q 363 24 414 57 q 242 -8 311 -8 m 240 40 q 384 94 318 40 q 450 193 450 149 l 450 310 l 374 310 q 182 288 267 310 q 97 175 97 265 q 139 73 97 106 q 240 40 181 40 m 294 835 q 197 872 240 835 q 144 963 154 910 q 165 986 142 986 l 168 986 q 189 967 186 986 q 225 899 196 926 q 294 871 254 871 q 363 899 333 871 q 399 967 393 926 q 419 986 401 986 l 422 986 q 444 963 447 986 q 391 872 435 910 q 294 835 347 835 z "},"ằ":{"ha":588,"x_min":49,"x_max":499,"o":"m 242 -8 q 105 36 161 -8 q 49 175 49 81 q 138 322 49 286 q 372 358 228 358 l 450 358 l 450 397 q 408 545 450 475 q 267 615 365 615 q 169 597 203 615 q 122 578 135 578 q 104 588 111 578 q 97 606 97 599 q 151 644 97 625 q 269 664 206 664 q 448 582 397 664 q 499 397 499 500 l 499 25 q 492 7 499 14 q 475 0 486 0 q 457 7 464 0 q 450 25 450 14 l 450 97 q 363 24 414 57 q 242 -8 311 -8 m 240 40 q 384 94 318 40 q 450 193 450 149 l 450 310 l 374 310 q 182 288 267 310 q 97 175 97 265 q 139 73 97 106 q 240 40 181 40 z "},"ẳ":{"ha":588,"x_min":49,"x_max":499,"o":"m 242 -8 q 105 36 161 -8 q 49 175 49 81 q 138 322 49 286 q 372 358 228 358 l 450 358 l 450 397 q 408 545 450 475 q 267 615 365 615 q 169 597 203 615 q 122 578 135 578 q 104 588 111 578 q 97 606 97 599 q 151 644 97 625 q 269 664 206 664 q 448 582 397 664 q 499 397 499 500 l 499 25 q 492 7 499 14 q 475 0 486 0 q 457 7 464 0 q 450 25 450 14 l 450 97 q 363 24 414 57 q 242 -8 311 -8 m 240 40 q 384 94 318 40 q 450 193 450 149 l 450 310 l 374 310 q 182 288 267 310 q 97 175 97 265 q 139 73 97 106 q 240 40 181 40 z "},"ẵ":{"ha":588,"x_min":49,"x_max":499,"o":"m 242 -8 q 105 36 161 -8 q 49 175 49 81 q 138 322 49 286 q 372 358 228 358 l 450 358 l 450 397 q 408 545 450 475 q 267 615 365 615 q 169 597 203 615 q 122 578 135 578 q 104 588 111 578 q 97 606 97 599 q 151 644 97 625 q 269 664 206 664 q 448 582 397 664 q 499 397 499 500 l 499 25 q 492 7 499 14 q 475 0 486 0 q 457 7 464 0 q 450 25 450 14 l 450 97 q 363 24 414 57 q 242 -8 311 -8 m 240 40 q 384 94 318 40 q 450 193 450 149 l 450 310 l 374 310 q 182 288 267 310 q 97 175 97 265 q 139 73 97 106 q 240 40 181 40 z "},"â":{"ha":588,"x_min":49,"x_max":499,"o":"m 242 -8 q 105 36 161 -8 q 49 175 49 81 q 138 322 49 286 q 372 358 228 358 l 450 358 l 450 397 q 408 545 450 475 q 267 615 365 615 q 169 597 203 615 q 122 578 135 578 q 104 588 111 578 q 97 606 97 599 q 151 644 97 625 q 269 664 206 664 q 448 582 397 664 q 499 397 499 500 l 499 25 q 492 7 499 14 q 475 0 486 0 q 457 7 464 0 q 450 25 450 14 l 450 97 q 363 24 414 57 q 242 -8 311 -8 m 240 40 q 384 94 318 40 q 450 193 450 149 l 450 310 l 374 310 q 182 288 267 310 q 97 175 97 265 q 139 73 97 106 q 240 40 181 40 m 124 833 q 106 841 114 833 q 99 860 99 849 q 111 879 99 872 l 256 957 q 279 964 267 964 q 303 957 292 964 l 447 881 q 460 857 460 875 q 453 841 460 847 q 436 835 446 835 q 424 839 436 835 l 279 915 l 135 838 q 124 833 122 833 z "},"ấ":{"ha":588,"x_min":49,"x_max":499,"o":"m 242 -8 q 105 36 161 -8 q 49 175 49 81 q 138 322 49 286 q 372 358 228 358 l 450 358 l 450 397 q 408 545 450 475 q 267 615 365 615 q 169 597 203 615 q 122 578 135 578 q 104 588 111 578 q 97 606 97 599 q 151 644 97 625 q 269 664 206 664 q 448 582 397 664 q 499 397 499 500 l 499 25 q 492 7 499 14 q 475 0 486 0 q 457 7 464 0 q 450 25 450 14 l 450 97 q 363 24 414 57 q 242 -8 311 -8 m 240 40 q 384 94 318 40 q 450 193 450 149 l 450 310 l 374 310 q 182 288 267 310 q 97 175 97 265 q 139 73 97 106 q 240 40 181 40 z "},"ậ":{"ha":588,"x_min":49,"x_max":499,"o":"m 242 -8 q 105 36 161 -8 q 49 175 49 81 q 138 322 49 286 q 372 358 228 358 l 450 358 l 450 397 q 408 545 450 475 q 267 615 365 615 q 169 597 203 615 q 122 578 135 578 q 104 588 111 578 q 97 606 97 599 q 151 644 97 625 q 269 664 206 664 q 448 582 397 664 q 499 397 499 500 l 499 25 q 492 7 499 14 q 475 0 486 0 q 457 7 464 0 q 450 25 450 14 l 450 97 q 363 24 414 57 q 242 -8 311 -8 m 240 40 q 384 94 318 40 q 450 193 450 149 l 450 310 l 374 310 q 182 288 267 310 q 97 175 97 265 q 139 73 97 106 q 240 40 181 40 m 139 833 q 122 841 129 833 q 114 860 114 849 q 126 879 114 872 l 271 957 q 294 964 282 964 q 318 957 307 964 l 463 881 q 475 857 475 875 q 468 841 475 847 q 451 835 461 835 q 439 839 451 835 l 294 915 l 150 838 q 139 833 138 833 z "},"ầ":{"ha":588,"x_min":49,"x_max":499,"o":"m 242 -8 q 105 36 161 -8 q 49 175 49 81 q 138 322 49 286 q 372 358 228 358 l 450 358 l 450 397 q 408 545 450 475 q 267 615 365 615 q 169 597 203 615 q 122 578 135 578 q 104 588 111 578 q 97 606 97 599 q 151 644 97 625 q 269 664 206 664 q 448 582 397 664 q 499 397 499 500 l 499 25 q 492 7 499 14 q 475 0 486 0 q 457 7 464 0 q 450 25 450 14 l 450 97 q 363 24 414 57 q 242 -8 311 -8 m 240 40 q 384 94 318 40 q 450 193 450 149 l 450 310 l 374 310 q 182 288 267 310 q 97 175 97 265 q 139 73 97 106 q 240 40 181 40 z "},"ẩ":{"ha":588,"x_min":49,"x_max":528,"o":"m 242 -8 q 105 36 161 -8 q 49 175 49 81 q 138 322 49 286 q 372 358 228 358 l 450 358 l 450 397 q 408 545 450 475 q 267 615 365 615 q 169 597 203 615 q 122 578 135 578 q 104 588 111 578 q 97 606 97 599 q 151 644 97 625 q 269 664 206 664 q 448 582 397 664 q 499 397 499 500 l 499 25 q 492 7 499 14 q 475 0 486 0 q 457 7 464 0 q 450 25 450 14 l 450 97 q 363 24 414 57 q 242 -8 311 -8 m 240 40 q 384 94 318 40 q 450 193 450 149 l 450 310 l 374 310 q 182 288 267 310 q 97 175 97 265 q 139 73 97 106 q 240 40 181 40 z "},"ẫ":{"ha":588,"x_min":49,"x_max":499,"o":"m 242 -8 q 105 36 161 -8 q 49 175 49 81 q 138 322 49 286 q 372 358 228 358 l 450 358 l 450 397 q 408 545 450 475 q 267 615 365 615 q 169 597 203 615 q 122 578 135 578 q 104 588 111 578 q 97 606 97 599 q 151 644 97 625 q 269 664 206 664 q 448 582 397 664 q 499 397 499 500 l 499 25 q 492 7 499 14 q 475 0 486 0 q 457 7 464 0 q 450 25 450 14 l 450 97 q 363 24 414 57 q 242 -8 311 -8 m 240 40 q 384 94 318 40 q 450 193 450 149 l 450 310 l 374 310 q 182 288 267 310 q 97 175 97 265 q 139 73 97 106 q 240 40 181 40 z "},"ä":{"ha":588,"x_min":49,"x_max":499,"o":"m 242 -8 q 105 36 161 -8 q 49 175 49 81 q 138 322 49 286 q 372 358 228 358 l 450 358 l 450 397 q 408 545 450 475 q 267 615 365 615 q 169 597 203 615 q 122 578 135 578 q 104 588 111 578 q 97 606 97 599 q 151 644 97 625 q 269 664 206 664 q 448 582 397 664 q 499 397 499 500 l 499 25 q 492 7 499 14 q 475 0 486 0 q 457 7 464 0 q 450 25 450 14 l 450 97 q 363 24 414 57 q 242 -8 311 -8 m 240 40 q 384 94 318 40 q 450 193 450 149 l 450 310 l 374 310 q 182 288 267 310 q 97 175 97 265 q 139 73 97 106 q 240 40 181 40 m 197 833 q 167 845 178 833 q 156 875 156 857 q 167 904 156 893 q 197 915 178 915 q 226 904 215 915 q 238 875 238 893 q 226 845 238 857 q 197 833 215 833 m 351 833 q 322 845 333 833 q 310 875 310 857 q 322 904 310 893 q 351 915 333 915 q 381 904 369 915 q 392 875 392 893 q 381 845 392 857 q 351 833 369 833 z "},"ạ":{"ha":588,"x_min":49,"x_max":499,"o":"m 242 -8 q 105 36 161 -8 q 49 175 49 81 q 138 322 49 286 q 372 358 228 358 l 450 358 l 450 397 q 408 545 450 475 q 267 615 365 615 q 169 597 203 615 q 122 578 135 578 q 104 588 111 578 q 97 606 97 599 q 151 644 97 625 q 269 664 206 664 q 448 582 397 664 q 499 397 499 500 l 499 25 q 492 7 499 14 q 475 0 486 0 q 457 7 464 0 q 450 25 450 14 l 450 97 q 363 24 414 57 q 242 -8 311 -8 m 240 40 q 384 94 318 40 q 450 193 450 149 l 450 310 l 374 310 q 182 288 267 310 q 97 175 97 265 q 139 73 97 106 q 240 40 181 40 z "},"à":{"ha":588,"x_min":49,"x_max":499,"o":"m 242 -8 q 105 36 161 -8 q 49 175 49 81 q 138 322 49 286 q 372 358 228 358 l 450 358 l 450 397 q 408 545 450 475 q 267 615 365 615 q 169 597 203 615 q 122 578 135 578 q 104 588 111 578 q 97 606 97 599 q 151 644 97 625 q 269 664 206 664 q 448 582 397 664 q 499 397 499 500 l 499 25 q 492 7 499 14 q 475 0 486 0 q 457 7 464 0 q 450 25 450 14 l 450 97 q 363 24 414 57 q 242 -8 311 -8 m 240 40 q 384 94 318 40 q 450 193 450 149 l 450 310 l 374 310 q 182 288 267 310 q 97 175 97 265 q 139 73 97 106 q 240 40 181 40 m 339 835 q 326 839 333 835 l 194 914 q 181 939 181 922 q 186 956 181 949 q 203 964 192 964 q 213 961 207 964 l 354 878 q 365 860 365 872 q 358 842 365 850 q 339 835 350 835 z "},"ả":{"ha":588,"x_min":49,"x_max":499,"o":"m 242 -8 q 105 36 161 -8 q 49 175 49 81 q 138 322 49 286 q 372 358 228 358 l 450 358 l 450 397 q 408 545 450 475 q 267 615 365 615 q 169 597 203 615 q 122 578 135 578 q 104 588 111 578 q 97 606 97 599 q 151 644 97 625 q 269 664 206 664 q 448 582 397 664 q 499 397 499 500 l 499 25 q 492 7 499 14 q 475 0 486 0 q 457 7 464 0 q 450 25 450 14 l 450 97 q 363 24 414 57 q 242 -8 311 -8 m 240 40 q 384 94 318 40 q 450 193 450 149 l 450 310 l 374 310 q 182 288 267 310 q 97 175 97 265 q 139 73 97 106 q 240 40 181 40 m 206 935 q 249 964 225 953 q 299 975 272 975 q 371 945 350 975 q 392 889 392 915 q 378 848 392 867 q 343 808 364 829 q 336 797 339 804 q 332 779 333 790 q 311 763 331 763 q 290 782 290 763 q 293 806 290 792 q 308 833 296 819 q 336 863 325 851 q 347 889 347 874 q 300 931 347 931 q 267 922 282 931 q 242 906 253 914 q 203 903 215 885 q 197 917 197 910 q 206 935 196 925 z "},"ā":{"ha":588,"x_min":49,"x_max":499,"o":"m 242 -8 q 105 36 161 -8 q 49 175 49 81 q 138 322 49 286 q 372 358 228 358 l 450 358 l 450 397 q 408 545 450 475 q 267 615 365 615 q 169 597 203 615 q 122 578 135 578 q 104 588 111 578 q 97 606 97 599 q 151 644 97 625 q 269 664 206 664 q 448 582 397 664 q 499 397 499 500 l 499 25 q 492 7 499 14 q 475 0 486 0 q 457 7 464 0 q 450 25 450 14 l 450 97 q 363 24 414 57 q 242 -8 311 -8 m 240 40 q 384 94 318 40 q 450 193 450 149 l 450 310 l 374 310 q 182 288 267 310 q 97 175 97 265 q 139 73 97 106 q 240 40 181 40 m 133 899 q 110 922 110 899 q 116 940 110 933 q 133 947 122 947 l 439 947 q 456 940 449 947 q 464 922 464 933 q 456 905 464 911 q 439 899 449 899 l 133 899 z "},"ą":{"ha":588,"x_min":49,"x_max":574,"o":"m 242 -8 q 105 36 161 -8 q 49 175 49 81 q 138 322 49 286 q 372 358 228 358 l 450 358 l 450 397 q 408 545 450 475 q 267 615 365 615 q 169 597 203 615 q 122 578 135 578 q 104 588 111 578 q 97 606 97 599 q 151 644 97 625 q 269 664 206 664 q 448 582 397 664 q 499 397 499 500 l 499 25 q 492 7 499 14 q 475 0 486 0 q 457 7 464 0 q 450 25 450 14 l 450 97 q 363 24 414 57 q 242 -8 311 -8 m 240 40 q 384 94 318 40 q 450 193 450 149 l 450 310 l 374 310 q 182 288 267 310 q 97 175 97 265 q 139 73 97 106 q 240 40 181 40 m 542 -271 q 463 -252 504 -271 q 421 -178 421 -233 q 450 -68 421 -117 q 525 25 479 -19 l 561 3 q 490 -79 519 -37 q 461 -175 461 -121 q 549 -235 461 -235 q 567 -238 560 -235 q 574 -253 574 -242 q 567 -267 574 -264 q 542 -271 560 -271 z "},"å":{"ha":588,"x_min":49,"x_max":499,"o":"m 242 -8 q 105 36 161 -8 q 49 175 49 81 q 138 322 49 286 q 372 358 228 358 l 450 358 l 450 397 q 408 545 450 475 q 267 615 365 615 q 169 597 203 615 q 122 578 135 578 q 104 588 111 578 q 97 606 97 599 q 151 644 97 625 q 269 664 206 664 q 448 582 397 664 q 499 397 499 500 l 499 25 q 492 7 499 14 q 475 0 486 0 q 457 7 464 0 q 450 25 450 14 l 450 97 q 363 24 414 57 q 242 -8 311 -8 m 240 40 q 384 94 318 40 q 450 193 450 149 l 450 310 l 374 310 q 182 288 267 310 q 97 175 97 265 q 139 73 97 106 q 240 40 181 40 m 274 811 q 185 850 222 811 q 149 940 149 889 q 185 1028 149 989 q 274 1067 221 1067 q 360 1028 322 1067 q 399 940 399 990 q 360 850 399 889 q 274 811 322 811 m 274 843 q 337 874 310 843 q 364 940 364 904 q 337 1001 364 972 q 274 1031 310 1031 q 208 1001 235 1031 q 182 940 182 972 q 209 874 182 904 q 274 843 236 843 z "},"ã":{"ha":588,"x_min":49,"x_max":499,"o":"m 242 -8 q 105 36 161 -8 q 49 175 49 81 q 138 322 49 286 q 372 358 228 358 l 450 358 l 450 397 q 408 545 450 475 q 267 615 365 615 q 169 597 203 615 q 122 578 135 578 q 104 588 111 578 q 97 606 97 599 q 151 644 97 625 q 269 664 206 664 q 448 582 397 664 q 499 397 499 500 l 499 25 q 492 7 499 14 q 475 0 486 0 q 457 7 464 0 q 450 25 450 14 l 450 97 q 363 24 414 57 q 242 -8 311 -8 m 240 40 q 384 94 318 40 q 450 193 450 149 l 450 310 l 374 310 q 182 288 267 310 q 97 175 97 265 q 139 73 97 106 q 240 40 181 40 m 361 860 q 276 885 311 860 q 182 911 240 911 q 119 887 138 911 q 86 863 100 863 q 74 869 79 863 q 68 886 68 875 q 111 936 68 914 q 192 958 154 958 q 279 933 243 958 q 368 907 315 907 q 429 929 417 907 q 458 951 442 951 q 472 946 465 951 q 478 931 478 940 q 436 879 478 899 q 361 860 394 860 z "},"æ":{"ha":999,"x_min":49,"x_max":943,"o":"m 238 -8 q 105 36 161 -8 q 49 174 49 81 q 137 322 49 285 q 369 358 225 358 l 447 358 l 447 399 q 405 547 447 478 q 260 617 363 617 q 165 598 200 617 q 118 579 131 579 q 101 590 108 579 q 94 607 94 600 q 149 646 94 626 q 267 665 203 665 q 403 626 353 665 q 476 525 454 586 q 565 624 507 585 q 696 664 622 664 q 805 638 747 664 q 903 553 863 613 q 943 394 943 494 q 922 326 943 342 q 828 310 900 310 l 501 310 l 501 244 q 567 95 501 150 q 731 40 633 40 q 847 69 815 40 q 897 97 878 97 q 913 90 904 97 q 922 72 922 83 q 852 17 922 42 q 714 -8 782 -8 q 572 29 638 -8 q 474 136 506 67 q 364 24 431 56 q 238 -8 297 -8 m 239 40 q 386 95 325 40 q 447 193 447 150 l 447 310 l 371 310 q 179 288 261 310 q 97 172 97 265 q 138 74 97 107 q 239 40 179 40 m 501 358 l 811 358 q 881 369 867 358 q 894 407 894 379 q 840 550 894 485 q 697 615 786 615 q 557 556 613 615 q 501 419 501 497 l 501 358 z "},"ǽ":{"ha":999,"x_min":49,"x_max":943,"o":"m 238 -8 q 105 36 161 -8 q 49 174 49 81 q 137 322 49 285 q 369 358 225 358 l 447 358 l 447 399 q 405 547 447 478 q 260 617 363 617 q 165 598 200 617 q 118 579 131 579 q 101 590 108 579 q 94 607 94 600 q 149 646 94 626 q 267 665 203 665 q 403 626 353 665 q 476 525 454 586 q 565 624 507 585 q 696 664 622 664 q 805 638 747 664 q 903 553 863 613 q 943 394 943 494 q 922 326 943 342 q 828 310 900 310 l 501 310 l 501 244 q 567 95 501 150 q 731 40 633 40 q 847 69 815 40 q 897 97 878 97 q 913 90 904 97 q 922 72 922 83 q 852 17 922 42 q 714 -8 782 -8 q 572 29 638 -8 q 474 136 506 67 q 364 24 431 56 q 238 -8 297 -8 m 239 40 q 386 95 325 40 q 447 193 447 150 l 447 310 l 371 310 q 179 288 261 310 q 97 172 97 265 q 138 74 97 107 q 239 40 179 40 m 501 358 l 811 358 q 881 369 867 358 q 894 407 894 379 q 840 550 894 485 q 697 615 786 615 q 557 556 613 615 q 501 419 501 497 l 501 358 m 433 835 q 415 842 422 835 q 407 860 407 850 q 418 878 407 872 l 560 961 q 569 964 565 964 q 586 956 581 964 q 592 939 592 949 q 578 914 592 922 l 446 839 q 433 835 439 835 z "},"b":{"ha":650,"x_min":96,"x_max":581,"o":"m 333 -8 q 218 23 269 -8 q 144 97 167 54 l 144 25 q 138 8 144 15 q 119 0 131 0 q 102 8 108 0 q 96 25 96 15 l 96 1043 q 102 1060 96 1053 q 119 1067 108 1067 q 138 1060 131 1067 q 144 1043 144 1053 l 144 558 q 214 631 167 599 q 331 664 261 664 q 507 590 433 664 q 581 414 581 517 l 581 244 q 506 69 581 146 q 333 -8 432 -8 m 336 40 q 474 103 415 40 q 532 244 532 167 l 532 414 q 474 553 532 490 q 335 615 417 615 q 204 562 264 615 q 144 414 144 508 l 144 193 q 199 99 144 158 q 336 40 254 40 z "},"c":{"ha":558,"x_min":72,"x_max":517,"o":"m 326 -8 q 135 64 197 -8 q 72 244 72 136 l 72 411 q 134 590 72 517 q 326 664 196 664 q 459 634 410 664 q 508 582 508 604 q 501 565 508 572 q 483 558 493 558 q 437 587 465 558 q 326 615 408 615 q 174 560 226 615 q 121 411 121 506 l 121 244 q 173 95 121 150 q 328 40 225 40 q 445 69 415 40 q 493 97 475 97 q 510 90 503 97 q 517 74 517 83 q 466 22 517 51 q 326 -8 415 -8 z "},"ć":{"ha":558,"x_min":72,"x_max":517,"o":"m 326 -8 q 135 64 197 -8 q 72 244 72 136 l 72 411 q 134 590 72 517 q 326 664 196 664 q 459 634 410 664 q 508 582 508 604 q 501 565 508 572 q 483 558 493 558 q 437 587 465 558 q 326 615 408 615 q 174 560 226 615 q 121 411 121 506 l 121 244 q 173 95 121 150 q 328 40 225 40 q 445 69 415 40 q 493 97 475 97 q 510 90 503 97 q 517 74 517 83 q 466 22 517 51 q 326 -8 415 -8 m 228 835 q 209 842 217 835 q 201 860 201 850 q 213 878 201 872 l 354 961 q 364 964 360 964 q 381 956 375 964 q 386 939 386 949 q 372 914 386 922 l 240 839 q 228 835 233 835 z "},"č":{"ha":558,"x_min":72,"x_max":517,"o":"m 326 -8 q 135 64 197 -8 q 72 244 72 136 l 72 411 q 134 590 72 517 q 326 664 196 664 q 459 634 410 664 q 508 582 508 604 q 501 565 508 572 q 483 558 493 558 q 437 587 465 558 q 326 615 408 615 q 174 560 226 615 q 121 411 121 506 l 121 244 q 173 95 121 150 q 328 40 225 40 q 445 69 415 40 q 493 97 475 97 q 510 90 503 97 q 517 74 517 83 q 466 22 517 51 q 326 -8 415 -8 m 293 817 q 264 832 276 817 l 125 972 q 114 994 114 986 q 119 1008 114 1001 q 135 1015 125 1015 q 157 1004 147 1015 l 293 861 l 429 1004 q 451 1015 439 1015 q 467 1008 461 1015 q 472 994 472 1001 q 461 972 472 986 l 322 832 q 293 817 307 817 z "},"ç":{"ha":558,"x_min":72,"x_max":517,"o":"m 343 -287 q 280 -280 319 -287 q 240 -254 240 -272 q 245 -238 240 -247 q 257 -229 250 -229 q 282 -238 264 -229 q 335 -247 300 -247 q 394 -230 378 -247 q 411 -190 411 -212 q 314 -128 411 -135 l 274 -125 l 301 -7 q 128 71 185 0 q 72 244 72 142 l 72 411 q 134 590 72 517 q 326 664 196 664 q 459 634 410 664 q 508 582 508 604 q 501 565 508 572 q 483 558 493 558 q 437 587 465 558 q 326 615 408 615 q 174 560 226 615 q 121 411 121 506 l 121 244 q 173 95 121 150 q 328 40 225 40 q 445 69 415 40 q 493 97 475 97 q 510 90 503 97 q 517 74 517 83 q 472 25 517 53 q 346 -7 426 -3 l 326 -90 q 427 -122 397 -92 q 457 -187 457 -153 q 427 -257 457 -226 q 343 -287 397 -287 z "},"ĉ":{"ha":558,"x_min":72,"x_max":517,"o":"m 326 -8 q 135 64 197 -8 q 72 244 72 136 l 72 411 q 134 590 72 517 q 326 664 196 664 q 459 634 410 664 q 508 582 508 604 q 501 565 508 572 q 483 558 493 558 q 437 587 465 558 q 326 615 408 615 q 174 560 226 615 q 121 411 121 506 l 121 244 q 173 95 121 150 q 328 40 225 40 q 445 69 415 40 q 493 97 475 97 q 510 90 503 97 q 517 74 517 83 q 466 22 517 51 q 326 -8 415 -8 m 139 833 q 122 841 129 833 q 114 860 114 849 q 126 879 114 872 l 271 957 q 294 964 282 964 q 318 957 307 964 l 463 881 q 475 857 475 875 q 468 841 475 847 q 451 835 461 835 q 439 839 451 835 l 294 915 l 150 838 q 139 833 138 833 z "},"ċ":{"ha":558,"x_min":72,"x_max":517,"o":"m 326 -8 q 135 64 197 -8 q 72 244 72 136 l 72 411 q 134 590 72 517 q 326 664 196 664 q 459 634 410 664 q 508 582 508 604 q 501 565 508 572 q 483 558 493 558 q 437 587 465 558 q 326 615 408 615 q 174 560 226 615 q 121 411 121 506 l 121 244 q 173 95 121 150 q 328 40 225 40 q 445 69 415 40 q 493 97 475 97 q 510 90 503 97 q 517 74 517 83 q 466 22 517 51 q 326 -8 415 -8 m 294 833 q 264 845 275 833 q 253 875 253 857 q 264 904 253 893 q 294 915 275 915 q 324 904 313 915 q 335 875 335 893 q 324 845 335 857 q 294 833 313 833 z "},"d":{"ha":650,"x_min":69,"x_max":554,"o":"m 317 -8 q 144 69 218 -8 q 69 244 69 146 l 69 414 q 143 590 69 517 q 319 664 217 664 q 436 631 389 664 q 506 558 483 599 l 506 1043 q 513 1060 506 1053 q 531 1067 519 1067 q 548 1060 542 1067 q 554 1043 554 1053 l 554 25 q 548 8 554 15 q 531 0 542 0 q 513 8 519 0 q 506 25 506 15 l 506 97 q 432 23 483 54 q 317 -8 381 -8 m 314 40 q 451 99 396 40 q 506 193 506 158 l 506 414 q 446 562 506 508 q 315 615 386 615 q 176 553 233 615 q 118 414 118 490 l 118 244 q 176 103 118 167 q 314 40 235 40 z "},"ð":{"ha":650,"x_min":69,"x_max":563,"o":"m 315 -8 q 143 68 217 -8 q 69 244 69 144 l 69 414 q 142 589 69 514 q 315 664 214 664 q 435 633 375 664 q 514 544 496 601 q 472 744 503 658 q 399 886 442 829 l 263 808 q 250 804 256 804 q 233 813 240 804 q 226 831 226 821 q 239 850 226 844 l 367 924 q 272 993 322 971 q 176 1015 222 1015 q 164 1022 168 1015 q 160 1039 160 1029 q 167 1058 160 1050 q 193 1067 175 1067 q 300 1038 242 1067 q 411 949 358 1008 l 522 1013 q 532 1015 528 1015 q 549 1008 542 1015 q 557 992 557 1001 q 544 971 557 978 l 442 911 q 528 740 494 842 q 563 507 563 639 l 563 244 q 488 69 563 146 q 315 -8 414 -8 m 315 40 q 456 103 397 40 q 514 244 514 167 l 514 421 q 456 555 514 494 q 315 615 397 615 q 175 553 232 615 q 118 414 118 490 l 118 244 q 176 103 118 167 q 315 40 233 40 z "},"ď":{"ha":650,"x_min":69,"x_max":740,"o":"m 317 -8 q 144 69 218 -8 q 69 244 69 146 l 69 414 q 143 590 69 517 q 319 664 217 664 q 436 631 389 664 q 506 558 483 599 l 506 1043 q 513 1060 506 1053 q 531 1067 519 1067 q 548 1060 542 1067 q 554 1043 554 1053 l 554 25 q 548 8 554 15 q 531 0 542 0 q 513 8 519 0 q 506 25 506 15 l 506 97 q 432 23 483 54 q 317 -8 381 -8 m 314 40 q 451 99 396 40 q 506 193 506 158 l 506 414 q 446 562 506 508 q 315 615 386 615 q 176 553 233 615 q 118 414 118 490 l 118 244 q 176 103 118 167 q 314 40 235 40 m 675 831 q 660 836 667 831 q 653 851 653 842 q 654 860 653 857 l 679 931 q 642 979 642 940 q 656 1015 642 1000 q 692 1029 669 1029 q 726 1015 711 1029 q 740 979 740 1000 q 733 944 740 968 q 716 894 726 921 q 694 844 706 867 q 675 831 688 831 z "},"đ":{"ha":650,"x_min":69,"x_max":658,"o":"m 317 -8 q 144 69 218 -8 q 69 244 69 146 l 69 414 q 143 590 69 517 q 319 664 217 664 q 436 631 389 664 q 506 558 483 599 l 506 810 l 314 810 q 297 816 303 810 q 290 833 290 822 q 297 851 290 844 q 314 858 303 858 l 506 858 l 506 1043 q 513 1060 506 1053 q 531 1067 519 1067 q 548 1060 542 1067 q 554 1043 554 1053 l 554 858 l 633 858 q 651 851 643 858 q 658 833 658 844 q 651 816 658 822 q 633 810 643 810 l 554 810 l 554 25 q 548 8 554 15 q 531 0 542 0 q 513 8 519 0 q 506 25 506 15 l 506 97 q 432 23 483 54 q 317 -8 381 -8 m 314 40 q 451 99 396 40 q 506 193 506 158 l 506 414 q 446 562 506 508 q 315 615 386 615 q 176 553 233 615 q 118 414 118 490 l 118 244 q 176 103 118 167 q 314 40 235 40 z "},"e":{"ha":618,"x_min":71,"x_max":564,"o":"m 351 -8 q 149 61 228 -8 q 71 244 71 131 l 71 418 q 144 591 71 518 q 318 664 217 664 q 490 593 417 664 q 564 414 564 522 q 528 324 564 338 q 449 310 493 310 l 119 310 l 119 244 q 186 95 119 150 q 354 40 253 40 q 470 69 442 40 q 518 97 499 97 q 535 89 528 97 q 543 72 543 81 q 492 22 543 53 q 351 -8 442 -8 m 119 358 l 432 358 q 499 368 483 358 q 515 410 515 378 q 462 550 515 485 q 318 615 408 615 q 176 556 233 615 q 119 418 119 496 l 119 358 z "},"é":{"ha":618,"x_min":71,"x_max":564,"o":"m 351 -8 q 149 61 228 -8 q 71 244 71 131 l 71 418 q 144 591 71 518 q 318 664 217 664 q 490 593 417 664 q 564 414 564 522 q 528 324 564 338 q 449 310 493 310 l 119 310 l 119 244 q 186 95 119 150 q 354 40 253 40 q 470 69 442 40 q 518 97 499 97 q 535 89 528 97 q 543 72 543 81 q 492 22 543 53 q 351 -8 442 -8 m 119 358 l 432 358 q 499 368 483 358 q 515 410 515 378 q 462 550 515 485 q 318 615 408 615 q 176 556 233 615 q 119 418 119 496 l 119 358 m 251 835 q 233 842 242 835 q 225 860 225 850 q 236 878 225 872 l 378 961 q 388 964 383 964 q 403 956 397 964 q 410 939 410 949 q 396 914 410 922 l 264 839 q 251 835 258 835 z "},"ĕ":{"ha":618,"x_min":71,"x_max":564,"o":"m 351 -8 q 149 61 228 -8 q 71 244 71 131 l 71 418 q 144 591 71 518 q 318 664 217 664 q 490 593 417 664 q 564 414 564 522 q 528 324 564 338 q 449 310 493 310 l 119 310 l 119 244 q 186 95 119 150 q 354 40 253 40 q 470 69 442 40 q 518 97 499 97 q 535 89 528 97 q 543 72 543 81 q 492 22 543 53 q 351 -8 442 -8 m 119 358 l 432 358 q 499 368 483 358 q 515 410 515 378 q 462 550 515 485 q 318 615 408 615 q 176 556 233 615 q 119 418 119 496 l 119 358 m 317 835 q 210 880 256 835 q 165 986 165 925 l 210 986 q 241 905 210 939 q 317 871 272 871 q 391 905 360 871 q 422 986 422 939 l 468 986 q 422 880 468 925 q 317 835 376 835 z "},"ě":{"ha":618,"x_min":71,"x_max":564,"o":"m 351 -8 q 149 61 228 -8 q 71 244 71 131 l 71 418 q 144 591 71 518 q 318 664 217 664 q 490 593 417 664 q 564 414 564 522 q 528 324 564 338 q 449 310 493 310 l 119 310 l 119 244 q 186 95 119 150 q 354 40 253 40 q 470 69 442 40 q 518 97 499 97 q 535 89 528 97 q 543 72 543 81 q 492 22 543 53 q 351 -8 442 -8 m 119 358 l 432 358 q 499 368 483 358 q 515 410 515 378 q 462 550 515 485 q 318 615 408 615 q 176 556 233 615 q 119 418 119 496 l 119 358 m 315 817 q 286 832 299 817 l 147 972 q 136 994 136 986 q 142 1008 136 1001 q 157 1015 147 1015 q 179 1004 169 1015 l 315 861 l 451 1004 q 474 1015 461 1015 q 489 1008 483 1015 q 494 994 494 1001 q 483 972 494 986 l 344 832 q 315 817 329 817 z "},"ê":{"ha":618,"x_min":71,"x_max":564,"o":"m 351 -8 q 149 61 228 -8 q 71 244 71 131 l 71 418 q 144 591 71 518 q 318 664 217 664 q 490 593 417 664 q 564 414 564 522 q 528 324 564 338 q 449 310 493 310 l 119 310 l 119 244 q 186 95 119 150 q 354 40 253 40 q 470 69 442 40 q 518 97 499 97 q 535 89 528 97 q 543 72 543 81 q 492 22 543 53 q 351 -8 442 -8 m 119 358 l 432 358 q 499 368 483 358 q 515 410 515 378 q 462 550 515 485 q 318 615 408 615 q 176 556 233 615 q 119 418 119 496 l 119 358 m 161 833 q 144 841 151 833 q 136 860 136 849 q 149 879 136 872 l 293 957 q 317 964 304 964 q 340 957 329 964 l 485 881 q 497 857 497 875 q 490 841 497 847 q 474 835 483 835 q 461 839 474 835 l 317 915 l 172 838 q 161 833 160 833 z "},"ế":{"ha":618,"x_min":71,"x_max":564,"o":"m 351 -8 q 149 61 228 -8 q 71 244 71 131 l 71 418 q 144 591 71 518 q 318 664 217 664 q 490 593 417 664 q 564 414 564 522 q 528 324 564 338 q 449 310 493 310 l 119 310 l 119 244 q 186 95 119 150 q 354 40 253 40 q 470 69 442 40 q 518 97 499 97 q 535 89 528 97 q 543 72 543 81 q 492 22 543 53 q 351 -8 442 -8 m 119 358 l 432 358 q 499 368 483 358 q 515 410 515 378 q 462 550 515 485 q 318 615 408 615 q 176 556 233 615 q 119 418 119 496 l 119 358 z "},"ệ":{"ha":618,"x_min":71,"x_max":564,"o":"m 351 -8 q 149 61 228 -8 q 71 244 71 131 l 71 418 q 144 591 71 518 q 318 664 217 664 q 490 593 417 664 q 564 414 564 522 q 528 324 564 338 q 449 310 493 310 l 119 310 l 119 244 q 186 95 119 150 q 354 40 253 40 q 470 69 442 40 q 518 97 499 97 q 535 89 528 97 q 543 72 543 81 q 492 22 543 53 q 351 -8 442 -8 m 119 358 l 432 358 q 499 368 483 358 q 515 410 515 378 q 462 550 515 485 q 318 615 408 615 q 176 556 233 615 q 119 418 119 496 l 119 358 m 154 833 q 137 841 144 833 q 129 860 129 849 q 142 879 129 872 l 286 957 q 310 964 297 964 q 333 957 322 964 l 478 881 q 490 857 490 875 q 483 841 490 847 q 467 835 476 835 q 454 839 467 835 l 310 915 l 165 838 q 154 833 153 833 z "},"ề":{"ha":618,"x_min":71,"x_max":564,"o":"m 351 -8 q 149 61 228 -8 q 71 244 71 131 l 71 418 q 144 591 71 518 q 318 664 217 664 q 490 593 417 664 q 564 414 564 522 q 528 324 564 338 q 449 310 493 310 l 119 310 l 119 244 q 186 95 119 150 q 354 40 253 40 q 470 69 442 40 q 518 97 499 97 q 535 89 528 97 q 543 72 543 81 q 492 22 543 53 q 351 -8 442 -8 m 119 358 l 432 358 q 499 368 483 358 q 515 410 515 378 q 462 550 515 485 q 318 615 408 615 q 176 556 233 615 q 119 418 119 496 l 119 358 z "},"ể":{"ha":618,"x_min":71,"x_max":564,"o":"m 351 -8 q 149 61 228 -8 q 71 244 71 131 l 71 418 q 144 591 71 518 q 318 664 217 664 q 490 593 417 664 q 564 414 564 522 q 528 324 564 338 q 449 310 493 310 l 119 310 l 119 244 q 186 95 119 150 q 354 40 253 40 q 470 69 442 40 q 518 97 499 97 q 535 89 528 97 q 543 72 543 81 q 492 22 543 53 q 351 -8 442 -8 m 119 358 l 432 358 q 499 368 483 358 q 515 410 515 378 q 462 550 515 485 q 318 615 408 615 q 176 556 233 615 q 119 418 119 496 l 119 358 z "},"ễ":{"ha":618,"x_min":71,"x_max":564,"o":"m 351 -8 q 149 61 228 -8 q 71 244 71 131 l 71 418 q 144 591 71 518 q 318 664 217 664 q 490 593 417 664 q 564 414 564 522 q 528 324 564 338 q 449 310 493 310 l 119 310 l 119 244 q 186 95 119 150 q 354 40 253 40 q 470 69 442 40 q 518 97 499 97 q 535 89 528 97 q 543 72 543 81 q 492 22 543 53 q 351 -8 442 -8 m 119 358 l 432 358 q 499 368 483 358 q 515 410 515 378 q 462 550 515 485 q 318 615 408 615 q 176 556 233 615 q 119 418 119 496 l 119 358 z "},"ë":{"ha":618,"x_min":71,"x_max":564,"o":"m 351 -8 q 149 61 228 -8 q 71 244 71 131 l 71 418 q 144 591 71 518 q 318 664 217 664 q 490 593 417 664 q 564 414 564 522 q 528 324 564 338 q 449 310 493 310 l 119 310 l 119 244 q 186 95 119 150 q 354 40 253 40 q 470 69 442 40 q 518 97 499 97 q 535 89 528 97 q 543 72 543 81 q 492 22 543 53 q 351 -8 442 -8 m 119 358 l 432 358 q 499 368 483 358 q 515 410 515 378 q 462 550 515 485 q 318 615 408 615 q 176 556 233 615 q 119 418 119 496 l 119 358 m 240 833 q 210 845 222 833 q 199 875 199 857 q 210 904 199 893 q 240 915 222 915 q 269 904 258 915 q 281 875 281 893 q 269 845 281 857 q 240 833 258 833 m 394 833 q 364 845 375 833 q 353 875 353 857 q 364 904 353 893 q 394 915 375 915 q 424 904 413 915 q 435 875 435 893 q 424 845 435 857 q 394 833 413 833 z "},"ė":{"ha":618,"x_min":71,"x_max":564,"o":"m 351 -8 q 149 61 228 -8 q 71 244 71 131 l 71 418 q 144 591 71 518 q 318 664 217 664 q 490 593 417 664 q 564 414 564 522 q 528 324 564 338 q 449 310 493 310 l 119 310 l 119 244 q 186 95 119 150 q 354 40 253 40 q 470 69 442 40 q 518 97 499 97 q 535 89 528 97 q 543 72 543 81 q 492 22 543 53 q 351 -8 442 -8 m 119 358 l 432 358 q 499 368 483 358 q 515 410 515 378 q 462 550 515 485 q 318 615 408 615 q 176 556 233 615 q 119 418 119 496 l 119 358 m 318 833 q 288 845 300 833 q 276 875 276 857 q 288 904 276 893 q 318 915 300 915 q 347 904 336 915 q 358 875 358 893 q 347 845 358 857 q 318 833 336 833 z "},"ẹ":{"ha":618,"x_min":71,"x_max":564,"o":"m 351 -8 q 149 61 228 -8 q 71 244 71 131 l 71 418 q 144 591 71 518 q 318 664 217 664 q 490 593 417 664 q 564 414 564 522 q 528 324 564 338 q 449 310 493 310 l 119 310 l 119 244 q 186 95 119 150 q 354 40 253 40 q 470 69 442 40 q 518 97 499 97 q 535 89 528 97 q 543 72 543 81 q 492 22 543 53 q 351 -8 442 -8 m 119 358 l 432 358 q 499 368 483 358 q 515 410 515 378 q 462 550 515 485 q 318 615 408 615 q 176 556 233 615 q 119 418 119 496 l 119 358 z "},"è":{"ha":618,"x_min":71,"x_max":564,"o":"m 351 -8 q 149 61 228 -8 q 71 244 71 131 l 71 418 q 144 591 71 518 q 318 664 217 664 q 490 593 417 664 q 564 414 564 522 q 528 324 564 338 q 449 310 493 310 l 119 310 l 119 244 q 186 95 119 150 q 354 40 253 40 q 470 69 442 40 q 518 97 499 97 q 535 89 528 97 q 543 72 543 81 q 492 22 543 53 q 351 -8 442 -8 m 119 358 l 432 358 q 499 368 483 358 q 515 410 515 378 q 462 550 515 485 q 318 615 408 615 q 176 556 233 615 q 119 418 119 496 l 119 358 m 383 835 q 371 839 378 835 l 239 914 q 225 939 225 922 q 231 956 225 949 q 247 964 236 964 q 257 961 251 964 l 399 878 q 410 860 410 872 q 402 842 410 850 q 383 835 394 835 z "},"ẻ":{"ha":618,"x_min":71,"x_max":564,"o":"m 351 -8 q 149 61 228 -8 q 71 244 71 131 l 71 418 q 144 591 71 518 q 318 664 217 664 q 490 593 417 664 q 564 414 564 522 q 528 324 564 338 q 449 310 493 310 l 119 310 l 119 244 q 186 95 119 150 q 354 40 253 40 q 470 69 442 40 q 518 97 499 97 q 535 89 528 97 q 543 72 543 81 q 492 22 543 53 q 351 -8 442 -8 m 119 358 l 432 358 q 499 368 483 358 q 515 410 515 378 q 462 550 515 485 q 318 615 408 615 q 176 556 233 615 q 119 418 119 496 l 119 358 m 221 935 q 264 964 240 953 q 314 975 288 975 q 386 945 365 975 q 407 889 407 915 q 393 848 407 867 q 358 808 379 829 q 351 797 354 804 q 347 779 349 790 q 326 763 346 763 q 306 782 306 763 q 308 806 306 792 q 324 833 311 819 q 351 863 340 851 q 363 889 363 874 q 315 931 363 931 q 283 922 297 931 q 257 906 268 914 q 218 903 231 885 q 212 917 213 910 q 221 935 211 925 z "},"ē":{"ha":618,"x_min":71,"x_max":564,"o":"m 351 -8 q 149 61 228 -8 q 71 244 71 131 l 71 418 q 144 591 71 518 q 318 664 217 664 q 490 593 417 664 q 564 414 564 522 q 528 324 564 338 q 449 310 493 310 l 119 310 l 119 244 q 186 95 119 150 q 354 40 253 40 q 470 69 442 40 q 518 97 499 97 q 535 89 528 97 q 543 72 543 81 q 492 22 543 53 q 351 -8 442 -8 m 119 358 l 432 358 q 499 368 483 358 q 515 410 515 378 q 462 550 515 485 q 318 615 408 615 q 176 556 233 615 q 119 418 119 496 l 119 358 m 164 899 q 140 922 140 899 q 147 940 140 933 q 164 947 153 947 l 469 947 q 487 940 479 947 q 494 922 494 933 q 487 905 494 911 q 469 899 479 899 l 164 899 z "},"ę":{"ha":618,"x_min":71,"x_max":600,"o":"m 351 -8 q 149 61 228 -8 q 71 244 71 131 l 71 418 q 144 591 71 518 q 318 664 217 664 q 490 593 417 664 q 564 414 564 522 q 528 324 564 338 q 449 310 493 310 l 119 310 l 119 244 q 186 95 119 150 q 354 40 253 40 q 470 69 442 40 q 518 97 499 97 q 535 89 528 97 q 543 72 543 81 q 492 22 543 53 q 351 -8 442 -8 m 119 358 l 432 358 q 499 368 483 358 q 515 410 515 378 q 462 550 515 485 q 318 615 408 615 q 176 556 233 615 q 119 418 119 496 l 119 358 m 568 -271 q 489 -252 531 -271 q 447 -178 447 -233 q 476 -68 447 -117 q 551 25 506 -19 l 588 3 q 517 -79 546 -37 q 488 -175 488 -121 q 575 -235 488 -235 q 593 -238 586 -235 q 600 -253 600 -242 q 593 -267 600 -264 q 568 -271 586 -271 z "},"ẽ":{"ha":618,"x_min":71,"x_max":564,"o":"m 351 -8 q 149 61 228 -8 q 71 244 71 131 l 71 418 q 144 591 71 518 q 318 664 217 664 q 490 593 417 664 q 564 414 564 522 q 528 324 564 338 q 449 310 493 310 l 119 310 l 119 244 q 186 95 119 150 q 354 40 253 40 q 470 69 442 40 q 518 97 499 97 q 535 89 528 97 q 543 72 543 81 q 492 22 543 53 q 351 -8 442 -8 m 119 358 l 432 358 q 499 368 483 358 q 515 410 515 378 q 462 550 515 485 q 318 615 408 615 q 176 556 233 615 q 119 418 119 496 l 119 358 m 397 860 q 312 885 347 860 q 218 911 276 911 q 156 887 174 911 q 122 863 138 863 q 110 869 115 863 q 104 886 104 875 q 147 936 104 914 q 228 958 190 958 q 315 933 279 958 q 404 907 351 907 q 465 929 451 907 q 494 951 478 951 q 508 946 501 951 q 514 931 514 940 q 472 879 514 899 q 397 860 431 860 z "},"ə":{"ha":618,"x_min":54,"x_max":547,"o":"m 300 -8 q 128 63 203 -8 q 54 242 54 133 q 90 332 54 318 q 169 346 125 346 l 499 346 l 499 411 q 433 560 499 506 q 264 615 367 615 q 148 587 176 615 q 100 558 119 558 q 83 567 90 558 q 75 583 75 575 q 126 633 75 603 q 267 664 178 664 q 468 594 389 664 q 547 411 547 525 l 547 238 q 474 65 547 138 q 300 -8 401 -8 m 300 40 q 442 100 385 40 q 499 238 499 160 l 499 297 l 186 297 q 119 288 135 297 q 103 246 103 278 q 157 106 103 171 q 300 40 211 40 z "},"f":{"ha":401,"x_min":96,"x_max":382,"o":"m 118 0 q 102 7 108 0 q 96 24 96 14 l 96 819 q 169 993 96 919 q 343 1067 243 1067 l 357 1067 q 374 1060 367 1067 q 382 1042 382 1053 q 374 1024 382 1031 q 357 1018 367 1018 l 343 1018 q 202 958 258 1018 q 144 819 146 897 l 144 656 l 357 656 q 374 649 367 656 q 382 632 382 642 q 374 615 382 622 q 357 607 367 607 l 144 607 l 144 24 q 136 7 144 14 q 118 0 128 0 z "},"g":{"ha":619,"x_min":44,"x_max":604,"o":"m 314 -329 q 119 -281 193 -329 q 44 -150 44 -232 q 84 -49 44 -86 q 171 4 124 -12 q 110 36 133 14 q 86 103 86 58 q 104 163 86 142 q 154 199 122 183 q 82 374 82 263 l 82 436 q 143 600 82 536 q 306 664 204 664 q 471 597 407 664 q 519 658 489 633 q 575 682 549 682 q 597 673 590 682 q 604 654 604 664 q 579 628 604 628 q 538 615 561 628 q 496 564 515 603 q 531 436 531 515 l 531 374 q 467 209 531 275 q 304 143 404 143 q 190 172 240 143 q 152 148 169 163 q 135 106 135 133 q 179 49 135 64 q 289 30 224 35 q 419 13 354 25 q 529 -33 485 1 q 574 -142 574 -67 q 503 -280 574 -231 q 314 -329 433 -329 m 314 -285 q 471 -247 417 -285 q 525 -143 525 -208 q 472 -52 525 -78 q 351 -22 419 -26 q 239 -10 283 -17 q 138 -56 183 -25 q 93 -146 93 -87 q 151 -246 93 -207 q 314 -285 208 -285 m 307 192 q 435 244 389 192 q 482 374 482 296 l 482 436 q 435 564 482 513 q 306 615 389 615 q 176 564 222 615 q 131 436 131 513 l 131 375 q 177 244 131 297 q 307 192 224 192 z "},"ğ":{"ha":619,"x_min":44,"x_max":604,"o":"m 314 -329 q 119 -281 193 -329 q 44 -150 44 -232 q 84 -49 44 -86 q 171 4 124 -12 q 110 36 133 14 q 86 103 86 58 q 104 163 86 142 q 154 199 122 183 q 82 374 82 263 l 82 436 q 143 600 82 536 q 306 664 204 664 q 471 597 407 664 q 519 658 489 633 q 575 682 549 682 q 597 673 590 682 q 604 654 604 664 q 579 628 604 628 q 538 615 561 628 q 496 564 515 603 q 531 436 531 515 l 531 374 q 467 209 531 275 q 304 143 404 143 q 190 172 240 143 q 152 148 169 163 q 135 106 135 133 q 179 49 135 64 q 289 30 224 35 q 419 13 354 25 q 529 -33 485 1 q 574 -142 574 -67 q 503 -280 574 -231 q 314 -329 433 -329 m 314 -285 q 471 -247 417 -285 q 525 -143 525 -208 q 472 -52 525 -78 q 351 -22 419 -26 q 239 -10 283 -17 q 138 -56 183 -25 q 93 -146 93 -87 q 151 -246 93 -207 q 314 -285 208 -285 m 307 192 q 435 244 389 192 q 482 374 482 296 l 482 436 q 435 564 482 513 q 306 615 389 615 q 176 564 222 615 q 131 436 131 513 l 131 375 q 177 244 131 297 q 307 192 224 192 m 326 835 q 221 880 267 835 q 175 986 175 925 l 219 986 q 251 905 219 939 q 326 871 283 871 q 401 905 369 871 q 432 986 432 939 l 478 986 q 432 880 478 925 q 326 835 386 835 z "},"ĝ":{"ha":619,"x_min":44,"x_max":604,"o":"m 314 -329 q 119 -281 193 -329 q 44 -150 44 -232 q 84 -49 44 -86 q 171 4 124 -12 q 110 36 133 14 q 86 103 86 58 q 104 163 86 142 q 154 199 122 183 q 82 374 82 263 l 82 436 q 143 600 82 536 q 306 664 204 664 q 471 597 407 664 q 519 658 489 633 q 575 682 549 682 q 597 673 590 682 q 604 654 604 664 q 579 628 604 628 q 538 615 561 628 q 496 564 515 603 q 531 436 531 515 l 531 374 q 467 209 531 275 q 304 143 404 143 q 190 172 240 143 q 152 148 169 163 q 135 106 135 133 q 179 49 135 64 q 289 30 224 35 q 419 13 354 25 q 529 -33 485 1 q 574 -142 574 -67 q 503 -280 574 -231 q 314 -329 433 -329 m 314 -285 q 471 -247 417 -285 q 525 -143 525 -208 q 472 -52 525 -78 q 351 -22 419 -26 q 239 -10 283 -17 q 138 -56 183 -25 q 93 -146 93 -87 q 151 -246 93 -207 q 314 -285 208 -285 m 307 192 q 435 244 389 192 q 482 374 482 296 l 482 436 q 435 564 482 513 q 306 615 389 615 q 176 564 222 615 q 131 436 131 513 l 131 375 q 177 244 131 297 q 307 192 224 192 m 171 833 q 153 841 161 833 q 146 860 146 849 q 158 879 146 872 l 303 957 q 326 964 314 964 q 350 957 339 964 l 494 881 q 507 857 507 875 q 500 841 507 847 q 483 835 493 835 q 471 839 483 835 l 326 915 l 182 838 q 171 833 169 833 z "},"ģ":{"ha":619,"x_min":44,"x_max":604,"o":"m 314 -329 q 119 -281 193 -329 q 44 -150 44 -232 q 84 -49 44 -86 q 171 4 124 -12 q 110 36 133 14 q 86 103 86 58 q 104 163 86 142 q 154 199 122 183 q 82 374 82 263 l 82 436 q 143 600 82 536 q 306 664 204 664 q 471 597 407 664 q 519 658 489 633 q 575 682 549 682 q 597 673 590 682 q 604 654 604 664 q 579 628 604 628 q 538 615 561 628 q 496 564 515 603 q 531 436 531 515 l 531 374 q 467 209 531 275 q 304 143 404 143 q 190 172 240 143 q 152 148 169 163 q 135 106 135 133 q 179 49 135 64 q 289 30 224 35 q 419 13 354 25 q 529 -33 485 1 q 574 -142 574 -67 q 503 -280 574 -231 q 314 -329 433 -329 m 314 -285 q 471 -247 417 -285 q 525 -143 525 -208 q 472 -52 525 -78 q 351 -22 419 -26 q 239 -10 283 -17 q 138 -56 183 -25 q 93 -146 93 -87 q 151 -246 93 -207 q 314 -285 208 -285 m 307 192 q 435 244 389 192 q 482 374 482 296 l 482 436 q 435 564 482 513 q 306 615 389 615 q 176 564 222 615 q 131 436 131 513 l 131 375 q 177 244 131 297 q 307 192 224 192 m 244 835 q 226 842 233 835 q 218 860 218 850 q 229 878 218 872 l 371 961 q 381 964 376 964 q 397 956 392 964 q 403 939 403 949 q 389 914 403 922 l 257 839 q 244 835 250 835 m 311 1190 q 277 1205 292 1190 q 263 1240 263 1219 q 269 1275 263 1251 q 287 1326 276 1299 q 308 1375 297 1353 q 328 1389 315 1389 q 343 1383 336 1389 q 350 1368 350 1378 q 349 1360 350 1363 l 324 1289 q 361 1240 361 1279 q 347 1205 361 1219 q 311 1190 333 1190 z "},"ġ":{"ha":619,"x_min":44,"x_max":604,"o":"m 314 -329 q 119 -281 193 -329 q 44 -150 44 -232 q 84 -49 44 -86 q 171 4 124 -12 q 110 36 133 14 q 86 103 86 58 q 104 163 86 142 q 154 199 122 183 q 82 374 82 263 l 82 436 q 143 600 82 536 q 306 664 204 664 q 471 597 407 664 q 519 658 489 633 q 575 682 549 682 q 597 673 590 682 q 604 654 604 664 q 579 628 604 628 q 538 615 561 628 q 496 564 515 603 q 531 436 531 515 l 531 374 q 467 209 531 275 q 304 143 404 143 q 190 172 240 143 q 152 148 169 163 q 135 106 135 133 q 179 49 135 64 q 289 30 224 35 q 419 13 354 25 q 529 -33 485 1 q 574 -142 574 -67 q 503 -280 574 -231 q 314 -329 433 -329 m 314 -285 q 471 -247 417 -285 q 525 -143 525 -208 q 472 -52 525 -78 q 351 -22 419 -26 q 239 -10 283 -17 q 138 -56 183 -25 q 93 -146 93 -87 q 151 -246 93 -207 q 314 -285 208 -285 m 307 192 q 435 244 389 192 q 482 374 482 296 l 482 436 q 435 564 482 513 q 306 615 389 615 q 176 564 222 615 q 131 436 131 513 l 131 375 q 177 244 131 297 q 307 192 224 192 m 326 833 q 297 845 308 833 q 285 875 285 857 q 297 904 285 893 q 326 915 308 915 q 356 904 344 915 q 367 875 367 893 q 356 845 367 857 q 326 833 344 833 z "},"h":{"ha":669,"x_min":96,"x_max":581,"o":"m 119 0 q 102 8 108 0 q 96 25 96 15 l 96 1043 q 102 1060 96 1053 q 119 1067 108 1067 q 138 1060 131 1067 q 144 1043 144 1053 l 144 558 q 214 631 167 599 q 331 664 261 664 q 507 590 433 664 q 581 414 581 517 l 581 25 q 573 6 581 13 q 556 0 565 0 q 540 6 547 0 q 532 25 532 13 l 532 414 q 474 553 532 490 q 335 615 417 615 q 204 562 264 615 q 144 414 144 508 l 144 25 q 138 8 144 15 q 119 0 131 0 z "},"ħ":{"ha":669,"x_min":28,"x_max":581,"o":"m 119 0 q 102 8 108 0 q 96 25 96 15 l 96 822 l 51 822 q 28 846 28 822 q 35 863 28 856 q 51 871 42 871 l 96 871 l 96 1043 q 102 1060 96 1053 q 119 1067 108 1067 q 138 1060 131 1067 q 144 1043 144 1053 l 144 871 l 357 871 q 374 863 367 871 q 382 846 382 856 q 374 829 382 836 q 357 822 367 822 l 144 822 l 144 558 q 214 631 167 599 q 331 664 261 664 q 507 590 433 664 q 581 414 581 517 l 581 25 q 573 6 581 13 q 556 0 565 0 q 540 6 547 0 q 532 25 532 13 l 532 414 q 474 553 532 490 q 335 615 417 615 q 204 562 264 615 q 144 414 144 508 l 144 25 q 138 8 144 15 q 119 0 131 0 z "},"ĥ":{"ha":669,"x_min":-58,"x_max":581,"o":"m 119 0 q 102 8 108 0 q 96 25 96 15 l 96 1043 q 102 1060 96 1053 q 119 1067 108 1067 q 138 1060 131 1067 q 144 1043 144 1053 l 144 558 q 214 631 167 599 q 331 664 261 664 q 507 590 433 664 q 581 414 581 517 l 581 25 q 573 6 581 13 q 556 0 565 0 q 540 6 547 0 q 532 25 532 13 l 532 414 q 474 553 532 490 q 335 615 417 615 q 204 562 264 615 q 144 414 144 508 l 144 25 q 138 8 144 15 q 119 0 131 0 m -33 1188 q -51 1195 -43 1188 q -58 1214 -58 1203 q -46 1233 -58 1228 l 99 1311 q 122 1318 110 1318 q 146 1311 135 1318 l 290 1235 q 303 1211 303 1228 q 296 1195 303 1201 q 279 1189 289 1189 q 267 1193 279 1189 l 122 1269 l -22 1192 q -33 1188 -35 1188 z "},"i":{"ha":238,"x_min":74,"x_max":161,"o":"m 118 0 q 101 8 108 0 q 94 25 94 15 l 94 632 q 101 649 94 642 q 118 656 108 656 q 135 649 128 656 q 143 632 143 642 l 143 25 q 135 8 143 15 q 118 0 128 0 m 118 872 q 87 885 100 872 q 74 917 74 899 q 87 947 74 935 q 118 960 100 960 q 149 947 136 960 q 161 917 161 935 q 149 885 161 899 q 118 872 136 872 z "},"ı":{"ha":238,"x_min":94,"x_max":143,"o":"m 118 0 q 101 8 108 0 q 94 25 94 15 l 94 632 q 101 649 94 642 q 118 656 108 656 q 135 649 128 656 q 143 632 143 642 l 143 25 q 135 8 143 15 q 118 0 128 0 z "},"í":{"ha":238,"x_min":25,"x_max":210,"o":"m 118 0 q 101 8 108 0 q 94 25 94 15 l 94 632 q 101 649 94 642 q 118 656 108 656 q 135 649 128 656 q 143 632 143 642 l 143 25 q 135 8 143 15 q 118 0 128 0 m 51 835 q 33 842 42 835 q 25 860 25 850 q 36 878 25 872 l 178 961 q 188 964 183 964 q 203 956 197 964 q 210 939 210 949 q 196 914 210 922 l 64 839 q 51 835 58 835 z "},"ĭ":{"ha":238,"x_min":-32,"x_max":271,"o":"m 119 835 q 13 880 58 835 q -32 986 -32 925 l 13 986 q 44 905 13 939 q 119 871 75 871 q 194 905 163 871 q 225 986 225 939 l 271 986 q 225 880 271 925 q 119 835 179 835 m 118 0 q 101 8 108 0 q 94 25 94 15 l 94 632 q 101 649 94 642 q 118 656 108 656 q 135 649 128 656 q 143 632 143 642 l 143 25 q 135 8 143 15 q 118 0 128 0 z "},"î":{"ha":238,"x_min":-61,"x_max":300,"o":"m 118 0 q 101 8 108 0 q 94 25 94 15 l 94 632 q 101 649 94 642 q 118 656 108 656 q 135 649 128 656 q 143 632 143 642 l 143 25 q 135 8 143 15 q 118 0 128 0 m -36 833 q -53 841 -46 833 q -61 860 -61 849 q -49 879 -61 872 l 96 957 q 119 964 107 964 q 143 957 132 964 l 288 881 q 300 857 300 875 q 293 841 300 847 q 276 835 286 835 q 264 839 276 835 l 119 915 l -25 838 q -36 833 -37 833 z "},"ï":{"ha":238,"x_min":1,"x_max":238,"o":"m 118 0 q 101 8 108 0 q 94 25 94 15 l 94 632 q 101 649 94 642 q 118 656 108 656 q 135 649 128 656 q 143 632 143 642 l 143 25 q 135 8 143 15 q 118 0 128 0 m 43 833 q 13 845 25 833 q 1 875 1 857 q 13 904 1 893 q 43 915 25 915 q 72 904 61 915 q 83 875 83 893 q 72 845 83 857 q 43 833 61 833 m 197 833 q 167 845 178 833 q 156 875 156 857 q 167 904 156 893 q 197 915 178 915 q 226 904 215 915 q 238 875 238 893 q 226 845 238 857 q 197 833 215 833 z "},"ị":{"ha":238,"x_min":69,"x_max":168,"o":"m 118 0 q 101 8 108 0 q 94 25 94 15 l 94 632 q 101 649 94 642 q 118 656 108 656 q 135 649 128 656 q 143 632 143 642 l 143 25 q 135 8 143 15 q 118 0 128 0 m 118 872 q 87 885 100 872 q 74 917 74 899 q 87 947 74 935 q 118 960 100 960 q 149 947 136 960 q 161 917 161 935 q 149 885 161 899 q 118 872 136 872 z "},"ì":{"ha":238,"x_min":25,"x_max":210,"o":"m 118 0 q 101 8 108 0 q 94 25 94 15 l 94 632 q 101 649 94 642 q 118 656 108 656 q 135 649 128 656 q 143 632 143 642 l 143 25 q 135 8 143 15 q 118 0 128 0 m 183 835 q 171 839 178 835 l 39 914 q 25 939 25 922 q 31 956 25 949 q 47 964 36 964 q 57 961 51 964 l 199 878 q 210 860 210 872 q 202 842 210 850 q 183 835 194 835 z "},"ỉ":{"ha":238,"x_min":21,"x_max":217,"o":"m 118 0 q 101 8 108 0 q 94 25 94 15 l 94 632 q 101 649 94 642 q 118 656 108 656 q 135 649 128 656 q 143 632 143 642 l 143 25 q 135 8 143 15 q 118 0 128 0 m 31 935 q 74 964 50 953 q 124 975 97 975 q 196 945 175 975 q 217 889 217 915 q 203 848 217 867 q 168 808 189 829 q 161 797 164 804 q 157 779 158 790 q 136 763 156 763 q 115 782 115 763 q 118 806 115 792 q 133 833 121 819 q 161 863 150 851 q 172 889 172 874 q 125 931 172 931 q 92 922 107 931 q 67 906 78 914 q 28 903 40 885 q 22 917 22 910 q 31 935 21 925 z "},"ĳ":{"ha":479,"x_min":74,"x_max":401,"o":"m 214 -329 q 196 -322 203 -329 q 189 -304 189 -314 q 196 -287 189 -294 q 214 -281 203 -281 q 315 -220 294 -281 q 335 -67 335 -160 l 335 632 q 341 649 335 642 q 358 656 347 656 q 376 649 369 656 q 383 632 383 642 l 383 -67 q 347 -256 383 -182 q 214 -329 310 -329 m 118 0 q 101 8 108 0 q 94 25 94 15 l 94 632 q 101 649 94 642 q 118 656 108 656 q 135 649 128 656 q 143 632 143 642 l 143 25 q 135 8 143 15 q 118 0 128 0 m 118 872 q 87 885 100 872 q 74 917 74 899 q 87 947 74 935 q 118 960 100 960 q 149 947 136 960 q 161 917 161 935 q 149 885 161 899 q 118 872 136 872 m 358 872 q 326 885 339 872 q 314 917 314 899 q 326 947 314 935 q 358 960 339 960 q 389 947 376 960 q 401 917 401 935 q 389 885 401 899 q 358 872 376 872 z "},"ī":{"ha":238,"x_min":-60,"x_max":294,"o":"m 118 0 q 101 8 108 0 q 94 25 94 15 l 94 632 q 101 649 94 642 q 118 656 108 656 q 135 649 128 656 q 143 632 143 642 l 143 25 q 135 8 143 15 q 118 0 128 0 m -36 899 q -60 922 -60 899 q -53 940 -60 933 q -36 947 -47 947 l 269 947 q 287 940 279 947 q 294 922 294 933 q 287 905 294 911 q 269 899 279 899 l -36 899 z "},"į":{"ha":238,"x_min":-1,"x_max":160,"o":"m 118 0 q 101 8 108 0 q 94 25 94 15 l 94 632 q 101 649 94 642 q 118 656 108 656 q 135 649 128 656 q 143 632 143 642 l 143 25 q 135 8 143 15 q 118 0 128 0 m 119 833 q 89 845 100 833 q 78 875 78 857 q 89 904 78 893 q 119 915 100 915 q 149 904 138 915 q 160 875 160 893 q 149 845 160 857 q 119 833 138 833 m 119 -262 q 40 -244 82 -262 q -1 -169 -1 -225 q 28 -60 -1 -108 q 103 33 57 -11 l 139 11 q 68 -71 97 -29 q 39 -167 39 -112 q 126 -226 39 -226 q 144 -230 138 -226 q 151 -244 151 -233 q 144 -259 151 -256 q 119 -262 138 -262 z "},"ĩ":{"ha":238,"x_min":-86,"x_max":324,"o":"m 118 0 q 101 8 108 0 q 94 25 94 15 l 94 632 q 101 649 94 642 q 118 656 108 656 q 135 649 128 656 q 143 632 143 642 l 143 25 q 135 8 143 15 q 118 0 128 0 m 207 860 q 122 885 157 860 q 28 911 86 911 q -35 887 -17 911 q -68 863 -53 863 q -81 869 -75 863 q -86 886 -86 875 q -43 936 -86 914 q 38 958 0 958 q 125 933 89 958 q 214 907 161 907 q 274 929 261 907 q 304 951 288 951 q 317 946 311 951 q 324 931 324 940 q 282 879 324 899 q 207 860 240 860 z "},"j":{"ha":240,"x_min":-50,"x_max":163,"o":"m -25 -329 q -43 -322 -36 -329 q -50 -304 -50 -314 q -43 -287 -50 -294 q -25 -281 -36 -281 q 76 -220 56 -281 q 96 -67 96 -160 l 96 632 q 102 649 96 642 q 119 656 108 656 q 138 649 131 656 q 144 632 144 642 l 144 -67 q 108 -256 144 -182 q -25 -329 71 -329 m 119 872 q 88 885 100 872 q 75 917 75 899 q 88 947 75 935 q 119 960 100 960 q 150 947 138 960 q 163 917 163 935 q 150 885 163 899 q 119 872 138 872 z "},"ȷ":{"ha":240,"x_min":-50,"x_max":144,"o":"m -25 -329 q -43 -322 -36 -329 q -50 -304 -50 -314 q -43 -287 -50 -294 q -25 -281 -36 -281 q 76 -220 56 -281 q 96 -67 96 -160 l 96 632 q 102 649 96 642 q 119 656 108 656 q 138 649 131 656 q 144 632 144 642 l 144 -67 q 108 -256 144 -182 q -25 -329 71 -329 z "},"ĵ":{"ha":240,"x_min":-60,"x_max":301,"o":"m -25 -329 q -43 -322 -36 -329 q -50 -304 -50 -314 q -43 -287 -50 -294 q -25 -281 -36 -281 q 76 -220 56 -281 q 96 -67 96 -160 l 96 632 q 102 649 96 642 q 119 656 108 656 q 138 649 131 656 q 144 632 144 642 l 144 -67 q 108 -256 144 -182 q -25 -329 71 -329 m -35 833 q -52 841 -44 833 q -60 860 -60 849 q -47 879 -60 872 l 97 957 q 121 964 108 964 q 144 957 133 964 l 289 881 q 301 857 301 875 q 294 841 301 847 q 278 835 288 835 q 265 839 278 835 l 121 915 l -24 838 q -35 833 -36 833 z "},"k":{"ha":607,"x_min":96,"x_max":589,"o":"m 119 0 q 102 8 108 0 q 96 25 96 15 l 96 1043 q 102 1060 96 1053 q 119 1067 108 1067 q 138 1060 131 1067 q 144 1043 144 1053 l 144 324 l 519 650 q 533 656 528 656 q 551 651 543 656 q 560 633 560 646 q 551 613 560 619 l 328 418 l 585 39 q 589 25 589 33 q 582 8 589 15 q 565 0 575 0 q 546 13 554 0 l 290 386 l 144 258 l 144 25 q 138 8 144 15 q 119 0 131 0 z "},"ķ":{"ha":607,"x_min":96,"x_max":589,"o":"m 119 0 q 102 8 108 0 q 96 25 96 15 l 96 1043 q 102 1060 96 1053 q 119 1067 108 1067 q 138 1060 131 1067 q 144 1043 144 1053 l 144 324 l 519 650 q 533 656 528 656 q 551 651 543 656 q 560 633 560 646 q 551 613 560 619 l 328 418 l 585 39 q 589 25 589 33 q 582 8 589 15 q 565 0 575 0 q 546 13 554 0 l 290 386 l 144 258 l 144 25 q 138 8 144 15 q 119 0 131 0 m 238 -196 q 219 -188 228 -196 q 211 -171 211 -181 q 222 -153 211 -158 l 364 -69 q 374 -67 369 -67 q 390 -74 383 -67 q 396 -92 396 -82 q 382 -117 396 -108 l 250 -192 q 238 -196 244 -196 z "},"ĸ":{"ha":606,"x_min":94,"x_max":588,"o":"m 118 0 q 101 8 108 0 q 94 25 94 15 l 94 632 q 101 649 94 642 q 118 656 108 656 q 135 649 128 656 q 143 632 143 642 l 143 324 l 518 650 q 532 656 526 656 q 550 651 542 656 q 558 633 558 646 q 550 613 558 619 l 326 418 l 583 39 q 588 25 588 33 q 581 8 588 15 q 564 0 575 0 q 544 13 553 0 l 289 386 l 143 258 l 143 25 q 135 8 143 15 q 118 0 128 0 z "},"l":{"ha":263,"x_min":107,"x_max":156,"o":"m 131 0 q 113 8 119 0 q 107 25 107 15 l 107 1043 q 113 1060 107 1053 q 131 1067 119 1067 q 149 1060 142 1067 q 156 1043 156 1053 l 156 25 q 149 8 156 15 q 131 0 142 0 z "},"ĺ":{"ha":263,"x_min":39,"x_max":224,"o":"m 131 0 q 113 8 119 0 q 107 25 107 15 l 107 1043 q 113 1060 107 1053 q 131 1067 119 1067 q 149 1060 142 1067 q 156 1043 156 1053 l 156 25 q 149 8 156 15 q 131 0 142 0 m 65 1126 q 47 1134 56 1126 q 39 1151 39 1142 q 50 1169 39 1164 l 192 1253 q 201 1256 197 1256 q 217 1248 211 1256 q 224 1231 224 1240 q 210 1206 224 1214 l 78 1131 q 65 1126 72 1126 z "},"ľ":{"ha":263,"x_min":107,"x_max":350,"o":"m 131 0 q 113 8 119 0 q 107 25 107 15 l 107 1043 q 113 1060 107 1053 q 131 1067 119 1067 q 149 1060 142 1067 q 156 1043 156 1053 l 156 25 q 149 8 156 15 q 131 0 142 0 m 285 831 q 269 836 276 831 q 263 851 263 842 q 264 860 263 857 l 289 931 q 251 979 251 940 q 265 1015 251 1000 q 301 1029 279 1029 q 335 1015 321 1029 q 350 979 350 1000 q 343 944 350 968 q 326 894 336 921 q 304 844 315 867 q 285 831 297 831 z "},"ļ":{"ha":263,"x_min":43,"x_max":228,"o":"m 131 0 q 113 8 119 0 q 107 25 107 15 l 107 1043 q 113 1060 107 1053 q 131 1067 119 1067 q 149 1060 142 1067 q 156 1043 156 1053 l 156 25 q 149 8 156 15 q 131 0 142 0 m 69 -196 q 51 -188 58 -196 q 43 -171 43 -181 q 54 -153 43 -158 l 196 -69 q 206 -67 201 -67 q 222 -74 217 -67 q 228 -92 228 -82 q 214 -117 228 -108 l 82 -192 q 69 -196 75 -196 z "},"ŀ":{"ha":397,"x_min":107,"x_max":379,"o":"m 131 0 q 113 8 119 0 q 107 25 107 15 l 107 1043 q 113 1060 107 1053 q 131 1067 119 1067 q 149 1060 142 1067 q 156 1043 156 1053 l 156 25 q 149 8 156 15 q 131 0 142 0 m 331 367 q 294 382 308 367 q 281 417 281 397 q 294 452 281 438 q 331 467 308 467 q 365 452 350 467 q 379 417 379 438 q 365 382 379 397 q 331 367 350 367 z "},"ł":{"ha":413,"x_min":28,"x_max":389,"o":"m 197 0 q 180 8 186 0 q 174 25 174 15 l 174 438 l 64 375 q 51 371 58 371 q 35 378 43 371 q 28 397 28 386 q 40 417 28 411 l 174 493 l 174 1043 q 180 1060 174 1053 q 197 1067 186 1067 q 215 1060 208 1067 q 222 1043 222 1053 l 222 521 l 353 597 q 365 600 357 600 q 382 594 375 600 q 389 578 389 588 q 376 556 389 563 l 222 467 l 222 25 q 215 8 222 15 q 197 0 208 0 z "},"m":{"ha":1065,"x_min":94,"x_max":976,"o":"m 118 0 q 101 8 108 0 q 94 25 94 15 l 94 632 q 101 649 94 642 q 118 656 108 656 q 135 649 128 656 q 143 632 143 642 l 143 558 q 213 631 167 599 q 329 664 260 664 q 456 625 401 664 q 538 525 511 586 q 631 630 574 596 q 749 664 689 664 q 906 599 836 664 q 976 414 976 533 l 976 25 q 969 8 976 15 q 951 0 961 0 q 935 8 942 0 q 928 25 928 15 l 928 414 q 869 565 928 514 q 747 615 811 615 q 619 562 678 615 q 560 422 560 508 l 560 24 q 552 6 560 11 q 535 0 544 0 q 519 6 526 0 q 511 24 511 11 l 511 421 q 458 559 511 503 q 332 615 406 615 q 203 562 263 615 q 143 414 143 508 l 143 25 q 135 8 143 15 q 118 0 128 0 z "},"n":{"ha":668,"x_min":94,"x_max":579,"o":"m 118 0 q 101 8 108 0 q 94 25 94 15 l 94 632 q 101 649 94 642 q 118 656 108 656 q 135 649 128 656 q 143 632 143 642 l 143 558 q 213 631 167 599 q 329 664 260 664 q 505 590 431 664 q 579 414 579 517 l 579 25 q 572 6 579 13 q 554 0 564 0 q 538 6 546 0 q 531 25 531 13 l 531 414 q 472 553 531 490 q 333 615 414 615 q 203 562 263 615 q 143 414 143 508 l 143 25 q 135 8 143 15 q 118 0 128 0 z "},"ń":{"ha":668,"x_min":94,"x_max":579,"o":"m 118 0 q 101 8 108 0 q 94 25 94 15 l 94 632 q 101 649 94 642 q 118 656 108 656 q 135 649 128 656 q 143 632 143 642 l 143 558 q 213 631 167 599 q 329 664 260 664 q 505 590 431 664 q 579 414 579 517 l 579 25 q 572 6 579 13 q 554 0 564 0 q 538 6 546 0 q 531 25 531 13 l 531 414 q 472 553 531 490 q 333 615 414 615 q 203 562 263 615 q 143 414 143 508 l 143 25 q 135 8 143 15 q 118 0 128 0 m 264 835 q 245 842 253 835 q 238 860 238 850 q 249 878 238 872 l 390 961 q 400 964 396 964 q 417 956 411 964 q 422 939 422 949 q 408 914 422 922 l 276 839 q 264 835 269 835 z "},"ň":{"ha":668,"x_min":94,"x_max":579,"o":"m 118 0 q 101 8 108 0 q 94 25 94 15 l 94 632 q 101 649 94 642 q 118 656 108 656 q 135 649 128 656 q 143 632 143 642 l 143 558 q 213 631 167 599 q 329 664 260 664 q 505 590 431 664 q 579 414 579 517 l 579 25 q 572 6 579 13 q 554 0 564 0 q 538 6 546 0 q 531 25 531 13 l 531 414 q 472 553 531 490 q 333 615 414 615 q 203 562 263 615 q 143 414 143 508 l 143 25 q 135 8 143 15 q 118 0 128 0 m 328 817 q 299 832 311 817 l 160 972 q 149 994 149 986 q 154 1008 149 1001 q 169 1015 160 1015 q 192 1004 182 1015 l 328 861 l 464 1004 q 486 1015 474 1015 q 501 1008 496 1015 q 507 994 507 1001 q 496 972 507 986 l 357 832 q 328 817 342 817 z "},"ņ":{"ha":668,"x_min":94,"x_max":579,"o":"m 118 0 q 101 8 108 0 q 94 25 94 15 l 94 632 q 101 649 94 642 q 118 656 108 656 q 135 649 128 656 q 143 632 143 642 l 143 558 q 213 631 167 599 q 329 664 260 664 q 505 590 431 664 q 579 414 579 517 l 579 25 q 572 6 579 13 q 554 0 564 0 q 538 6 546 0 q 531 25 531 13 l 531 414 q 472 553 531 490 q 333 615 414 615 q 203 562 263 615 q 143 414 143 508 l 143 25 q 135 8 143 15 q 118 0 128 0 m 251 -196 q 233 -188 242 -196 q 225 -171 225 -181 q 236 -153 225 -158 l 378 -69 q 388 -67 383 -67 q 403 -74 397 -67 q 410 -92 410 -82 q 396 -117 410 -108 l 264 -192 q 251 -196 258 -196 z "},"ŋ":{"ha":668,"x_min":94,"x_max":579,"o":"m 410 -329 q 392 -322 400 -329 q 385 -304 385 -314 q 392 -287 385 -294 q 410 -281 400 -281 q 510 -220 490 -281 q 531 -67 531 -160 l 531 414 q 472 553 531 490 q 333 615 414 615 q 203 562 263 615 q 143 414 143 508 l 143 25 q 135 8 143 15 q 118 0 128 0 q 101 8 108 0 q 94 25 94 15 l 94 632 q 101 649 94 642 q 118 656 108 656 q 135 649 128 656 q 143 632 143 642 l 143 558 q 213 631 167 599 q 329 664 260 664 q 505 590 431 664 q 579 414 579 517 l 579 -67 q 542 -256 579 -182 q 410 -329 506 -329 z "},"ñ":{"ha":668,"x_min":94,"x_max":579,"o":"m 118 0 q 101 8 108 0 q 94 25 94 15 l 94 632 q 101 649 94 642 q 118 656 108 656 q 135 649 128 656 q 143 632 143 642 l 143 558 q 213 631 167 599 q 329 664 260 664 q 505 590 431 664 q 579 414 579 517 l 579 25 q 572 6 579 13 q 554 0 564 0 q 538 6 546 0 q 531 25 531 13 l 531 414 q 472 553 531 490 q 333 615 414 615 q 203 562 263 615 q 143 414 143 508 l 143 25 q 135 8 143 15 q 118 0 128 0 m 418 860 q 333 885 368 860 q 239 911 297 911 q 176 887 194 911 q 143 863 158 863 q 131 869 136 863 q 125 886 125 875 q 168 936 125 914 q 249 958 211 958 q 336 933 300 958 q 425 907 372 907 q 485 929 472 907 q 515 951 499 951 q 528 946 522 951 q 535 931 535 940 q 493 879 535 899 q 418 860 451 860 z "},"o":{"ha":632,"x_min":69,"x_max":563,"o":"m 315 -8 q 143 68 217 -8 q 69 244 69 144 l 69 414 q 142 589 69 514 q 315 664 214 664 q 488 590 414 664 q 563 414 563 517 l 563 244 q 488 69 563 146 q 315 -8 414 -8 m 315 40 q 456 103 397 40 q 514 244 514 167 l 514 414 q 456 553 514 490 q 315 615 399 615 q 175 553 232 615 q 118 414 118 490 l 118 244 q 176 103 118 167 q 315 40 233 40 z "},"ó":{"ha":632,"x_min":69,"x_max":563,"o":"m 315 -8 q 143 68 217 -8 q 69 244 69 144 l 69 414 q 142 589 69 514 q 315 664 214 664 q 488 590 414 664 q 563 414 563 517 l 563 244 q 488 69 563 146 q 315 -8 414 -8 m 315 40 q 456 103 397 40 q 514 244 514 167 l 514 414 q 456 553 514 490 q 315 615 399 615 q 175 553 232 615 q 118 414 118 490 l 118 244 q 176 103 118 167 q 315 40 233 40 m 250 835 q 231 842 239 835 q 224 860 224 850 q 235 878 224 872 l 376 961 q 386 964 382 964 q 403 956 397 964 q 408 939 408 949 q 394 914 408 922 l 263 839 q 250 835 256 835 z "},"ŏ":{"ha":632,"x_min":69,"x_max":563,"o":"m 315 -8 q 143 68 217 -8 q 69 244 69 144 l 69 414 q 142 589 69 514 q 315 664 214 664 q 488 590 414 664 q 563 414 563 517 l 563 244 q 488 69 563 146 q 315 -8 414 -8 m 315 40 q 456 103 397 40 q 514 244 514 167 l 514 414 q 456 553 514 490 q 315 615 399 615 q 175 553 232 615 q 118 414 118 490 l 118 244 q 176 103 118 167 q 315 40 233 40 m 315 835 q 210 880 256 835 q 164 986 164 925 l 208 986 q 240 905 208 939 q 315 871 272 871 q 390 905 358 871 q 421 986 421 939 l 467 986 q 421 880 467 925 q 315 835 375 835 z "},"ô":{"ha":632,"x_min":69,"x_max":563,"o":"m 315 -8 q 143 68 217 -8 q 69 244 69 144 l 69 414 q 142 589 69 514 q 315 664 214 664 q 488 590 414 664 q 563 414 563 517 l 563 244 q 488 69 563 146 q 315 -8 414 -8 m 315 40 q 456 103 397 40 q 514 244 514 167 l 514 414 q 456 553 514 490 q 315 615 399 615 q 175 553 232 615 q 118 414 118 490 l 118 244 q 176 103 118 167 q 315 40 233 40 m 160 833 q 142 841 150 833 q 135 860 135 849 q 147 879 135 872 l 292 957 q 315 964 303 964 q 339 957 328 964 l 483 881 q 496 857 496 875 q 489 841 496 847 q 472 835 482 835 q 460 839 472 835 l 315 915 l 171 838 q 160 833 158 833 z "},"ố":{"ha":632,"x_min":69,"x_max":563,"o":"m 315 -8 q 143 68 217 -8 q 69 244 69 144 l 69 414 q 142 589 69 514 q 315 664 214 664 q 488 590 414 664 q 563 414 563 517 l 563 244 q 488 69 563 146 q 315 -8 414 -8 m 315 40 q 456 103 397 40 q 514 244 514 167 l 514 414 q 456 553 514 490 q 315 615 399 615 q 175 553 232 615 q 118 414 118 490 l 118 244 q 176 103 118 167 q 315 40 233 40 z "},"ộ":{"ha":632,"x_min":69,"x_max":563,"o":"m 315 -8 q 143 68 217 -8 q 69 244 69 144 l 69 414 q 142 589 69 514 q 315 664 214 664 q 488 590 414 664 q 563 414 563 517 l 563 244 q 488 69 563 146 q 315 -8 414 -8 m 315 40 q 456 103 397 40 q 514 244 514 167 l 514 414 q 456 553 514 490 q 315 615 399 615 q 175 553 232 615 q 118 414 118 490 l 118 244 q 176 103 118 167 q 315 40 233 40 m 161 833 q 144 841 151 833 q 136 860 136 849 q 149 879 136 872 l 293 957 q 317 964 304 964 q 340 957 329 964 l 485 881 q 497 857 497 875 q 490 841 497 847 q 474 835 483 835 q 461 839 474 835 l 317 915 l 172 838 q 161 833 160 833 z "},"ồ":{"ha":632,"x_min":69,"x_max":563,"o":"m 315 -8 q 143 68 217 -8 q 69 244 69 144 l 69 414 q 142 589 69 514 q 315 664 214 664 q 488 590 414 664 q 563 414 563 517 l 563 244 q 488 69 563 146 q 315 -8 414 -8 m 315 40 q 456 103 397 40 q 514 244 514 167 l 514 414 q 456 553 514 490 q 315 615 399 615 q 175 553 232 615 q 118 414 118 490 l 118 244 q 176 103 118 167 q 315 40 233 40 z "},"ổ":{"ha":632,"x_min":69,"x_max":563,"o":"m 315 -8 q 143 68 217 -8 q 69 244 69 144 l 69 414 q 142 589 69 514 q 315 664 214 664 q 488 590 414 664 q 563 414 563 517 l 563 244 q 488 69 563 146 q 315 -8 414 -8 m 315 40 q 456 103 397 40 q 514 244 514 167 l 514 414 q 456 553 514 490 q 315 615 399 615 q 175 553 232 615 q 118 414 118 490 l 118 244 q 176 103 118 167 q 315 40 233 40 z "},"ỗ":{"ha":632,"x_min":69,"x_max":563,"o":"m 315 -8 q 143 68 217 -8 q 69 244 69 144 l 69 414 q 142 589 69 514 q 315 664 214 664 q 488 590 414 664 q 563 414 563 517 l 563 244 q 488 69 563 146 q 315 -8 414 -8 m 315 40 q 456 103 397 40 q 514 244 514 167 l 514 414 q 456 553 514 490 q 315 615 399 615 q 175 553 232 615 q 118 414 118 490 l 118 244 q 176 103 118 167 q 315 40 233 40 z "},"ö":{"ha":632,"x_min":69,"x_max":563,"o":"m 315 -8 q 143 68 217 -8 q 69 244 69 144 l 69 414 q 142 589 69 514 q 315 664 214 664 q 488 590 414 664 q 563 414 563 517 l 563 244 q 488 69 563 146 q 315 -8 414 -8 m 315 40 q 456 103 397 40 q 514 244 514 167 l 514 414 q 456 553 514 490 q 315 615 399 615 q 175 553 232 615 q 118 414 118 490 l 118 244 q 176 103 118 167 q 315 40 233 40 m 239 833 q 208 845 219 833 q 197 875 197 857 q 208 904 197 893 q 239 915 219 915 q 268 904 257 915 q 279 875 279 893 q 268 845 279 857 q 239 833 257 833 m 393 833 q 363 845 375 833 q 351 875 351 857 q 363 904 351 893 q 393 915 375 915 q 422 904 411 915 q 433 875 433 893 q 422 845 433 857 q 393 833 411 833 z "},"ọ":{"ha":632,"x_min":69,"x_max":563,"o":"m 315 -8 q 143 68 217 -8 q 69 244 69 144 l 69 414 q 142 589 69 514 q 315 664 214 664 q 488 590 414 664 q 563 414 563 517 l 563 244 q 488 69 563 146 q 315 -8 414 -8 m 315 40 q 456 103 397 40 q 514 244 514 167 l 514 414 q 456 553 514 490 q 315 615 399 615 q 175 553 232 615 q 118 414 118 490 l 118 244 q 176 103 118 167 q 315 40 233 40 z "},"ò":{"ha":632,"x_min":69,"x_max":563,"o":"m 315 -8 q 143 68 217 -8 q 69 244 69 144 l 69 414 q 142 589 69 514 q 315 664 214 664 q 488 590 414 664 q 563 414 563 517 l 563 244 q 488 69 563 146 q 315 -8 414 -8 m 315 40 q 456 103 397 40 q 514 244 514 167 l 514 414 q 456 553 514 490 q 315 615 399 615 q 175 553 232 615 q 118 414 118 490 l 118 244 q 176 103 118 167 q 315 40 233 40 m 382 835 q 369 839 375 835 l 238 914 q 224 939 224 922 q 230 956 224 949 q 246 964 236 964 q 256 961 250 964 l 397 878 q 408 860 408 872 q 400 842 408 850 q 382 835 392 835 z "},"ỏ":{"ha":632,"x_min":69,"x_max":563,"o":"m 315 -8 q 143 68 217 -8 q 69 244 69 144 l 69 414 q 142 589 69 514 q 315 664 214 664 q 488 590 414 664 q 563 414 563 517 l 563 244 q 488 69 563 146 q 315 -8 414 -8 m 315 40 q 456 103 397 40 q 514 244 514 167 l 514 414 q 456 553 514 490 q 315 615 399 615 q 175 553 232 615 q 118 414 118 490 l 118 244 q 176 103 118 167 q 315 40 233 40 m 228 935 q 271 964 247 953 q 321 975 294 975 q 393 945 372 975 q 414 889 414 915 q 400 848 414 867 q 365 808 386 829 q 358 797 361 804 q 354 779 356 790 q 333 763 353 763 q 313 782 313 763 q 315 806 313 792 q 331 833 318 819 q 358 863 347 851 q 369 889 369 874 q 322 931 369 931 q 290 922 304 931 q 264 906 275 914 q 225 903 238 885 q 219 917 219 910 q 228 935 218 925 z "},"ơ":{"ha":632,"x_min":69,"x_max":564,"o":"m 315 -8 q 143 68 217 -8 q 69 244 69 144 l 69 414 q 142 589 69 514 q 315 664 214 664 q 488 590 414 664 q 563 414 563 517 l 563 244 q 488 69 563 146 q 315 -8 414 -8 m 315 40 q 456 103 397 40 q 514 244 514 167 l 514 414 q 456 553 514 490 q 315 615 399 615 q 175 553 232 615 q 118 414 118 490 l 118 244 q 176 103 118 167 q 315 40 233 40 m 379 611 l 379 656 q 518 751 518 656 q 522 781 518 768 q 539 793 525 793 q 560 779 556 793 q 564 751 564 765 q 524 650 564 689 q 379 611 485 611 z "},"ớ":{"ha":632,"x_min":69,"x_max":564,"o":"m 315 -8 q 143 68 217 -8 q 69 244 69 144 l 69 414 q 142 589 69 514 q 315 664 214 664 q 488 590 414 664 q 563 414 563 517 l 563 244 q 488 69 563 146 q 315 -8 414 -8 m 315 40 q 456 103 397 40 q 514 244 514 167 l 514 414 q 456 553 514 490 q 315 615 399 615 q 175 553 232 615 q 118 414 118 490 l 118 244 q 176 103 118 167 q 315 40 233 40 m 379 611 l 379 656 q 518 751 518 656 q 522 781 518 768 q 539 793 525 793 q 560 779 556 793 q 564 751 564 765 q 524 650 564 689 q 379 611 485 611 m 250 835 q 232 842 240 835 q 224 860 224 850 q 235 878 224 872 l 376 961 q 386 964 382 964 q 402 956 396 964 q 408 939 408 949 q 394 914 408 922 l 263 839 q 250 835 257 835 z "},"ợ":{"ha":632,"x_min":69,"x_max":564,"o":"m 315 -8 q 143 68 217 -8 q 69 244 69 144 l 69 414 q 142 589 69 514 q 315 664 214 664 q 488 590 414 664 q 563 414 563 517 l 563 244 q 488 69 563 146 q 315 -8 414 -8 m 315 40 q 456 103 397 40 q 514 244 514 167 l 514 414 q 456 553 514 490 q 315 615 399 615 q 175 553 232 615 q 118 414 118 490 l 118 244 q 176 103 118 167 q 315 40 233 40 m 379 611 l 379 656 q 518 751 518 656 q 522 781 518 768 q 539 793 525 793 q 560 779 556 793 q 564 751 564 765 q 524 650 564 689 q 379 611 485 611 z "},"ờ":{"ha":632,"x_min":69,"x_max":564,"o":"m 315 -8 q 143 68 217 -8 q 69 244 69 144 l 69 414 q 142 589 69 514 q 315 664 214 664 q 488 590 414 664 q 563 414 563 517 l 563 244 q 488 69 563 146 q 315 -8 414 -8 m 315 40 q 456 103 397 40 q 514 244 514 167 l 514 414 q 456 553 514 490 q 315 615 399 615 q 175 553 232 615 q 118 414 118 490 l 118 244 q 176 103 118 167 q 315 40 233 40 m 379 611 l 379 656 q 518 751 518 656 q 522 781 518 768 q 539 793 525 793 q 560 779 556 793 q 564 751 564 765 q 524 650 564 689 q 379 611 485 611 m 382 835 q 369 839 376 835 l 238 914 q 224 939 224 922 q 229 956 224 949 q 246 964 235 964 q 256 961 250 964 l 397 878 q 408 860 408 872 q 401 842 408 850 q 382 835 393 835 z "},"ở":{"ha":632,"x_min":69,"x_max":564,"o":"m 315 -8 q 143 68 217 -8 q 69 244 69 144 l 69 414 q 142 589 69 514 q 315 664 214 664 q 488 590 414 664 q 563 414 563 517 l 563 244 q 488 69 563 146 q 315 -8 414 -8 m 315 40 q 456 103 397 40 q 514 244 514 167 l 514 414 q 456 553 514 490 q 315 615 399 615 q 175 553 232 615 q 118 414 118 490 l 118 244 q 176 103 118 167 q 315 40 233 40 m 379 611 l 379 656 q 518 751 518 656 q 522 781 518 768 q 539 793 525 793 q 560 779 556 793 q 564 751 564 765 q 524 650 564 689 q 379 611 485 611 m 228 935 q 271 964 247 953 q 321 975 294 975 q 393 945 372 975 q 414 889 414 915 q 400 848 414 867 q 365 808 386 829 q 358 797 361 804 q 354 779 356 790 q 333 763 353 763 q 313 782 313 763 q 315 806 313 792 q 331 833 318 819 q 358 863 347 851 q 369 889 369 874 q 322 931 369 931 q 290 922 304 931 q 264 906 275 914 q 225 903 238 885 q 219 917 219 910 q 228 935 218 925 z "},"ỡ":{"ha":632,"x_min":69,"x_max":564,"o":"m 315 -8 q 143 68 217 -8 q 69 244 69 144 l 69 414 q 142 589 69 514 q 315 664 214 664 q 488 590 414 664 q 563 414 563 517 l 563 244 q 488 69 563 146 q 315 -8 414 -8 m 315 40 q 456 103 397 40 q 514 244 514 167 l 514 414 q 456 553 514 490 q 315 615 399 615 q 175 553 232 615 q 118 414 118 490 l 118 244 q 176 103 118 167 q 315 40 233 40 m 379 611 l 379 656 q 518 751 518 656 q 522 781 518 768 q 539 793 525 793 q 560 779 556 793 q 564 751 564 765 q 524 650 564 689 q 379 611 485 611 m 404 860 q 319 885 354 860 q 225 911 283 911 q 163 887 181 911 q 129 863 144 863 q 117 869 122 863 q 111 886 111 875 q 154 936 111 914 q 235 958 197 958 q 322 933 286 958 q 411 907 358 907 q 472 929 458 907 q 501 951 485 951 q 515 946 508 951 q 521 931 521 940 q 479 879 521 899 q 404 860 438 860 z "},"ő":{"ha":632,"x_min":69,"x_max":563,"o":"m 315 -8 q 143 68 217 -8 q 69 244 69 144 l 69 414 q 142 589 69 514 q 315 664 214 664 q 488 590 414 664 q 563 414 563 517 l 563 244 q 488 69 563 146 q 315 -8 414 -8 m 315 40 q 456 103 397 40 q 514 244 514 167 l 514 414 q 456 553 514 490 q 315 615 399 615 q 175 553 232 615 q 118 414 118 490 l 118 244 q 176 103 118 167 q 315 40 233 40 m 185 835 q 167 842 175 835 q 158 860 158 850 q 169 878 158 872 l 311 961 q 321 964 317 964 q 337 956 331 964 q 343 939 343 949 q 329 914 343 922 l 197 839 q 185 835 192 835 m 389 835 q 370 842 378 835 q 363 860 363 850 q 374 878 363 872 l 515 961 q 525 964 521 964 q 542 956 536 964 q 547 939 547 949 q 533 914 547 922 l 401 839 q 389 835 394 835 z "},"ō":{"ha":632,"x_min":69,"x_max":563,"o":"m 315 -8 q 143 68 217 -8 q 69 244 69 144 l 69 414 q 142 589 69 514 q 315 664 214 664 q 488 590 414 664 q 563 414 563 517 l 563 244 q 488 69 563 146 q 315 -8 414 -8 m 315 40 q 456 103 397 40 q 514 244 514 167 l 514 414 q 456 553 514 490 q 315 615 399 615 q 175 553 232 615 q 118 414 118 490 l 118 244 q 176 103 118 167 q 315 40 233 40 m 163 899 q 139 922 139 899 q 146 940 139 933 q 163 947 153 947 l 468 947 q 485 940 478 947 q 493 922 493 933 q 485 905 493 911 q 468 899 478 899 l 163 899 z "},"ø":{"ha":632,"x_min":69,"x_max":563,"o":"m 315 -8 q 143 68 217 -8 q 69 244 69 144 l 69 414 q 142 589 69 514 q 315 664 214 664 q 488 590 414 664 q 563 414 563 517 l 563 244 q 488 69 563 146 q 315 -8 414 -8 m 315 40 q 456 103 397 40 q 514 244 514 167 l 514 414 q 456 553 514 490 q 315 615 399 615 q 175 553 232 615 q 118 414 118 490 l 118 244 q 176 103 118 167 q 315 40 233 40 m 144 -44 q 129 -39 136 -44 q 122 -24 122 -33 q 125 -11 122 -15 l 163 63 l 453 629 l 488 696 q 506 707 493 707 q 531 681 531 707 q 526 665 531 674 l 492 600 l 200 32 l 168 -29 q 144 -44 161 -44 z "},"ǿ":{"ha":632,"x_min":69,"x_max":563,"o":"m 315 -8 q 143 68 217 -8 q 69 244 69 144 l 69 414 q 142 589 69 514 q 315 664 214 664 q 488 590 414 664 q 563 414 563 517 l 563 244 q 488 69 563 146 q 315 -8 414 -8 m 315 40 q 456 103 397 40 q 514 244 514 167 l 514 414 q 456 553 514 490 q 315 615 399 615 q 175 553 232 615 q 118 414 118 490 l 118 244 q 176 103 118 167 q 315 40 233 40 m 144 -44 q 129 -39 136 -44 q 122 -24 122 -33 q 125 -11 122 -15 l 163 63 l 453 629 l 488 696 q 506 707 493 707 q 531 681 531 707 q 526 665 531 674 l 492 600 l 200 32 l 168 -29 q 144 -44 161 -44 m 250 835 q 232 842 240 835 q 224 860 224 850 q 235 878 224 872 l 376 961 q 386 964 382 964 q 402 956 396 964 q 408 939 408 949 q 394 914 408 922 l 263 839 q 250 835 257 835 z "},"õ":{"ha":632,"x_min":69,"x_max":563,"o":"m 315 -8 q 143 68 217 -8 q 69 244 69 144 l 69 414 q 142 589 69 514 q 315 664 214 664 q 488 590 414 664 q 563 414 563 517 l 563 244 q 488 69 563 146 q 315 -8 414 -8 m 315 40 q 456 103 397 40 q 514 244 514 167 l 514 414 q 456 553 514 490 q 315 615 399 615 q 175 553 232 615 q 118 414 118 490 l 118 244 q 176 103 118 167 q 315 40 233 40 m 404 860 q 319 885 354 860 q 225 911 283 911 q 163 887 181 911 q 129 863 144 863 q 117 869 122 863 q 111 886 111 875 q 154 936 111 914 q 235 958 197 958 q 322 933 286 958 q 411 907 358 907 q 472 929 458 907 q 501 951 485 951 q 515 946 508 951 q 521 931 521 940 q 479 879 521 899 q 404 860 438 860 z "},"œ":{"ha":1061,"x_min":69,"x_max":1007,"o":"m 315 -8 q 143 68 217 -8 q 69 244 69 144 l 69 414 q 142 589 69 514 q 315 664 214 664 q 446 624 386 664 q 538 521 506 585 q 627 624 567 583 q 761 664 688 664 q 933 593 858 664 q 1007 417 1007 522 q 973 324 1007 339 q 892 310 939 310 l 563 310 l 563 244 q 628 95 563 150 q 801 40 694 40 q 912 69 886 40 q 960 97 938 97 q 978 90 969 97 q 986 69 986 83 q 932 21 986 50 q 793 -8 878 -8 q 536 136 604 -8 q 446 33 506 74 q 315 -8 386 -8 m 315 40 q 456 103 397 40 q 514 244 514 167 l 514 414 q 456 553 514 490 q 315 615 399 615 q 175 553 232 615 q 118 414 118 490 l 118 244 q 176 103 118 167 q 315 40 233 40 m 563 358 l 875 358 q 942 368 926 358 q 958 410 958 378 q 904 550 958 485 q 761 615 850 615 q 620 558 678 615 q 563 424 563 500 l 563 358 z "},"p":{"ha":650,"x_min":96,"x_max":581,"o":"m 119 -329 q 102 -322 108 -329 q 96 -304 96 -314 l 96 632 q 102 649 96 642 q 119 656 108 656 q 138 649 131 656 q 144 632 144 642 l 144 558 q 214 631 167 599 q 331 664 261 664 q 507 590 433 664 q 581 414 581 517 l 581 244 q 506 69 581 146 q 333 -8 432 -8 q 218 23 269 -8 q 144 97 167 54 l 144 -304 q 138 -322 144 -314 q 119 -329 131 -329 m 336 40 q 474 103 415 40 q 532 244 532 167 l 532 414 q 474 553 532 490 q 335 615 417 615 q 204 562 264 615 q 144 414 144 508 l 144 193 q 199 99 144 158 q 336 40 254 40 z "},"þ":{"ha":650,"x_min":96,"x_max":581,"o":"m 119 -329 q 102 -322 108 -329 q 96 -304 96 -314 l 96 1043 q 102 1060 96 1053 q 119 1067 108 1067 q 138 1060 131 1067 q 144 1043 144 1053 l 144 558 q 214 631 167 599 q 331 664 261 664 q 507 590 433 664 q 581 414 581 517 l 581 244 q 506 69 581 146 q 333 -8 432 -8 q 218 23 269 -8 q 144 97 167 54 l 144 -304 q 138 -322 144 -314 q 119 -329 131 -329 m 336 40 q 474 103 415 40 q 532 244 532 167 l 532 414 q 474 553 532 490 q 335 615 417 615 q 204 562 264 615 q 144 414 144 508 l 144 193 q 199 99 144 158 q 336 40 254 40 z "},"q":{"ha":650,"x_min":69,"x_max":554,"o":"m 531 -329 q 513 -322 519 -329 q 506 -304 506 -314 l 506 97 q 432 23 483 54 q 317 -8 381 -8 q 144 69 218 -8 q 69 244 69 146 l 69 414 q 143 590 69 517 q 319 664 217 664 q 436 631 389 664 q 506 558 483 599 l 506 632 q 513 649 506 642 q 531 656 519 656 q 548 649 542 656 q 554 632 554 642 l 554 -304 q 548 -322 554 -314 q 531 -329 542 -329 m 314 40 q 451 99 396 40 q 506 193 506 158 l 506 414 q 446 562 506 508 q 315 615 386 615 q 176 553 233 615 q 118 414 118 490 l 118 244 q 176 103 118 167 q 314 40 235 40 z "},"r":{"ha":428,"x_min":94,"x_max":411,"o":"m 118 0 q 101 8 108 0 q 94 25 94 15 l 94 632 q 101 649 94 642 q 118 656 108 656 q 135 649 128 656 q 143 632 143 642 l 143 558 q 215 631 167 599 q 336 664 264 664 l 388 664 q 404 657 397 664 q 411 639 411 650 q 404 622 411 629 q 388 615 397 615 l 336 615 q 203 562 264 615 q 143 414 143 508 l 143 25 q 135 8 143 15 q 118 0 128 0 z "},"ŕ":{"ha":428,"x_min":94,"x_max":411,"o":"m 118 0 q 101 8 108 0 q 94 25 94 15 l 94 632 q 101 649 94 642 q 118 656 108 656 q 135 649 128 656 q 143 632 143 642 l 143 558 q 215 631 167 599 q 336 664 264 664 l 388 664 q 404 657 397 664 q 411 639 411 650 q 404 622 411 629 q 388 615 397 615 l 336 615 q 203 562 264 615 q 143 414 143 508 l 143 25 q 135 8 143 15 q 118 0 128 0 m 133 835 q 115 842 122 835 q 107 860 107 850 q 118 878 107 872 l 260 961 q 269 964 265 964 q 286 956 281 964 q 292 939 292 949 q 278 914 292 922 l 146 839 q 133 835 139 835 z "},"ř":{"ha":428,"x_min":21,"x_max":411,"o":"m 118 0 q 101 8 108 0 q 94 25 94 15 l 94 632 q 101 649 94 642 q 118 656 108 656 q 135 649 128 656 q 143 632 143 642 l 143 558 q 215 631 167 599 q 336 664 264 664 l 388 664 q 404 657 397 664 q 411 639 411 650 q 404 622 411 629 q 388 615 397 615 l 336 615 q 203 562 264 615 q 143 414 143 508 l 143 25 q 135 8 143 15 q 118 0 128 0 m 200 817 q 171 832 183 817 l 32 972 q 21 994 21 986 q 26 1008 21 1001 q 42 1015 32 1015 q 64 1004 54 1015 l 200 861 l 336 1004 q 358 1015 346 1015 q 374 1008 368 1015 q 379 994 379 1001 q 368 972 379 986 l 229 832 q 200 817 214 817 z "},"ŗ":{"ha":428,"x_min":-10,"x_max":411,"o":"m 118 0 q 101 8 108 0 q 94 25 94 15 l 94 632 q 101 649 94 642 q 118 656 108 656 q 135 649 128 656 q 143 632 143 642 l 143 558 q 215 631 167 599 q 336 664 264 664 l 388 664 q 404 657 397 664 q 411 639 411 650 q 404 622 411 629 q 388 615 397 615 l 336 615 q 203 562 264 615 q 143 414 143 508 l 143 25 q 135 8 143 15 q 118 0 128 0 m 17 -196 q -2 -188 6 -196 q -10 -171 -10 -181 q 1 -153 -10 -158 l 143 -69 q 153 -67 149 -67 q 169 -74 164 -67 q 175 -92 175 -82 q 161 -117 175 -108 l 29 -192 q 17 -196 22 -196 z "},"s":{"ha":518,"x_min":53,"x_max":465,"o":"m 256 -8 q 107 24 161 -8 q 53 82 53 57 q 59 99 53 92 q 72 106 65 106 q 124 73 92 106 q 254 40 156 40 q 379 74 342 40 q 417 156 417 108 q 381 251 417 219 q 294 298 346 282 q 190 331 242 314 q 102 381 138 347 q 67 483 67 414 q 115 605 67 546 q 272 664 164 664 q 388 644 333 664 q 442 606 442 625 q 435 588 442 599 q 418 578 428 578 q 370 597 404 578 q 274 615 336 615 q 150 570 185 615 q 115 485 115 525 q 151 403 115 429 q 238 364 186 378 q 342 331 290 350 q 430 274 394 313 q 465 158 465 236 q 410 36 465 81 q 256 -8 354 -8 z "},"ś":{"ha":518,"x_min":53,"x_max":465,"o":"m 256 -8 q 107 24 161 -8 q 53 82 53 57 q 59 99 53 92 q 72 106 65 106 q 124 73 92 106 q 254 40 156 40 q 379 74 342 40 q 417 156 417 108 q 381 251 417 219 q 294 298 346 282 q 190 331 242 314 q 102 381 138 347 q 67 483 67 414 q 115 605 67 546 q 272 664 164 664 q 388 644 333 664 q 442 606 442 625 q 435 588 442 599 q 418 578 428 578 q 370 597 404 578 q 274 615 336 615 q 150 570 185 615 q 115 485 115 525 q 151 403 115 429 q 238 364 186 378 q 342 331 290 350 q 430 274 394 313 q 465 158 465 236 q 410 36 465 81 q 256 -8 354 -8 m 185 835 q 167 842 175 835 q 158 860 158 850 q 169 878 158 872 l 311 961 q 321 964 317 964 q 337 956 331 964 q 343 939 343 949 q 329 914 343 922 l 197 839 q 185 835 192 835 z "},"š":{"ha":518,"x_min":53,"x_max":465,"o":"m 256 -8 q 107 24 161 -8 q 53 82 53 57 q 59 99 53 92 q 72 106 65 106 q 124 73 92 106 q 254 40 156 40 q 379 74 342 40 q 417 156 417 108 q 381 251 417 219 q 294 298 346 282 q 190 331 242 314 q 102 381 138 347 q 67 483 67 414 q 115 605 67 546 q 272 664 164 664 q 388 644 333 664 q 442 606 442 625 q 435 588 442 599 q 418 578 428 578 q 370 597 404 578 q 274 615 336 615 q 150 570 185 615 q 115 485 115 525 q 151 403 115 429 q 238 364 186 378 q 342 331 290 350 q 430 274 394 313 q 465 158 465 236 q 410 36 465 81 q 256 -8 354 -8 m 250 817 q 221 832 233 817 l 82 972 q 71 994 71 986 q 76 1008 71 1001 q 92 1015 82 1015 q 114 1004 104 1015 l 250 861 l 386 1004 q 408 1015 396 1015 q 424 1008 418 1015 q 429 994 429 1001 q 418 972 429 986 l 279 832 q 250 817 264 817 z "},"ş":{"ha":518,"x_min":53,"x_max":465,"o":"m 292 -287 q 228 -280 268 -287 q 189 -254 189 -272 q 194 -238 189 -247 q 206 -229 200 -229 q 231 -238 213 -229 q 283 -247 249 -247 q 344 -230 328 -247 q 360 -190 360 -212 q 263 -128 360 -135 l 222 -125 l 250 -8 q 106 25 158 -7 q 53 82 53 57 q 59 99 53 92 q 72 106 65 106 q 124 73 92 106 q 254 40 156 40 q 379 74 342 40 q 417 156 417 108 q 381 251 417 219 q 294 298 346 282 q 190 331 242 314 q 102 381 138 347 q 67 483 67 414 q 115 605 67 546 q 272 664 164 664 q 388 644 333 664 q 442 606 442 625 q 435 588 442 599 q 418 578 428 578 q 370 597 404 578 q 274 615 336 615 q 150 570 185 615 q 115 485 115 525 q 151 403 115 429 q 238 364 186 378 q 342 331 290 350 q 430 274 394 313 q 465 158 465 236 q 294 -6 465 13 l 275 -90 q 376 -122 346 -92 q 406 -187 406 -153 q 376 -257 406 -226 q 292 -287 346 -287 z "},"ŝ":{"ha":518,"x_min":53,"x_max":465,"o":"m 256 -8 q 107 24 161 -8 q 53 82 53 57 q 59 99 53 92 q 72 106 65 106 q 124 73 92 106 q 254 40 156 40 q 379 74 342 40 q 417 156 417 108 q 381 251 417 219 q 294 298 346 282 q 190 331 242 314 q 102 381 138 347 q 67 483 67 414 q 115 605 67 546 q 272 664 164 664 q 388 644 333 664 q 442 606 442 625 q 435 588 442 599 q 418 578 428 578 q 370 597 404 578 q 274 615 336 615 q 150 570 185 615 q 115 485 115 525 q 151 403 115 429 q 238 364 186 378 q 342 331 290 350 q 430 274 394 313 q 465 158 465 236 q 410 36 465 81 q 256 -8 354 -8 m 96 833 q 78 841 86 833 q 71 860 71 849 q 83 879 71 872 l 228 957 q 251 964 239 964 q 275 957 264 964 l 419 881 q 432 857 432 875 q 425 841 432 847 q 408 835 418 835 q 396 839 408 835 l 251 915 l 107 838 q 96 833 94 833 z "},"ș":{"ha":518,"x_min":53,"x_max":465,"o":"m 256 -8 q 107 24 161 -8 q 53 82 53 57 q 59 99 53 92 q 72 106 65 106 q 124 73 92 106 q 254 40 156 40 q 379 74 342 40 q 417 156 417 108 q 381 251 417 219 q 294 298 346 282 q 190 331 242 314 q 102 381 138 347 q 67 483 67 414 q 115 605 67 546 q 272 664 164 664 q 388 644 333 664 q 442 606 442 625 q 435 588 442 599 q 418 578 428 578 q 370 597 404 578 q 274 615 336 615 q 150 570 185 615 q 115 485 115 525 q 151 403 115 429 q 238 364 186 378 q 342 331 290 350 q 430 274 394 313 q 465 158 465 236 q 410 36 465 81 q 256 -8 354 -8 m 194 -196 q 176 -188 183 -196 q 168 -171 168 -181 q 179 -153 168 -158 l 321 -69 q 331 -67 326 -67 q 347 -74 342 -67 q 353 -92 353 -82 q 339 -117 353 -108 l 207 -192 q 194 -196 200 -196 z "},"ß":{"ha":733,"x_min":11,"x_max":672,"o":"m 443 -28 q 389 -24 425 -28 q 322 -9 353 -19 q 292 22 292 1 q 298 39 292 32 q 313 46 304 46 q 351 31 326 46 q 429 15 376 15 q 574 80 519 15 q 628 272 628 144 l 628 299 q 578 453 628 372 q 394 544 529 535 q 363 549 375 546 q 351 567 351 553 q 365 588 351 583 q 396 593 378 592 q 507 672 483 599 q 531 801 531 744 q 488 960 531 903 q 360 1018 444 1018 q 231 958 267 1018 q 196 819 196 897 l 196 24 q 188 7 196 14 q 169 0 181 0 q 153 7 160 0 q 147 24 147 14 l 147 607 l 35 607 q 18 613 25 607 q 11 631 11 619 q 18 649 11 642 q 35 656 25 656 l 147 656 l 147 819 q 197 993 147 919 q 360 1067 246 1067 q 516 1006 453 1067 q 579 818 579 946 q 554 669 579 742 q 478 574 529 597 q 609 482 546 560 q 672 299 672 404 l 672 272 q 600 44 672 117 q 443 -28 528 -28 z "},"t":{"ha":378,"x_min":92,"x_max":351,"o":"m 294 0 q 144 46 196 0 q 92 193 92 92 l 92 953 q 99 970 92 964 q 115 976 107 976 q 133 970 125 976 q 140 953 140 964 l 140 656 l 328 656 q 344 649 338 656 q 351 631 351 642 q 344 614 351 621 q 328 607 338 607 l 140 607 l 140 193 q 174 81 140 114 q 294 49 208 49 l 326 49 q 343 42 336 49 q 350 25 350 36 q 343 7 350 14 q 326 0 336 0 l 294 0 z "},"ŧ":{"ha":383,"x_min":92,"x_max":351,"o":"m 294 0 q 144 46 196 0 q 92 193 92 92 l 92 953 q 99 970 92 964 q 115 976 107 976 q 133 970 125 976 q 140 953 140 964 l 140 656 l 328 656 q 344 649 338 656 q 351 631 351 642 q 344 614 351 621 q 328 607 338 607 l 140 607 l 140 447 l 328 447 q 344 440 338 447 q 351 422 351 433 q 344 406 351 413 q 328 399 338 399 l 140 399 l 140 193 q 174 81 140 114 q 294 49 208 49 l 326 49 q 343 42 336 49 q 350 25 350 36 q 343 7 350 14 q 326 0 336 0 l 294 0 z "},"ť":{"ha":378,"x_min":92,"x_max":351,"o":"m 294 0 q 144 46 196 0 q 92 193 92 92 l 92 953 q 99 970 92 964 q 115 976 107 976 q 133 970 125 976 q 140 953 140 964 l 140 656 l 328 656 q 344 649 338 656 q 351 631 351 642 q 344 614 351 621 q 328 607 338 607 l 140 607 l 140 193 q 174 81 140 114 q 294 49 208 49 l 326 49 q 343 42 336 49 q 350 25 350 36 q 343 7 350 14 q 326 0 336 0 l 294 0 m 278 831 q 263 836 269 831 q 256 851 256 842 q 257 860 256 857 l 282 931 q 244 979 244 940 q 258 1015 244 1000 q 294 1029 272 1029 q 328 1015 314 1029 q 343 979 343 1000 q 336 944 343 968 q 319 894 329 921 q 297 844 308 867 q 278 831 290 831 z "},"ţ":{"ha":378,"x_min":86,"x_max":351,"o":"m 294 0 q 144 46 196 0 q 92 193 92 92 l 92 953 q 99 970 92 964 q 115 976 107 976 q 133 970 125 976 q 140 953 140 964 l 140 656 l 328 656 q 344 649 338 656 q 351 631 351 642 q 344 614 351 621 q 328 607 338 607 l 140 607 l 140 193 q 174 81 140 114 q 294 49 208 49 l 326 49 q 343 42 336 49 q 350 25 350 36 q 343 7 350 14 q 326 0 336 0 l 294 0 m 113 -196 q 94 -188 103 -196 q 86 -171 86 -181 q 97 -153 86 -158 l 239 -69 q 249 -67 244 -67 q 265 -74 258 -67 q 271 -92 271 -82 q 257 -117 271 -108 l 125 -192 q 113 -196 119 -196 z "},"u":{"ha":671,"x_min":89,"x_max":582,"o":"m 336 -8 q 161 67 233 -8 q 89 242 89 143 l 89 631 q 96 648 89 640 q 114 656 103 656 q 131 648 124 656 q 138 631 138 640 l 138 242 q 195 102 138 164 q 336 40 253 40 q 476 102 418 40 q 533 242 533 164 l 533 632 q 540 649 533 642 q 558 656 547 656 q 576 649 569 656 q 582 632 582 642 l 582 242 q 509 67 582 142 q 336 -8 436 -8 z "},"ú":{"ha":671,"x_min":89,"x_max":582,"o":"m 336 -8 q 161 67 233 -8 q 89 242 89 143 l 89 631 q 96 648 89 640 q 114 656 103 656 q 131 648 124 656 q 138 631 138 640 l 138 242 q 195 102 138 164 q 336 40 253 40 q 476 102 418 40 q 533 242 533 164 l 533 632 q 540 649 533 642 q 558 656 547 656 q 576 649 569 656 q 582 632 582 642 l 582 242 q 509 67 582 142 q 336 -8 436 -8 m 269 835 q 251 842 258 835 q 243 860 243 850 q 254 878 243 872 l 396 961 q 406 964 401 964 q 422 956 417 964 q 428 939 428 949 q 414 914 428 922 l 282 839 q 269 835 275 835 z "},"ŭ":{"ha":671,"x_min":89,"x_max":582,"o":"m 336 -8 q 161 67 233 -8 q 89 242 89 143 l 89 631 q 96 648 89 640 q 114 656 103 656 q 131 648 124 656 q 138 631 138 640 l 138 242 q 195 102 138 164 q 336 40 253 40 q 476 102 418 40 q 533 242 533 164 l 533 632 q 540 649 533 642 q 558 656 547 656 q 576 649 569 656 q 582 632 582 642 l 582 242 q 509 67 582 142 q 336 -8 436 -8 m 335 835 q 229 880 275 835 q 183 986 183 925 l 228 986 q 260 905 228 939 q 335 871 292 871 q 409 905 378 871 q 440 986 440 939 l 486 986 q 440 880 486 925 q 335 835 394 835 z "},"û":{"ha":671,"x_min":89,"x_max":582,"o":"m 336 -8 q 161 67 233 -8 q 89 242 89 143 l 89 631 q 96 648 89 640 q 114 656 103 656 q 131 648 124 656 q 138 631 138 640 l 138 242 q 195 102 138 164 q 336 40 253 40 q 476 102 418 40 q 533 242 533 164 l 533 632 q 540 649 533 642 q 558 656 547 656 q 576 649 569 656 q 582 632 582 642 l 582 242 q 509 67 582 142 q 336 -8 436 -8 m 179 833 q 162 841 169 833 q 154 860 154 849 q 167 879 154 872 l 311 957 q 335 964 322 964 q 358 957 347 964 l 503 881 q 515 857 515 875 q 508 841 515 847 q 492 835 501 835 q 479 839 492 835 l 335 915 l 190 838 q 179 833 178 833 z "},"ü":{"ha":671,"x_min":89,"x_max":582,"o":"m 336 -8 q 161 67 233 -8 q 89 242 89 143 l 89 631 q 96 648 89 640 q 114 656 103 656 q 131 648 124 656 q 138 631 138 640 l 138 242 q 195 102 138 164 q 336 40 253 40 q 476 102 418 40 q 533 242 533 164 l 533 632 q 540 649 533 642 q 558 656 547 656 q 576 649 569 656 q 582 632 582 642 l 582 242 q 509 67 582 142 q 336 -8 436 -8 m 258 833 q 228 845 239 833 q 217 875 217 857 q 228 904 217 893 q 258 915 239 915 q 288 904 276 915 q 299 875 299 893 q 288 845 299 857 q 258 833 276 833 m 413 833 q 383 845 394 833 q 371 875 371 857 q 383 904 371 893 q 413 915 394 915 q 442 904 431 915 q 453 875 453 893 q 442 845 453 857 q 413 833 431 833 z "},"ụ":{"ha":671,"x_min":89,"x_max":582,"o":"m 336 -8 q 161 67 233 -8 q 89 242 89 143 l 89 631 q 96 648 89 640 q 114 656 103 656 q 131 648 124 656 q 138 631 138 640 l 138 242 q 195 102 138 164 q 336 40 253 40 q 476 102 418 40 q 533 242 533 164 l 533 632 q 540 649 533 642 q 558 656 547 656 q 576 649 569 656 q 582 632 582 642 l 582 242 q 509 67 582 142 q 336 -8 436 -8 z "},"ù":{"ha":671,"x_min":89,"x_max":582,"o":"m 336 -8 q 161 67 233 -8 q 89 242 89 143 l 89 631 q 96 648 89 640 q 114 656 103 656 q 131 648 124 656 q 138 631 138 640 l 138 242 q 195 102 138 164 q 336 40 253 40 q 476 102 418 40 q 533 242 533 164 l 533 632 q 540 649 533 642 q 558 656 547 656 q 576 649 569 656 q 582 632 582 642 l 582 242 q 509 67 582 142 q 336 -8 436 -8 m 401 835 q 389 839 394 835 l 257 914 q 243 939 243 922 q 249 956 243 949 q 265 964 256 964 q 275 961 269 964 l 417 878 q 428 860 428 872 q 419 842 428 850 q 401 835 411 835 z "},"ủ":{"ha":671,"x_min":89,"x_max":582,"o":"m 336 -8 q 161 67 233 -8 q 89 242 89 143 l 89 631 q 96 648 89 640 q 114 656 103 656 q 131 648 124 656 q 138 631 138 640 l 138 242 q 195 102 138 164 q 336 40 253 40 q 476 102 418 40 q 533 242 533 164 l 533 632 q 540 649 533 642 q 558 656 547 656 q 576 649 569 656 q 582 632 582 642 l 582 242 q 509 67 582 142 q 336 -8 436 -8 m 247 935 q 290 964 267 953 q 340 975 314 975 q 413 945 392 975 q 433 889 433 915 q 419 848 433 867 q 385 808 406 829 q 378 797 381 804 q 374 779 375 790 q 353 763 372 763 q 332 782 332 763 q 335 806 332 792 q 350 833 338 819 q 378 863 367 851 q 389 889 389 874 q 342 931 389 931 q 309 922 324 931 q 283 906 294 914 q 244 903 257 885 q 238 917 239 910 q 247 935 238 925 z "},"ư":{"ha":671,"x_min":89,"x_max":740,"o":"m 336 -8 q 161 67 233 -8 q 89 242 89 143 l 89 631 q 96 648 89 640 q 114 656 103 656 q 131 648 124 656 q 138 631 138 640 l 138 242 q 195 102 138 164 q 336 40 253 40 q 476 102 418 40 q 533 242 533 164 l 533 632 q 540 649 533 642 q 558 656 547 656 q 576 649 569 656 q 582 632 582 642 l 582 242 q 509 67 582 142 q 336 -8 436 -8 m 556 611 l 556 656 q 694 751 694 656 q 698 781 694 768 q 715 793 701 793 q 736 779 732 793 q 740 751 740 765 q 701 650 740 689 q 556 611 661 611 z "},"ứ":{"ha":671,"x_min":89,"x_max":740,"o":"m 336 -8 q 161 67 233 -8 q 89 242 89 143 l 89 631 q 96 648 89 640 q 114 656 103 656 q 131 648 124 656 q 138 631 138 640 l 138 242 q 195 102 138 164 q 336 40 253 40 q 476 102 418 40 q 533 242 533 164 l 533 632 q 540 649 533 642 q 558 656 547 656 q 576 649 569 656 q 582 632 582 642 l 582 242 q 509 67 582 142 q 336 -8 436 -8 m 556 611 l 556 656 q 694 751 694 656 q 698 781 694 768 q 715 793 701 793 q 736 779 732 793 q 740 751 740 765 q 701 650 740 689 q 556 611 661 611 m 269 835 q 251 842 260 835 q 243 860 243 850 q 254 878 243 872 l 396 961 q 406 964 401 964 q 422 956 415 964 q 428 939 428 949 q 414 914 428 922 l 282 839 q 269 835 276 835 z "},"ự":{"ha":671,"x_min":89,"x_max":740,"o":"m 336 -8 q 161 67 233 -8 q 89 242 89 143 l 89 631 q 96 648 89 640 q 114 656 103 656 q 131 648 124 656 q 138 631 138 640 l 138 242 q 195 102 138 164 q 336 40 253 40 q 476 102 418 40 q 533 242 533 164 l 533 632 q 540 649 533 642 q 558 656 547 656 q 576 649 569 656 q 582 632 582 642 l 582 242 q 509 67 582 142 q 336 -8 436 -8 m 556 611 l 556 656 q 694 751 694 656 q 698 781 694 768 q 715 793 701 793 q 736 779 732 793 q 740 751 740 765 q 701 650 740 689 q 556 611 661 611 z "},"ừ":{"ha":671,"x_min":89,"x_max":740,"o":"m 336 -8 q 161 67 233 -8 q 89 242 89 143 l 89 631 q 96 648 89 640 q 114 656 103 656 q 131 648 124 656 q 138 631 138 640 l 138 242 q 195 102 138 164 q 336 40 253 40 q 476 102 418 40 q 533 242 533 164 l 533 632 q 540 649 533 642 q 558 656 547 656 q 576 649 569 656 q 582 632 582 642 l 582 242 q 509 67 582 142 q 336 -8 436 -8 m 556 611 l 556 656 q 694 751 694 656 q 698 781 694 768 q 715 793 701 793 q 736 779 732 793 q 740 751 740 765 q 701 650 740 689 q 556 611 661 611 m 401 835 q 389 839 396 835 l 257 914 q 243 939 243 922 q 249 956 243 949 q 265 964 254 964 q 275 961 269 964 l 417 878 q 428 860 428 872 q 420 842 428 850 q 401 835 413 835 z "},"ử":{"ha":671,"x_min":89,"x_max":740,"o":"m 336 -8 q 161 67 233 -8 q 89 242 89 143 l 89 631 q 96 648 89 640 q 114 656 103 656 q 131 648 124 656 q 138 631 138 640 l 138 242 q 195 102 138 164 q 336 40 253 40 q 476 102 418 40 q 533 242 533 164 l 533 632 q 540 649 533 642 q 558 656 547 656 q 576 649 569 656 q 582 632 582 642 l 582 242 q 509 67 582 142 q 336 -8 436 -8 m 556 611 l 556 656 q 694 751 694 656 q 698 781 694 768 q 715 793 701 793 q 736 779 732 793 q 740 751 740 765 q 701 650 740 689 q 556 611 661 611 m 247 935 q 290 964 267 953 q 340 975 314 975 q 413 945 392 975 q 433 889 433 915 q 419 848 433 867 q 385 808 406 829 q 378 797 381 804 q 374 779 375 790 q 353 763 372 763 q 332 782 332 763 q 335 806 332 792 q 350 833 338 819 q 378 863 367 851 q 389 889 389 874 q 342 931 389 931 q 309 922 324 931 q 283 906 294 914 q 244 903 257 885 q 238 917 239 910 q 247 935 238 925 z "},"ữ":{"ha":671,"x_min":89,"x_max":740,"o":"m 336 -8 q 161 67 233 -8 q 89 242 89 143 l 89 631 q 96 648 89 640 q 114 656 103 656 q 131 648 124 656 q 138 631 138 640 l 138 242 q 195 102 138 164 q 336 40 253 40 q 476 102 418 40 q 533 242 533 164 l 533 632 q 540 649 533 642 q 558 656 547 656 q 576 649 569 656 q 582 632 582 642 l 582 242 q 509 67 582 142 q 336 -8 436 -8 m 556 611 l 556 656 q 694 751 694 656 q 698 781 694 768 q 715 793 701 793 q 736 779 732 793 q 740 751 740 765 q 701 650 740 689 q 556 611 661 611 m 424 860 q 338 885 374 860 q 244 911 303 911 q 182 887 200 911 q 149 863 164 863 q 136 869 142 863 q 131 886 131 875 q 174 936 131 914 q 254 958 217 958 q 342 933 306 958 q 431 907 378 907 q 491 929 478 907 q 521 951 504 951 q 534 946 528 951 q 540 931 540 940 q 499 879 540 899 q 424 860 457 860 z "},"ű":{"ha":671,"x_min":89,"x_max":583,"o":"m 336 -8 q 161 67 233 -8 q 89 242 89 143 l 89 631 q 96 648 89 640 q 114 656 103 656 q 131 648 124 656 q 138 631 138 640 l 138 242 q 195 102 138 164 q 336 40 253 40 q 476 102 418 40 q 533 242 533 164 l 533 632 q 540 649 533 642 q 558 656 547 656 q 576 649 569 656 q 582 632 582 642 l 582 242 q 509 67 582 142 q 336 -8 436 -8 m 221 835 q 203 842 211 835 q 194 860 194 850 q 206 878 194 872 l 347 961 q 357 964 353 964 q 373 956 367 964 q 379 939 379 949 q 365 914 379 922 l 233 839 q 221 835 228 835 m 425 835 q 406 842 414 835 q 399 860 399 850 q 410 878 399 872 l 551 961 q 561 964 557 964 q 578 956 572 964 q 583 939 583 949 q 569 914 583 922 l 438 839 q 425 835 431 835 z "},"ū":{"ha":671,"x_min":89,"x_max":582,"o":"m 336 -8 q 161 67 233 -8 q 89 242 89 143 l 89 631 q 96 648 89 640 q 114 656 103 656 q 131 648 124 656 q 138 631 138 640 l 138 242 q 195 102 138 164 q 336 40 253 40 q 476 102 418 40 q 533 242 533 164 l 533 632 q 540 649 533 642 q 558 656 547 656 q 576 649 569 656 q 582 632 582 642 l 582 242 q 509 67 582 142 q 336 -8 436 -8 m 182 899 q 158 922 158 899 q 165 940 158 933 q 182 947 172 947 l 488 947 q 505 940 497 947 q 513 922 513 933 q 505 905 513 911 q 488 899 497 899 l 182 899 z "},"ų":{"ha":671,"x_min":89,"x_max":582,"o":"m 386 -271 q 307 -252 349 -271 q 265 -178 265 -233 q 285 -87 265 -129 q 336 -8 304 -44 q 161 67 233 -8 q 89 242 89 143 l 89 631 q 96 648 89 640 q 114 656 103 656 q 131 648 124 656 q 138 631 138 640 l 138 242 q 195 102 138 164 q 336 40 253 40 q 476 102 418 40 q 533 242 533 164 l 533 632 q 540 649 533 642 q 558 656 547 656 q 576 649 569 656 q 582 632 582 642 l 582 242 q 531 93 582 160 q 406 3 481 26 q 335 -79 364 -37 q 306 -175 306 -121 q 393 -235 306 -235 q 410 -238 403 -235 q 418 -253 418 -242 q 411 -267 418 -264 q 386 -271 404 -271 z "}}}
